Compagnon-Script.ufo
<glyph name="numbersign" format="2">
	<advance width="600"/>
	<unicode hex="0023"/>
	<note>
		numbersign
	</note>
	<outline>
		<contour>
			<point x="438" y="355" type="line"/>
			<point x="505" y="355" type="line"/>
			<point x="531" y="354"/>
			<point x="555" y="371"/>
			<point x="555" y="391" type="curve" smooth="yes"/>
			<point x="555" y="413"/>
			<point x="543" y="429"/>
			<point x="521" y="429" type="curve" smooth="yes"/>
			<point x="456" y="429" type="line"/>
			<point x="485" y="548" type="line" smooth="yes"/>
			<point x="490" y="569"/>
			<point x="485" y="596"/>
			<point x="459" y="596" type="curve" smooth="yes"/>
			<point x="434" y="596"/>
			<point x="414" y="577"/>
			<point x="408" y="548" type="curve"/>
			<point x="379" y="430" type="line"/>
			<point x="292" y="430" type="line"/>
			<point x="321" y="549" type="line" smooth="yes"/>
			<point x="326" y="570"/>
			<point x="321" y="597"/>
			<point x="295" y="597" type="curve" smooth="yes"/>
			<point x="270" y="597"/>
			<point x="250" y="578"/>
			<point x="244" y="549" type="curve"/>
			<point x="215" y="431" type="line"/>
			<point x="148" y="431" type="line"/>
			<point x="119" y="433"/>
			<point x="96" y="419"/>
			<point x="89" y="394" type="curve" smooth="yes"/>
			<point x="82" y="370"/>
			<point x="108" y="357"/>
			<point x="130" y="357" type="curve" smooth="yes"/>
			<point x="198" y="357" type="line"/>
			<point x="166" y="225" type="line"/>
			<point x="106" y="225" type="line"/>
			<point x="77" y="227"/>
			<point x="54" y="213"/>
			<point x="47" y="188" type="curve" smooth="yes"/>
			<point x="40" y="164"/>
			<point x="66" y="151"/>
			<point x="88" y="151" type="curve" smooth="yes"/>
			<point x="148" y="151" type="line"/>
			<point x="120" y="35" type="line" smooth="yes"/>
			<point x="115" y="13"/>
			<point x="128" y="-4"/>
			<point x="149" y="-7" type="curve" smooth="yes"/>
			<point x="170" y="-10"/>
			<point x="191" y="7"/>
			<point x="196" y="32" type="curve"/>
			<point x="225" y="150" type="line"/>
			<point x="312" y="150" type="line"/>
			<point x="284" y="34" type="line" smooth="yes"/>
			<point x="279" y="12"/>
			<point x="292" y="-5"/>
			<point x="313" y="-8" type="curve" smooth="yes"/>
			<point x="334" y="-11"/>
			<point x="355" y="6"/>
			<point x="360" y="31" type="curve"/>
			<point x="389" y="149" type="line"/>
			<point x="463" y="149" type="line"/>
			<point x="489" y="148"/>
			<point x="513" y="165"/>
			<point x="513" y="185" type="curve" smooth="yes"/>
			<point x="513" y="207"/>
			<point x="501" y="223"/>
			<point x="479" y="223" type="curve" smooth="yes"/>
			<point x="407" y="223" type="line"/>
		</contour>
		<contour>
			<point x="362" y="356" type="line"/>
			<point x="330" y="224" type="line"/>
			<point x="242" y="224" type="line"/>
			<point x="274" y="356" type="line"/>
		</contour>
	</outline>
</glyph>
<glyph name="dollar" format="2">
	<advance width="600"/>
	<unicode hex="0024"/>
	<note>
		dollar
	</note>
	<outline>
		<contour>
			<point x="433" y="506" type="curve"/>
			<point x="447" y="564" type="line" smooth="yes"/>
			<point x="450" y="575"/>
			<point x="452" y="597"/>
			<point x="427" y="597" type="curve" smooth="yes"/>
			<point x="406" y="597"/>
			<point x="391" y="587"/>
			<point x="385" y="562" type="curve" smooth="yes"/>
			<point x="373" y="514" type="line"/>
			<point x="330" y="513"/>
			<point x="246" y="503"/>
			<point x="225" y="401" type="curve" smooth="yes"/>
			<point x="210" y="326"/>
			<point x="249" y="275"/>
			<point x="276" y="249" type="curve"/>
			<point x="302" y="220" type="line"/>
			<point x="246" y="-13" type="line"/>
			<point x="240" y="-13" type="line" smooth="yes"/>
			<point x="198" y="-13"/>
			<point x="162" y="18"/>
			<point x="162" y="55" type="curve" smooth="yes"/>
			<point x="162" y="103"/>
			<point x="174" y="125"/>
			<point x="218" y="125" type="curve" smooth="yes"/>
			<point x="250" y="125"/>
			<point x="261" y="137"/>
			<point x="261" y="160" type="curve" smooth="yes"/>
			<point x="261" y="185"/>
			<point x="253" y="196"/>
			<point x="218" y="196" type="curve" smooth="yes"/>
			<point x="135" y="196"/>
			<point x="92" y="143"/>
			<point x="92" y="55" type="curve" smooth="yes"/>
			<point x="92" y="-19"/>
			<point x="151" y="-78"/>
			<point x="229" y="-84" type="curve"/>
			<point x="215" y="-141" type="line" smooth="yes"/>
			<point x="210" y="-160"/>
			<point x="226" y="-174"/>
			<point x="238" y="-174" type="curve" smooth="yes"/>
			<point x="256" y="-174"/>
			<point x="272" y="-163"/>
			<point x="278" y="-136" type="curve" smooth="yes"/>
			<point x="292" y="-79" type="line"/>
			<point x="363" y="-64"/>
			<point x="416" y="-18"/>
			<point x="437" y="52" type="curve" smooth="yes"/>
			<point x="453" y="105"/>
			<point x="429" y="172"/>
			<point x="370" y="247" type="curve"/>
			<point x="416" y="437" type="line"/>
			<point x="430" y="429"/>
			<point x="437" y="416"/>
			<point x="437" y="396" type="curve" smooth="yes"/>
			<point x="437" y="361"/>
			<point x="449" y="343"/>
			<point x="473" y="343" type="curve" smooth="yes"/>
			<point x="498" y="343"/>
			<point x="508" y="359"/>
			<point x="508" y="396" type="curve" smooth="yes"/>
			<point x="508" y="451"/>
			<point x="480" y="491"/>
		</contour>
		<contour>
			<point x="297" y="396" type="curve"/>
			<point x="304" y="433"/>
			<point x="331" y="441"/>
			<point x="356" y="443" type="curve"/>
			<point x="322" y="302" type="line"/>
			<point x="300" y="331"/>
			<point x="290" y="366"/>
		</contour>
		<contour>
			<point x="368" y="58" type="curve" smooth="yes"/>
			<point x="359" y="32"/>
			<point x="339" y="12"/>
			<point x="311" y="0" type="curve"/>
			<point x="348" y="156" type="line"/>
			<point x="370" y="117"/>
			<point x="377" y="85"/>
		</contour>
	</outline>
</glyph>
<glyph name="parenleft" format="2">
	<advance width="600"/>
	<unicode hex="0028"/>
	<note>
		parenleft
	</note>
	<outline>
		<contour>
			<point x="297" y="-172" type="curve" smooth="yes"/>
			<point x="135" y="-145"/>
			<point x="17" y="-51"/>
			<point x="94" y="193" type="curve" smooth="yes"/>
			<point x="155" y="385"/>
			<point x="245" y="603"/>
			<point x="504" y="603" type="curve" smooth="yes"/>
			<point x="522" y="603"/>
			<point x="533" y="589"/>
			<point x="529" y="571" type="curve" smooth="yes"/>
			<point x="525" y="555"/>
			<point x="513" y="537"/>
			<point x="472" y="537" type="curve" smooth="yes"/>
			<point x="303" y="537"/>
			<point x="213" y="338"/>
			<point x="157" y="166" type="curve" smooth="yes"/>
			<point x="115" y="36"/>
			<point x="142" y="-61"/>
			<point x="297" y="-97" type="curve" smooth="yes"/>
			<point x="323" y="-103"/>
			<point x="334" y="-118"/>
			<point x="334" y="-132" type="curve" smooth="yes"/>
			<point x="334" y="-147"/>
			<point x="315" y="-175"/>
		</contour>
	</outline>
</glyph>
<glyph name="parenright" format="2">
	<advance width="600"/>
	<unicode hex="0029"/>
	<note>
		parenright
	</note>
	<outline>
		<contour>
			<point x="303" y="617" type="curve" smooth="yes"/>
			<point x="465" y="590"/>
			<point x="583" y="496"/>
			<point x="506" y="252" type="curve" smooth="yes"/>
			<point x="445" y="60"/>
			<point x="355" y="-158"/>
			<point x="96" y="-158" type="curve" smooth="yes"/>
			<point x="78" y="-158"/>
			<point x="67" y="-144"/>
			<point x="71" y="-126" type="curve" smooth="yes"/>
			<point x="75" y="-110"/>
			<point x="87" y="-92"/>
			<point x="128" y="-92" type="curve" smooth="yes"/>
			<point x="297" y="-92"/>
			<point x="387" y="107"/>
			<point x="443" y="279" type="curve" smooth="yes"/>
			<point x="485" y="409"/>
			<point x="458" y="506"/>
			<point x="303" y="542" type="curve" smooth="yes"/>
			<point x="277" y="548"/>
			<point x="266" y="563"/>
			<point x="266" y="577" type="curve" smooth="yes"/>
			<point x="266" y="592"/>
			<point x="285" y="620"/>
		</contour>
	</outline>
</glyph>
<glyph name="plus" format="2">
	<advance width="600"/>
	<unicode hex="002B"/>
	<note>
		plus
	</note>
	<outline>
		<contour>
			<point x="505" y="256" type="curve" smooth="yes"/>
			<point x="335" y="256" type="line"/>
			<point x="335" y="417" type="line" smooth="yes"/>
			<point x="335" y="434"/>
			<point x="312" y="443"/>
			<point x="299" y="443" type="curve" smooth="yes"/>
			<point x="287" y="443"/>
			<point x="265" y="434"/>
			<point x="265" y="417" type="curve" smooth="yes"/>
			<point x="265" y="256" type="line"/>
			<point x="87" y="256" type="line" smooth="yes"/>
			<point x="70" y="256"/>
			<point x="61" y="233"/>
			<point x="61" y="220" type="curve" smooth="yes"/>
			<point x="61" y="208"/>
			<point x="74" y="186"/>
			<point x="87" y="186" type="curve" smooth="yes"/>
			<point x="265" y="186" type="line"/>
			<point x="265" y="21" type="line" smooth="yes"/>
			<point x="265" y="1"/>
			<point x="287" y="-13"/>
			<point x="299" y="-13" type="curve" smooth="yes"/>
			<point x="312" y="-13"/>
			<point x="335" y="0"/>
			<point x="335" y="21" type="curve" smooth="yes"/>
			<point x="335" y="186" type="line"/>
			<point x="505" y="186" type="line" smooth="yes"/>
			<point x="525" y="186"/>
			<point x="539" y="208"/>
			<point x="539" y="220" type="curve" smooth="yes"/>
			<point x="539" y="233"/>
			<point x="526" y="256"/>
		</contour>
	</outline>
</glyph>
<glyph name="period" format="2">
	<advance width="600"/>
	<unicode hex="002E"/>
	<note>
		period
	</note>
	<outline>
		<contour>
			<point x="343" y="0" type="curve" smooth="yes"/>
			<point x="377" y="0"/>
			<point x="403" y="26"/>
			<point x="403" y="56" type="curve" smooth="yes"/>
			<point x="403" y="93"/>
			<point x="382" y="117"/>
			<point x="343" y="117" type="curve" smooth="yes"/>
			<point x="308" y="117"/>
			<point x="283" y="92"/>
			<point x="283" y="54" type="curve" smooth="yes"/>
			<point x="283" y="25"/>
			<point x="312" y="0"/>
		</contour>
	</outline>
</glyph>
<glyph name="zero" format="2">
	<advance width="600"/>
	<unicode hex="0030"/>
	<note>
		zero
	</note>
	<outline>
		<contour>
			<point x="246" y="-13" type="curve" smooth="yes"/>
			<point x="359" y="-13"/>
			<point x="476" y="89"/>
			<point x="506" y="215" type="curve" smooth="yes"/>
			<point x="536" y="341"/>
			<point x="470" y="443"/>
			<point x="357" y="443" type="curve" smooth="yes"/>
			<point x="243" y="443"/>
			<point x="127" y="341"/>
			<point x="95" y="215" type="curve" smooth="yes"/>
			<point x="63" y="89"/>
			<point x="132" y="-13"/>
		</contour>
		<contour>
			<point x="264" y="66" type="curve" smooth="yes"/>
			<point x="189" y="66"/>
			<point x="145" y="133"/>
			<point x="166" y="215" type="curve" smooth="yes"/>
			<point x="187" y="296"/>
			<point x="263" y="363"/>
			<point x="336" y="363" type="curve" smooth="yes"/>
			<point x="409" y="363"/>
			<point x="452" y="296"/>
			<point x="433" y="215" type="curve" smooth="yes"/>
			<point x="414" y="133"/>
			<point x="338" y="66"/>
		</contour>
	</outline>
</glyph>
<glyph name="one" format="2">
	<advance width="600"/>
	<unicode hex="0031"/>
	<note>
		one
	</note>
	<outline>
		<contour>
			<point x="411" y="445" type="curve" smooth="yes"/>
			<point x="396" y="445"/>
			<point x="386" y="438"/>
			<point x="379" y="429" type="curve"/>
			<point x="322" y="371"/>
			<point x="286" y="328"/>
			<point x="228" y="307" type="curve" smooth="yes"/>
			<point x="193" y="294"/>
			<point x="164" y="298"/>
			<point x="146" y="298" type="curve" smooth="yes"/>
			<point x="128" y="298"/>
			<point x="100" y="288"/>
			<point x="100" y="262" type="curve" smooth="yes"/>
			<point x="100" y="237"/>
			<point x="125" y="228"/>
			<point x="142" y="228" type="curve" smooth="yes"/>
			<point x="161" y="228"/>
			<point x="176" y="223"/>
			<point x="228" y="237" type="curve" smooth="yes"/>
			<point x="277" y="250"/>
			<point x="311" y="271"/>
			<point x="340" y="295" type="curve"/>
			<point x="279" y="46" type="line"/>
			<point x="271" y="19"/>
			<point x="272" y="-13"/>
			<point x="301" y="-12" type="curve" smooth="yes"/>
			<point x="334" y="-11"/>
			<point x="341" y="14"/>
			<point x="350" y="51" type="curve" smooth="yes"/>
			<point x="434" y="385" type="line" smooth="yes"/>
			<point x="440" y="412"/>
			<point x="445" y="446"/>
		</contour>
	</outline>
</glyph>
<glyph name="two" format="2">
	<advance width="600"/>
	<unicode hex="0032"/>
	<note>
		two
	</note>
	<outline>
		<contour>
			<point x="130" y="19" type="curve" smooth="yes"/>
			<point x="130" y="-6"/>
			<point x="161" y="-11"/>
			<point x="172" y="-11" type="curve" smooth="yes"/>
			<point x="396" y="-11" type="line" smooth="yes"/>
			<point x="415" y="-11"/>
			<point x="425" y="11"/>
			<point x="425" y="23" type="curve" smooth="yes"/>
			<point x="425" y="37"/>
			<point x="416" y="59"/>
			<point x="396" y="59" type="curve" smooth="yes"/>
			<point x="257" y="59" type="line"/>
			<point x="447" y="197"/>
			<point x="464" y="246"/>
			<point x="472" y="283" type="curve" smooth="yes"/>
			<point x="496" y="396"/>
			<point x="425" y="443"/>
			<point x="332" y="443" type="curve" smooth="yes"/>
			<point x="256" y="443"/>
			<point x="218" y="415"/>
			<point x="177" y="382" type="curve"/>
			<point x="161" y="373"/>
			<point x="163" y="349"/>
			<point x="171" y="338" type="curve" smooth="yes"/>
			<point x="178" y="328"/>
			<point x="197" y="313"/>
			<point x="214" y="324" type="curve"/>
			<point x="261" y="357"/>
			<point x="292" y="379"/>
			<point x="332" y="379" type="curve" smooth="yes"/>
			<point x="364" y="379"/>
			<point x="411" y="357"/>
			<point x="406" y="304" type="curve" smooth="yes"/>
			<point x="403" y="277"/>
			<point x="373" y="217"/>
			<point x="153" y="58" type="curve" smooth="yes"/>
			<point x="138" y="47"/>
			<point x="130" y="38"/>
		</contour>
	</outline>
</glyph>
<glyph name="three" format="2">
	<advance width="600"/>
	<unicode hex="0033"/>
	<note>
		three
	</note>
	<outline>
		<contour>
			<point x="489" y="302" type="curve" smooth="yes"/>
			<point x="503" y="396"/>
			<point x="447" y="443"/>
			<point x="354" y="443" type="curve" smooth="yes"/>
			<point x="278" y="443"/>
			<point x="241" y="412"/>
			<point x="196" y="384" type="curve" smooth="yes"/>
			<point x="180" y="374"/>
			<point x="183" y="351"/>
			<point x="191" y="338" type="curve"/>
			<point x="197" y="329"/>
			<point x="218" y="315"/>
			<point x="234" y="325" type="curve" smooth="yes"/>
			<point x="278" y="354"/>
			<point x="314" y="379"/>
			<point x="354" y="379" type="curve" smooth="yes"/>
			<point x="386" y="379"/>
			<point x="435" y="366"/>
			<point x="425" y="301" type="curve" smooth="yes"/>
			<point x="413" y="222"/>
			<point x="308" y="202"/>
			<point x="278" y="202" type="curve" smooth="yes"/>
			<point x="258" y="202"/>
			<point x="249" y="180"/>
			<point x="249" y="166" type="curve" smooth="yes"/>
			<point x="249" y="154"/>
			<point x="259" y="132"/>
			<point x="278" y="132" type="curve"/>
			<point x="278" y="132"/>
			<point x="394" y="152"/>
			<point x="373" y="33" type="curve" smooth="yes"/>
			<point x="353" y="-82"/>
			<point x="180" y="-103"/>
			<point x="72" y="-103" type="curve" smooth="yes"/>
			<point x="52" y="-103"/>
			<point x="43" y="-125"/>
			<point x="43" y="-139" type="curve" smooth="yes"/>
			<point x="43" y="-151"/>
			<point x="53" y="-173"/>
			<point x="72" y="-173" type="curve" smooth="yes"/>
			<point x="334" y="-173"/>
			<point x="432" y="-67"/>
			<point x="450" y="33" type="curve" smooth="yes"/>
			<point x="470" y="146"/>
			<point x="371" y="170"/>
			<point x="371" y="170" type="curve" smooth="yes"/>
			<point x="371" y="170"/>
			<point x="472" y="191"/>
		</contour>
	</outline>
</glyph>
<glyph name="four" format="2">
	<advance width="600"/>
	<unicode hex="0034"/>
	<note>
		four
	</note>
	<outline>
		<contour>
			<point x="487" y="58" type="curve" smooth="yes"/>
			<point x="375" y="58" type="line"/>
			<point x="454" y="419" type="line" smooth="yes"/>
			<point x="458" y="439"/>
			<point x="437" y="448"/>
			<point x="423" y="450" type="curve" smooth="yes"/>
			<point x="411" y="452"/>
			<point x="388" y="444"/>
			<point x="384" y="425" type="curve"/>
			<point x="293" y="57" type="line"/>
			<point x="154" y="57" type="line"/>
			<point x="201" y="257" type="line" smooth="yes"/>
			<point x="205" y="277"/>
			<point x="184" y="286"/>
			<point x="170" y="288" type="curve" smooth="yes"/>
			<point x="158" y="290"/>
			<point x="135" y="282"/>
			<point x="131" y="263" type="curve"/>
			<point x="86" y="89" type="line" smooth="yes"/>
			<point x="81" y="70"/>
			<point x="72" y="34"/>
			<point x="85" y="14" type="curve" smooth="yes"/>
			<point x="100" y="-10"/>
			<point x="123" y="-14"/>
			<point x="160" y="-14" type="curve" smooth="yes"/>
			<point x="275" y="-14" type="line"/>
			<point x="246" y="-135" type="line" smooth="yes"/>
			<point x="241" y="-158"/>
			<point x="249" y="-182"/>
			<point x="279" y="-182" type="curve" smooth="yes"/>
			<point x="299" y="-182"/>
			<point x="317" y="-166"/>
			<point x="324" y="-142" type="curve" smooth="yes"/>
			<point x="358" y="-13" type="line"/>
			<point x="486" y="-13" type="line" smooth="yes"/>
			<point x="507" y="-13"/>
			<point x="521" y="3"/>
			<point x="521" y="22" type="curve" smooth="yes"/>
			<point x="521" y="45"/>
			<point x="508" y="58"/>
		</contour>
	</outline>
</glyph>
<glyph name="five" format="2">
	<advance width="600"/>
	<unicode hex="0035"/>
	<note>
		five
	</note>
	<outline>
		<contour>
			<point x="524" y="603" type="curve" smooth="yes"/>
			<point x="313" y="603" type="line"/>
			<point x="236" y="372" type="line"/>
			<point x="359" y="394"/>
			<point x="454" y="340"/>
			<point x="434" y="256" type="curve" smooth="yes"/>
			<point x="405" y="134"/>
			<point x="247" y="57"/>
			<point x="77" y="57" type="curve" smooth="yes"/>
			<point x="57" y="57"/>
			<point x="48" y="35"/>
			<point x="48" y="21" type="curve" smooth="yes"/>
			<point x="48" y="9"/>
			<point x="58" y="-13"/>
			<point x="77" y="-13" type="curve" smooth="yes"/>
			<point x="307" y="-13"/>
			<point x="471" y="107"/>
			<point x="502" y="230" type="curve" smooth="yes"/>
			<point x="545" y="397"/>
			<point x="438" y="442"/>
			<point x="336" y="443" type="curve"/>
			<point x="368" y="533" type="line"/>
			<point x="524" y="533" type="line" smooth="yes"/>
			<point x="543" y="533"/>
			<point x="553" y="555"/>
			<point x="553" y="567" type="curve" smooth="yes"/>
			<point x="553" y="581"/>
			<point x="544" y="603"/>
		</contour>
	</outline>
</glyph>
<glyph name="six" format="2">
	<advance width="600"/>
	<unicode hex="0036"/>
	<note>
		six
	</note>
	<outline>
		<contour>
			<point x="526" y="603" type="curve" smooth="yes"/>
			<point x="219" y="603"/>
			<point x="91" y="333"/>
			<point x="51" y="202" type="curve" smooth="yes"/>
			<point x="49" y="196"/>
			<point x="47" y="190"/>
			<point x="46" y="184" type="curve"/>
			<point x="16" y="59"/>
			<point x="82" y="-10"/>
			<point x="195" y="-10" type="curve" smooth="yes"/>
			<point x="309" y="-10"/>
			<point x="411" y="58"/>
			<point x="443" y="184" type="curve" smooth="yes"/>
			<point x="475" y="310"/>
			<point x="402" y="381"/>
			<point x="306" y="381" type="curve" smooth="yes"/>
			<point x="268" y="381"/>
			<point x="230" y="370"/>
			<point x="195" y="352" type="curve"/>
			<point x="267" y="456"/>
			<point x="378" y="533"/>
			<point x="526" y="533" type="curve" smooth="yes"/>
			<point x="545" y="533"/>
			<point x="555" y="555"/>
			<point x="555" y="567" type="curve" smooth="yes"/>
			<point x="555" y="581"/>
			<point x="546" y="603"/>
		</contour>
		<contour>
			<point x="373" y="184" type="curve" smooth="yes"/>
			<point x="352" y="103"/>
			<point x="273" y="60"/>
			<point x="200" y="60" type="curve" smooth="yes"/>
			<point x="127" y="60"/>
			<point x="100" y="103"/>
			<point x="119" y="184" type="curve" smooth="yes"/>
			<point x="138" y="266"/>
			<point x="229" y="311"/>
			<point x="302" y="311" type="curve" smooth="yes"/>
			<point x="371" y="311"/>
			<point x="394" y="266"/>
		</contour>
	</outline>
</glyph>
<glyph name="seven" format="2">
	<advance width="600"/>
	<unicode hex="0037"/>
	<note>
		seven
	</note>
	<outline>
		<contour>
			<point x="457" y="441" type="curve" smooth="yes"/>
			<point x="140" y="441" type="line" smooth="yes"/>
			<point x="116" y="441"/>
			<point x="101" y="426"/>
			<point x="101" y="404" type="curve" smooth="yes"/>
			<point x="101" y="385"/>
			<point x="116" y="371"/>
			<point x="140" y="371" type="curve" smooth="yes"/>
			<point x="340" y="371" type="line"/>
			<point x="196" y="237"/>
			<point x="185" y="40"/>
			<point x="188" y="-59" type="curve" smooth="yes"/>
			<point x="188" y="-144" type="line" smooth="yes"/>
			<point x="188" y="-165"/>
			<point x="209" y="-173"/>
			<point x="223" y="-173" type="curve" smooth="yes"/>
			<point x="235" y="-173"/>
			<point x="255" y="-164"/>
			<point x="255" y="-144" type="curve" smooth="yes"/>
			<point x="255" y="-36" type="line"/>
			<point x="253" y="105"/>
			<point x="305" y="282"/>
			<point x="457" y="371" type="curve"/>
			<point x="477" y="381"/>
			<point x="486" y="393"/>
			<point x="486" y="407" type="curve" smooth="yes"/>
			<point x="486" y="419"/>
			<point x="476" y="441"/>
		</contour>
	</outline>
</glyph>
<glyph name="eight" format="2">
	<advance width="600"/>
	<unicode hex="0038"/>
	<note>
		eight
	</note>
	<outline>
		<contour>
			<point x="413" y="593" type="curve" smooth="yes"/>
			<point x="374" y="593"/>
			<point x="275" y="589"/>
			<point x="253" y="477" type="curve" smooth="yes"/>
			<point x="239" y="405"/>
			<point x="271" y="357"/>
			<point x="297" y="328" type="curve"/>
			<point x="209" y="275"/>
			<point x="119" y="216"/>
			<point x="119" y="130" type="curve" smooth="yes"/>
			<point x="119" y="51"/>
			<point x="186" y="-11"/>
			<point x="271" y="-11" type="curve" smooth="yes"/>
			<point x="371" y="-11"/>
			<point x="445" y="40"/>
			<point x="473" y="126" type="curve" smooth="yes"/>
			<point x="490" y="179"/>
			<point x="467" y="245"/>
			<point x="409" y="319" type="curve"/>
			<point x="474" y="363"/>
			<point x="532" y="411"/>
			<point x="543" y="471" type="curve" smooth="yes"/>
			<point x="556" y="544"/>
			<point x="493" y="593"/>
		</contour>
		<contour>
			<point x="366" y="370" type="curve"/>
			<point x="338" y="400"/>
			<point x="325" y="438"/>
			<point x="332" y="471" type="curve" smooth="yes"/>
			<point x="341" y="518"/>
			<point x="385" y="516"/>
			<point x="413" y="516" type="curve" smooth="yes"/>
			<point x="449" y="516"/>
			<point x="470" y="502"/>
			<point x="464" y="471" type="curve" smooth="yes"/>
			<point x="458" y="434"/>
			<point x="417" y="402"/>
		</contour>
		<contour>
			<point x="396" y="134" type="curve" smooth="yes"/>
			<point x="383" y="90"/>
			<point x="332" y="66"/>
			<point x="271" y="66" type="curve" smooth="yes"/>
			<point x="230" y="66"/>
			<point x="197" y="96"/>
			<point x="197" y="130" type="curve" smooth="yes"/>
			<point x="197" y="183"/>
			<point x="266" y="228"/>
			<point x="343" y="277" type="curve"/>
			<point x="389" y="219"/>
			<point x="407" y="171"/>
		</contour>
	</outline>
</glyph>
<glyph name="nine" format="2">
	<advance width="600"/>
	<unicode hex="0039"/>
	<note>
		nine
	</note>
	<outline>
		<contour>
			<point x="399" y="603" type="curve" smooth="yes"/>
			<point x="285" y="603"/>
			<point x="183" y="535"/>
			<point x="151" y="409" type="curve" smooth="yes"/>
			<point x="119" y="283"/>
			<point x="192" y="212"/>
			<point x="288" y="212" type="curve" smooth="yes"/>
			<point x="326" y="212"/>
			<point x="364" y="223"/>
			<point x="399" y="241" type="curve"/>
			<point x="327" y="137"/>
			<point x="216" y="60"/>
			<point x="68" y="60" type="curve" smooth="yes"/>
			<point x="49" y="60"/>
			<point x="39" y="38"/>
			<point x="39" y="26" type="curve" smooth="yes"/>
			<point x="39" y="12"/>
			<point x="48" y="-10"/>
			<point x="68" y="-10" type="curve" smooth="yes"/>
			<point x="375" y="-10"/>
			<point x="503" y="260"/>
			<point x="543" y="391" type="curve" smooth="yes"/>
			<point x="545" y="397"/>
			<point x="547" y="403"/>
			<point x="548" y="409" type="curve"/>
			<point x="578" y="534"/>
			<point x="512" y="603"/>
		</contour>
		<contour>
			<point x="221" y="409" type="curve" smooth="yes"/>
			<point x="242" y="490"/>
			<point x="321" y="533"/>
			<point x="394" y="533" type="curve" smooth="yes"/>
			<point x="467" y="533"/>
			<point x="494" y="490"/>
			<point x="475" y="409" type="curve" smooth="yes"/>
			<point x="456" y="327"/>
			<point x="365" y="282"/>
			<point x="292" y="282" type="curve" smooth="yes"/>
			<point x="223" y="282"/>
			<point x="200" y="327"/>
		</contour>
	</outline>
</glyph>
<glyph name="semicolon" format="2">
	<advance width="600"/>
	<unicode hex="003B"/>
	<note>
		semicolon
	</note>
	<outline>
		<contour>
			<point x="434" y="430" type="curve" smooth="yes"/>
			<point x="399" y="430"/>
			<point x="374" y="405"/>
			<point x="374" y="367" type="curve" smooth="yes"/>
			<point x="374" y="338"/>
			<point x="403" y="313"/>
			<point x="434" y="313" type="curve" smooth="yes"/>
			<point x="468" y="313"/>
			<point x="494" y="339"/>
			<point x="494" y="369" type="curve" smooth="yes"/>
			<point x="494" y="406"/>
			<point x="473" y="430"/>
		</contour>
		<contour>
			<point x="343" y="117" type="curve" smooth="yes"/>
			<point x="308" y="117"/>
			<point x="283" y="92"/>
			<point x="283" y="54" type="curve" smooth="yes"/>
			<point x="283" y="35"/>
			<point x="296" y="17"/>
			<point x="313" y="8" type="curve"/>
			<point x="292" y="-35"/>
			<point x="250" y="-76"/>
			<point x="206" y="-113" type="curve"/>
			<point x="190" y="-125"/>
			<point x="196" y="-149"/>
			<point x="204" y="-157" type="curve" smooth="yes"/>
			<point x="214" y="-167"/>
			<point x="235" y="-179"/>
			<point x="251" y="-166" type="curve" smooth="yes"/>
			<point x="314" y="-112"/>
			<point x="388" y="-26"/>
			<point x="401" y="43" type="curve"/>
			<point x="402" y="47"/>
			<point x="403" y="51"/>
			<point x="403" y="55" type="curve" smooth="yes"/>
			<point x="403" y="56" type="line" smooth="yes"/>
			<point x="403" y="93"/>
			<point x="382" y="117"/>
		</contour>
	</outline>
</glyph>
<glyph name="greater" format="2">
	<advance width="600"/>
	<unicode hex="003E"/>
	<note>
		greater
	</note>
	<outline>
		<contour>
			<point x="91" y="420" type="curve" smooth="yes"/>
			<point x="98" y="435"/>
			<point x="120" y="444"/>
			<point x="134" y="438" type="curve" smooth="yes"/>
			<point x="542" y="263" type="line" smooth="yes"/>
			<point x="558" y="256"/>
			<point x="566" y="243"/>
			<point x="566" y="228" type="curve" smooth="yes"/>
			<point x="566" y="215"/>
			<point x="558" y="198"/>
			<point x="543" y="190" type="curve" smooth="yes"/>
			<point x="135" y="-10" type="line" smooth="yes"/>
			<point x="114" y="-20"/>
			<point x="91" y="-16"/>
			<point x="82" y="0" type="curve" smooth="yes"/>
			<point x="74" y="15"/>
			<point x="74" y="37"/>
			<point x="103" y="53" type="curve"/>
			<point x="457" y="226" type="line"/>
			<point x="104" y="375" type="line"/>
			<point x="87" y="383"/>
			<point x="84" y="405"/>
		</contour>
	</outline>
</glyph>
<glyph name="question" format="2">
	<advance width="600"/>
	<unicode hex="003F"/>
	<note>
		question
	</note>
	<outline>
		<contour>
			<point x="136" y="443" type="curve" smooth="yes"/>
			<point x="132" y="425"/>
			<point x="153" y="410"/>
			<point x="166" y="410" type="curve" smooth="yes"/>
			<point x="179" y="410"/>
			<point x="201" y="419"/>
			<point x="209" y="443" type="curve"/>
			<point x="230" y="517"/>
			<point x="285" y="530"/>
			<point x="333" y="530" type="curve" smooth="yes"/>
			<point x="397" y="530"/>
			<point x="425" y="494"/>
			<point x="411" y="433" type="curve" smooth="yes"/>
			<point x="401" y="388"/>
			<point x="374" y="333"/>
			<point x="278" y="333" type="curve" smooth="yes"/>
			<point x="247" y="333"/>
			<point x="222" y="327"/>
			<point x="209" y="315" type="curve" smooth="yes"/>
			<point x="196" y="303"/>
			<point x="191" y="290"/>
			<point x="186" y="269" type="curve" smooth="yes"/>
			<point x="167" y="191" type="line" smooth="yes"/>
			<point x="162" y="169"/>
			<point x="175" y="152"/>
			<point x="196" y="149" type="curve" smooth="yes"/>
			<point x="217" y="146"/>
			<point x="237" y="163"/>
			<point x="243" y="188" type="curve" smooth="yes"/>
			<point x="255" y="236"/>
			<point x="253" y="246"/>
			<point x="265" y="257" type="curve" smooth="yes"/>
			<point x="277" y="268"/>
			<point x="292" y="268"/>
			<point x="310" y="268" type="curve" smooth="yes"/>
			<point x="389" y="268"/>
			<point x="465" y="345"/>
			<point x="481" y="408" type="curve" smooth="yes"/>
			<point x="500" y="484"/>
			<point x="505" y="603"/>
			<point x="345" y="603" type="curve" smooth="yes"/>
			<point x="234" y="603"/>
			<point x="154" y="536"/>
		</contour>
		<contour>
			<point x="178" y="0" type="curve" smooth="yes"/>
			<point x="212" y="0"/>
			<point x="238" y="26"/>
			<point x="238" y="56" type="curve" smooth="yes"/>
			<point x="238" y="93"/>
			<point x="217" y="117"/>
			<point x="178" y="117" type="curve" smooth="yes"/>
			<point x="143" y="117"/>
			<point x="118" y="92"/>
			<point x="118" y="54" type="curve" smooth="yes"/>
			<point x="118" y="25"/>
			<point x="147" y="0"/>
		</contour>
	</outline>
</glyph>
<glyph name="H" format="2">
	<advance width="600"/>
	<unicode hex="0048"/>
	<note>
		H
	</note>
	<outline>
		<contour>
			<point x="217" y="603" type="curve" smooth="yes"/>
			<point x="179" y="603"/>
			<point x="176" y="581"/>
			<point x="168" y="553" type="curve" smooth="yes"/>
			<point x="36" y="47" type="line" smooth="yes"/>
			<point x="28" y="20"/>
			<point x="29" y="-10"/>
			<point x="58" y="-11" type="curve" smooth="yes"/>
			<point x="82" y="-12"/>
			<point x="95" y="0"/>
			<point x="104" y="37" type="curve" smooth="yes"/>
			<point x="236" y="543" type="line" smooth="yes"/>
			<point x="243" y="569"/>
			<point x="257" y="603"/>
		</contour>
		<contour>
			<point x="568" y="602" type="curve" smooth="yes"/>
			<point x="530" y="602"/>
			<point x="526" y="580"/>
			<point x="519" y="552" type="curve" smooth="yes"/>
			<point x="451" y="293" type="line"/>
			<point x="289" y="292"/>
			<point x="197" y="275"/>
			<point x="177" y="197" type="curve" smooth="yes"/>
			<point x="160" y="132"/>
			<point x="258" y="9"/>
			<point x="409" y="-12" type="curve" smooth="yes"/>
			<point x="442" y="-17"/>
			<point x="445" y="-1"/>
			<point x="455" y="36" type="curve" smooth="yes"/>
			<point x="504" y="224" type="line"/>
			<point x="552" y="224" type="line" smooth="yes"/>
			<point x="567" y="224"/>
			<point x="582" y="243"/>
			<point x="585" y="259" type="curve" smooth="yes"/>
			<point x="589" y="278"/>
			<point x="572" y="293"/>
			<point x="559" y="293" type="curve" smooth="yes"/>
			<point x="522" y="293" type="line"/>
			<point x="587" y="542" type="line" smooth="yes"/>
			<point x="594" y="568"/>
			<point x="608" y="602"/>
		</contour>
		<contour>
			<point x="433" y="224" type="curve"/>
			<point x="390" y="58" type="line"/>
			<point x="317" y="69"/>
			<point x="236" y="143"/>
			<point x="248" y="191" type="curve" smooth="yes"/>
			<point x="256" y="224"/>
			<point x="336" y="224"/>
		</contour>
	</outline>
</glyph>
<glyph name="J" format="2">
	<advance width="600"/>
	<unicode hex="004A"/>
	<note>
		J
	</note>
	<outline>
		<contour>
			<point x="537" y="69" type="curve" smooth="yes"/>
			<point x="471" y="69" type="line"/>
			<point x="564" y="412" type="line" smooth="yes"/>
			<point x="603" y="556"/>
			<point x="540" y="603"/>
			<point x="418" y="603" type="curve" smooth="yes"/>
			<point x="266" y="603"/>
			<point x="133" y="492"/>
			<point x="133" y="365" type="curve" smooth="yes"/>
			<point x="133" y="329"/>
			<point x="148" y="319"/>
			<point x="168" y="319" type="curve" smooth="yes"/>
			<point x="188" y="319"/>
			<point x="203" y="333"/>
			<point x="203" y="365" type="curve" smooth="yes"/>
			<point x="203" y="457"/>
			<point x="288" y="533"/>
			<point x="418" y="533" type="curve" smooth="yes"/>
			<point x="494" y="533"/>
			<point x="502" y="491"/>
			<point x="482" y="410" type="curve" smooth="yes"/>
			<point x="396" y="69" type="line"/>
			<point x="200" y="71" type="line" smooth="yes"/>
			<point x="98" y="71"/>
			<point x="44" y="25"/>
			<point x="44" y="-50" type="curve" smooth="yes"/>
			<point x="44" y="-130"/>
			<point x="103" y="-171"/>
			<point x="212" y="-171" type="curve" smooth="yes"/>
			<point x="321" y="-171"/>
			<point x="423" y="-123"/>
			<point x="453" y="-1" type="curve"/>
			<point x="537" y="-1" type="line" smooth="yes"/>
			<point x="558" y="-1"/>
			<point x="572" y="16"/>
			<point x="572" y="35" type="curve" smooth="yes"/>
			<point x="572" y="49"/>
			<point x="558" y="69"/>
		</contour>
		<contour>
			<point x="215" y="-103" type="curve" smooth="yes"/>
			<point x="150" y="-103"/>
			<point x="114" y="-83"/>
			<point x="114" y="-49" type="curve" smooth="yes"/>
			<point x="114" y="-13"/>
			<point x="134" y="1"/>
			<point x="191" y="1" type="curve" smooth="yes"/>
			<point x="380" y="0" type="line"/>
			<point x="360" y="-75"/>
			<point x="292" y="-103"/>
		</contour>
	</outline>
</glyph>
<glyph name="K" format="2">
	<advance width="600"/>
	<unicode hex="004B"/>
	<note>
		K
	</note>
	<outline>
		<contour>
			<point x="568" y="194" type="curve" smooth="yes"/>
			<point x="556" y="202"/>
			<point x="546" y="203"/>
			<point x="528" y="188" type="curve" smooth="yes"/>
			<point x="492" y="158"/>
			<point x="443" y="116"/>
			<point x="410" y="88" type="curve"/>
			<point x="429" y="154" type="line" smooth="yes"/>
			<point x="452" y="236"/>
			<point x="433" y="298"/>
			<point x="352" y="298" type="curve"/>
			<point x="422" y="368"/>
			<point x="497" y="428"/>
			<point x="502" y="564" type="curve" smooth="yes"/>
			<point x="504" y="616"/>
			<point x="430" y="614"/>
			<point x="430" y="564" type="curve" smooth="yes"/>
			<point x="430" y="517"/>
			<point x="415" y="430"/>
			<point x="246" y="294" type="curve" smooth="yes"/>
			<point x="238" y="288"/>
			<point x="230" y="280"/>
			<point x="230" y="264" type="curve" smooth="yes"/>
			<point x="230" y="240"/>
			<point x="250" y="232"/>
			<point x="263" y="232" type="curve" smooth="yes"/>
			<point x="362" y="232"/>
			<point x="372" y="226"/>
			<point x="349" y="146" type="curve" smooth="yes"/>
			<point x="321" y="39" type="line" smooth="yes"/>
			<point x="314" y="13"/>
			<point x="329" y="-8"/>
			<point x="356" y="-13" type="curve" smooth="yes"/>
			<point x="378" y="-17"/>
			<point x="401" y="-2"/>
			<point x="422" y="15" type="curve" smooth="yes"/>
			<point x="489" y="69"/>
			<point x="532" y="108"/>
			<point x="571" y="141" type="curve" smooth="yes"/>
			<point x="584" y="152"/>
			<point x="585" y="183"/>
		</contour>
		<contour>
			<point x="130" y="49" type="curve" smooth="yes"/>
			<point x="255" y="526" type="line" smooth="yes"/>
			<point x="268" y="570"/>
			<point x="265" y="602"/>
			<point x="228" y="602" type="curve" smooth="yes"/>
			<point x="227" y="602" type="line"/>
			<point x="226" y="602" type="line" smooth="yes"/>
			<point x="204" y="602"/>
			<point x="181" y="591"/>
			<point x="160" y="574" type="curve" smooth="yes"/>
			<point x="93" y="520"/>
			<point x="50" y="481"/>
			<point x="11" y="448" type="curve" smooth="yes"/>
			<point x="-2" y="437"/>
			<point x="-3" y="406"/>
			<point x="14" y="395" type="curve" smooth="yes"/>
			<point x="26" y="387"/>
			<point x="36" y="386"/>
			<point x="54" y="401" type="curve" smooth="yes"/>
			<point x="89" y="430"/>
			<point x="137" y="471"/>
			<point x="170" y="499" type="curve"/>
			<point x="52" y="45" type="line" smooth="yes"/>
			<point x="45" y="18"/>
			<point x="52" y="-13"/>
			<point x="81" y="-13" type="curve" smooth="yes"/>
			<point x="114" y="-13"/>
			<point x="120" y="12"/>
		</contour>
	</outline>
</glyph>
<glyph name="O" format="2">
	<advance width="600"/>
	<unicode hex="004F"/>
	<note>
		O
	</note>
	<outline>
		<contour>
			<point x="356" y="464" type="curve" smooth="yes"/>
			<point x="356" y="488"/>
			<point x="318" y="499"/>
			<point x="296" y="499" type="curve" smooth="yes"/>
			<point x="240" y="499"/>
			<point x="165" y="461"/>
			<point x="114" y="405" type="curve" smooth="yes"/>
			<point x="61" y="346"/>
			<point x="29" y="267"/>
			<point x="29" y="187" type="curve" smooth="yes"/>
			<point x="29" y="64"/>
			<point x="108" y="-13"/>
			<point x="231" y="-13" type="curve" smooth="yes"/>
			<point x="414" y="-13"/>
			<point x="563" y="159"/>
			<point x="563" y="351" type="curve" smooth="yes"/>
			<point x="563" y="488"/>
			<point x="503" y="603"/>
			<point x="325" y="603" type="curve" smooth="yes"/>
			<point x="293" y="603"/>
			<point x="275" y="585"/>
			<point x="275" y="568" type="curve" smooth="yes"/>
			<point x="275" y="538"/>
			<point x="305" y="533"/>
			<point x="325" y="533" type="curve" smooth="yes"/>
			<point x="414" y="533"/>
			<point x="493" y="475"/>
			<point x="493" y="351" type="curve" smooth="yes"/>
			<point x="493" y="194"/>
			<point x="384" y="57"/>
			<point x="231" y="57" type="curve" smooth="yes"/>
			<point x="165" y="57"/>
			<point x="99" y="90"/>
			<point x="99" y="187" type="curve" smooth="yes"/>
			<point x="99" y="250"/>
			<point x="133" y="323"/>
			<point x="180" y="369" type="curve" smooth="yes"/>
			<point x="212" y="401"/>
			<point x="258" y="428"/>
			<point x="296" y="429" type="curve" smooth="yes"/>
			<point x="334" y="430"/>
			<point x="356" y="436"/>
		</contour>
	</outline>
</glyph>
<glyph name="X" format="2">
	<advance width="600"/>
	<unicode hex="0058"/>
	<note>
		X
	</note>
	<outline>
		<contour>
			<point x="550" y="194" type="curve" smooth="yes"/>
			<point x="524" y="198"/>
			<point x="510" y="173"/>
			<point x="501" y="141" type="curve" smooth="yes"/>
			<point x="486" y="91"/>
			<point x="477" y="59"/>
			<point x="448" y="59" type="curve" smooth="yes"/>
			<point x="429" y="59"/>
			<point x="417" y="56"/>
			<point x="394" y="123" type="curve" smooth="yes"/>
			<point x="340" y="281" type="line"/>
			<point x="532" y="524" type="line" smooth="yes"/>
			<point x="551" y="548"/>
			<point x="558" y="568"/>
			<point x="538" y="590" type="curve" smooth="yes"/>
			<point x="523" y="606"/>
			<point x="491" y="591"/>
			<point x="472" y="567" type="curve" smooth="yes"/>
			<point x="302" y="346" type="line"/>
			<point x="215" y="558" type="line" smooth="yes"/>
			<point x="207" y="579"/>
			<point x="197" y="594"/>
			<point x="186" y="601" type="curve"/>
			<point x="184" y="602"/>
			<point x="182" y="603"/>
			<point x="179" y="603" type="curve" smooth="yes"/>
			<point x="177" y="603"/>
			<point x="175" y="604"/>
			<point x="173" y="603" type="curve"/>
			<point x="169" y="603"/>
			<point x="152" y="598"/>
			<point x="136" y="582" type="curve" smooth="yes"/>
			<point x="87" y="533" type="line" smooth="yes"/>
			<point x="67" y="513"/>
			<point x="34" y="481"/>
			<point x="58" y="460" type="curve" smooth="yes"/>
			<point x="82" y="439"/>
			<point x="107" y="461"/>
			<point x="134" y="490" type="curve" smooth="yes"/>
			<point x="155" y="512" type="line"/>
			<point x="250" y="286" type="line"/>
			<point x="60" y="55" type="line" smooth="yes"/>
			<point x="45" y="36"/>
			<point x="37" y="11"/>
			<point x="51" y="-3" type="curve" smooth="yes"/>
			<point x="72" y="-24"/>
			<point x="99" y="-13"/>
			<point x="118" y="10" type="curve" smooth="yes"/>
			<point x="288" y="223" type="line"/>
			<point x="345" y="62" type="line" smooth="yes"/>
			<point x="363" y="10"/>
			<point x="401" y="-12"/>
			<point x="435" y="-12" type="curve" smooth="yes"/>
			<point x="506" y="-12"/>
			<point x="538" y="23"/>
			<point x="571" y="142" type="curve" smooth="yes"/>
			<point x="580" y="175"/>
			<point x="573" y="190"/>
		</contour>
	</outline>
</glyph>
<glyph name="Z" format="2">
	<advance width="600"/>
	<unicode hex="005A"/>
	<note>
		Z
	</note>
	<outline>
		<contour>
			<point x="562" y="192" type="curve" smooth="yes"/>
			<point x="538" y="191"/>
			<point x="532" y="171"/>
			<point x="523" y="139" type="curve" smooth="yes"/>
			<point x="507" y="80"/>
			<point x="479" y="59"/>
			<point x="417" y="59" type="curve" smooth="yes"/>
			<point x="361" y="59"/>
			<point x="326" y="164"/>
			<point x="233" y="169" type="curve"/>
			<point x="540" y="524" type="line"/>
			<point x="558" y="547"/>
			<point x="561" y="570"/>
			<point x="541" y="590" type="curve" smooth="yes"/>
			<point x="528" y="603"/>
			<point x="504" y="603"/>
			<point x="479" y="603" type="curve" smooth="yes"/>
			<point x="268" y="602" type="line"/>
			<point x="120" y="603" type="line" smooth="yes"/>
			<point x="107" y="603"/>
			<point x="84" y="591"/>
			<point x="78" y="563" type="curve"/>
			<point x="61" y="501" type="line" smooth="yes"/>
			<point x="54" y="477"/>
			<point x="43" y="435"/>
			<point x="77" y="428" type="curve" smooth="yes"/>
			<point x="112" y="421"/>
			<point x="120" y="450"/>
			<point x="129" y="485" type="curve" smooth="yes"/>
			<point x="141" y="531" type="line"/>
			<point x="453" y="531" type="line"/>
			<point x="40" y="53" type="line" smooth="yes"/>
			<point x="24" y="35"/>
			<point x="17" y="3"/>
			<point x="32" y="-8" type="curve" smooth="yes"/>
			<point x="49" y="-21"/>
			<point x="75" y="-12"/>
			<point x="94" y="8" type="curve"/>
			<point x="130" y="49" type="line"/>
			<point x="180" y="102"/>
			<point x="200" y="96"/>
			<point x="226" y="96" type="curve" smooth="yes"/>
			<point x="292" y="96"/>
			<point x="325" y="-12"/>
			<point x="417" y="-12" type="curve" smooth="yes"/>
			<point x="495" y="-12"/>
			<point x="560" y="13"/>
			<point x="593" y="140" type="curve" smooth="yes"/>
			<point x="602" y="173"/>
			<point x="585" y="193"/>
		</contour>
	</outline>
</glyph>
<glyph name="bracketleft" format="2">
	<advance width="600"/>
	<unicode hex="005B"/>
	<note>
		bracketleft
	</note>
	<outline>
		<contour>
			<point x="499" y="601" type="curve" smooth="yes"/>
			<point x="284" y="603" type="line"/>
			<point x="271" y="605"/>
			<point x="258" y="600"/>
			<point x="248" y="590" type="curve"/>
			<point x="242" y="585"/>
			<point x="238" y="578"/>
			<point x="236" y="571" type="curve"/>
			<point x="236" y="570"/>
			<point x="235" y="568"/>
			<point x="235" y="566" type="curve"/>
			<point x="64" y="-125" type="line" smooth="yes"/>
			<point x="59" y="-146"/>
			<point x="64" y="-173"/>
			<point x="90" y="-173" type="curve" smooth="yes"/>
			<point x="93" y="-173"/>
			<point x="97" y="-173"/>
			<point x="100" y="-172" type="curve"/>
			<point x="308" y="-174" type="line"/>
			<point x="337" y="-176"/>
			<point x="365" y="-171"/>
			<point x="365" y="-137" type="curve" smooth="yes"/>
			<point x="365" y="-112"/>
			<point x="348" y="-100"/>
			<point x="326" y="-100" type="curve" smooth="yes"/>
			<point x="148" y="-98" type="line"/>
			<point x="303" y="529" type="line"/>
			<point x="481" y="527" type="line"/>
			<point x="510" y="525"/>
			<point x="538" y="530"/>
			<point x="538" y="564" type="curve" smooth="yes"/>
			<point x="538" y="589"/>
			<point x="521" y="601"/>
		</contour>
	</outline>
</glyph>
<glyph name="bracketright" format="2">
	<advance width="600"/>
	<unicode hex="005D"/>
	<note>
		bracketright
	</note>
	<outline>
		<contour>
			<point x="510" y="603" type="curve" smooth="yes"/>
			<point x="507" y="603"/>
			<point x="503" y="603"/>
			<point x="500" y="602" type="curve"/>
			<point x="292" y="604" type="line"/>
			<point x="263" y="606"/>
			<point x="235" y="601"/>
			<point x="235" y="567" type="curve" smooth="yes"/>
			<point x="235" y="542"/>
			<point x="252" y="530"/>
			<point x="274" y="530" type="curve" smooth="yes"/>
			<point x="452" y="528" type="line"/>
			<point x="297" y="-99" type="line"/>
			<point x="119" y="-97" type="line"/>
			<point x="90" y="-95"/>
			<point x="62" y="-100"/>
			<point x="62" y="-134" type="curve" smooth="yes"/>
			<point x="62" y="-159"/>
			<point x="79" y="-171"/>
			<point x="101" y="-171" type="curve" smooth="yes"/>
			<point x="314" y="-173" type="line"/>
			<point x="316" y="-173" type="line"/>
			<point x="329" y="-175"/>
			<point x="342" y="-170"/>
			<point x="352" y="-160" type="curve"/>
			<point x="358" y="-155"/>
			<point x="362" y="-148"/>
			<point x="364" y="-141" type="curve"/>
			<point x="364" y="-140"/>
			<point x="365" y="-138"/>
			<point x="365" y="-136" type="curve"/>
			<point x="536" y="555" type="line" smooth="yes"/>
			<point x="541" y="576"/>
			<point x="536" y="603"/>
		</contour>
	</outline>
</glyph>
<glyph name="underscore" format="2">
	<advance width="600"/>
	<unicode hex="005F"/>
	<note>
		underscore
	</note>
	<outline>
		<contour>
			<point x="480" y="-82" type="line"/>
			<point x="120" y="-82" type="line"/>
			<point x="120" y="-14" type="line"/>
			<point x="480" y="-14" type="line"/>
		</contour>
	</outline>
</glyph>
<glyph name="d" format="2">
	<advance width="600"/>
	<unicode hex="0064"/>
	<note>
		d
	</note>
	<outline>
		<contour>
			<point x="49" y="100" type="curve" smooth="yes"/>
			<point x="49" y="34"/>
			<point x="74" y="-12"/>
			<point x="138" y="-12" type="curve" smooth="yes"/>
			<point x="197" y="-12"/>
			<point x="302" y="128"/>
			<point x="408" y="245" type="curve"/>
			<point x="357" y="58" type="line" smooth="yes"/>
			<point x="345" y="14"/>
			<point x="355" y="-13"/>
			<point x="391" y="-13" type="curve" smooth="yes"/>
			<point x="427" y="-13"/>
			<point x="443" y="-1"/>
			<point x="485" y="35" type="curve" smooth="yes"/>
			<point x="720" y="236" type="line" smooth="yes"/>
			<point x="740" y="254"/>
			<point x="752" y="273"/>
			<point x="742" y="292" type="curve" smooth="yes"/>
			<point x="733" y="309"/>
			<point x="712" y="310"/>
			<point x="694" y="295" type="curve" smooth="yes"/>
			<point x="434" y="74" type="line"/>
			<point x="566" y="558" type="line" smooth="yes"/>
			<point x="574" y="586"/>
			<point x="562" y="603"/>
			<point x="541" y="603" type="curve" smooth="yes"/>
			<point x="520" y="603"/>
			<point x="502" y="588"/>
			<point x="495" y="563" type="curve" smooth="yes"/>
			<point x="461" y="438" type="line"/>
			<point x="443" y="441"/>
			<point x="422" y="443"/>
			<point x="398" y="443" type="curve" smooth="yes"/>
			<point x="173" y="443"/>
			<point x="49" y="270"/>
		</contour>
		<contour>
			<point x="121" y="98" type="curve" smooth="yes"/>
			<point x="121" y="241"/>
			<point x="230" y="374"/>
			<point x="397" y="374" type="curve" smooth="yes"/>
			<point x="414" y="374"/>
			<point x="429" y="372"/>
			<point x="442" y="370" type="curve"/>
			<point x="374" y="295"/>
			<point x="176" y="62"/>
			<point x="150" y="62" type="curve" smooth="yes"/>
			<point x="129" y="62"/>
			<point x="121" y="74"/>
		</contour>
	</outline>
</glyph>
<glyph name="f" format="2">
	<advance width="600"/>
	<unicode hex="0066"/>
	<note>
		f
	</note>
	<outline>
		<contour>
			<point x="742" y="292" type="curve" smooth="yes"/>
			<point x="733" y="309"/>
			<point x="712" y="310"/>
			<point x="694" y="295" type="curve" smooth="yes"/>
			<point x="554" y="176" type="line" smooth="yes"/>
			<point x="457" y="94"/>
			<point x="389" y="52"/>
			<point x="321" y="52" type="curve" smooth="yes"/>
			<point x="289" y="52"/>
			<point x="265" y="61"/>
			<point x="253" y="79" type="curve"/>
			<point x="335" y="416" type="line"/>
			<point x="407" y="472"/>
			<point x="442" y="512"/>
			<point x="442" y="551" type="curve" smooth="yes"/>
			<point x="442" y="577"/>
			<point x="425" y="603"/>
			<point x="388" y="603" type="curve" smooth="yes"/>
			<point x="336" y="603"/>
			<point x="295" y="571"/>
			<point x="281" y="512" type="curve" smooth="yes"/>
			<point x="263" y="438" type="line"/>
			<point x="13" y="226" type="line" smooth="yes"/>
			<point x="1" y="216"/>
			<point x="-6" y="201"/>
			<point x="10" y="183" type="curve" smooth="yes"/>
			<point x="27" y="164"/>
			<point x="45" y="173"/>
			<point x="58" y="183" type="curve"/>
			<point x="245" y="345" type="line"/>
			<point x="175" y="68" type="line" smooth="yes"/>
			<point x="144" y="-56"/>
			<point x="114" y="-97"/>
			<point x="90" y="-113" type="curve" smooth="yes"/>
			<point x="73" y="-124"/>
			<point x="66" y="-140"/>
			<point x="74" y="-155" type="curve" smooth="yes"/>
			<point x="85" y="-175"/>
			<point x="104" y="-178"/>
			<point x="127" y="-165" type="curve" smooth="yes"/>
			<point x="148" y="-153"/>
			<point x="196" y="-102"/>
			<point x="233" y="8" type="curve"/>
			<point x="254" y="-7"/>
			<point x="282" y="-13"/>
			<point x="307" y="-13" type="curve" smooth="yes"/>
			<point x="387" y="-13"/>
			<point x="464" y="16"/>
			<point x="581" y="117" type="curve" smooth="yes"/>
			<point x="720" y="236" type="line" smooth="yes"/>
			<point x="740" y="254"/>
			<point x="752" y="273"/>
		</contour>
	</outline>
</glyph>
<glyph name="n" format="2">
	<advance width="600"/>
	<unicode hex="006E"/>
	<note>
		n
	</note>
	<outline>
		<contour>
			<point x="128" y="411" type="curve" smooth="yes"/>
			<point x="33" y="40" type="line" smooth="yes"/>
			<point x="25" y="9"/>
			<point x="38" y="-13"/>
			<point x="68" y="-13" type="curve" smooth="yes"/>
			<point x="94" y="-13"/>
			<point x="113" y="5"/>
			<point x="131" y="34" type="curve" smooth="yes"/>
			<point x="303" y="316"/>
			<point x="366" y="374"/>
			<point x="408" y="374" type="curve" smooth="yes"/>
			<point x="429" y="374"/>
			<point x="436" y="363"/>
			<point x="431" y="342" type="curve" smooth="yes"/>
			<point x="357" y="58" type="line" smooth="yes"/>
			<point x="345" y="12"/>
			<point x="355" y="-13"/>
			<point x="391" y="-13" type="curve" smooth="yes"/>
			<point x="427" y="-13"/>
			<point x="443" y="-1"/>
			<point x="485" y="35" type="curve" smooth="yes"/>
			<point x="720" y="236" type="line" smooth="yes"/>
			<point x="740" y="254"/>
			<point x="752" y="273"/>
			<point x="742" y="292" type="curve" smooth="yes"/>
			<point x="733" y="309"/>
			<point x="712" y="310"/>
			<point x="694" y="295" type="curve" smooth="yes"/>
			<point x="437" y="76" type="line"/>
			<point x="505" y="337" type="line" smooth="yes"/>
			<point x="522" y="402"/>
			<point x="495" y="446"/>
			<point x="434" y="446" type="curve" smooth="yes"/>
			<point x="350" y="446"/>
			<point x="291" y="420"/>
			<point x="137" y="160" type="curve"/>
			<point x="204" y="413"/>
			<point x="204" y="410"/>
			<point x="204" y="418" type="curve" smooth="yes"/>
			<point x="204" y="433"/>
			<point x="194" y="443"/>
			<point x="173" y="443" type="curve" smooth="yes"/>
			<point x="149" y="443"/>
			<point x="133" y="432"/>
		</contour>
	</outline>
</glyph>
<glyph name="q" format="2">
	<advance width="600"/>
	<unicode hex="0071"/>
	<note>
		q
	</note>
	<outline>
		<contour>
			<point x="49" y="100" type="curve" smooth="yes"/>
			<point x="49" y="34"/>
			<point x="74" y="-12"/>
			<point x="138" y="-12" type="curve" smooth="yes"/>
			<point x="197" y="-12"/>
			<point x="302" y="122"/>
			<point x="408" y="245" type="curve"/>
			<point x="307" y="-119" type="line" smooth="yes"/>
			<point x="296" y="-160"/>
			<point x="317" y="-173"/>
			<point x="333" y="-173" type="curve" smooth="yes"/>
			<point x="355" y="-173"/>
			<point x="374" y="-160"/>
			<point x="385" y="-116" type="curve" smooth="yes"/>
			<point x="405" y="-37"/>
			<point x="412" y="-28"/>
			<point x="485" y="35" type="curve" smooth="yes"/>
			<point x="720" y="236" type="line" smooth="yes"/>
			<point x="740" y="254"/>
			<point x="752" y="273"/>
			<point x="742" y="292" type="curve" smooth="yes"/>
			<point x="733" y="309"/>
			<point x="712" y="310"/>
			<point x="694" y="295" type="curve" smooth="yes"/>
			<point x="438" y="78" type="line"/>
			<point x="494" y="297" type="line" smooth="yes"/>
			<point x="501" y="324"/>
			<point x="483" y="345"/>
			<point x="457" y="345" type="curve" smooth="yes"/>
			<point x="434" y="345"/>
			<point x="413" y="333"/>
			<point x="402" y="322" type="curve" smooth="yes"/>
			<point x="207" y="114"/>
			<point x="177" y="62"/>
			<point x="150" y="62" type="curve" smooth="yes"/>
			<point x="129" y="62"/>
			<point x="121" y="74"/>
			<point x="121" y="98" type="curve" smooth="yes"/>
			<point x="121" y="241"/>
			<point x="230" y="374"/>
			<point x="397" y="374" type="curve" smooth="yes"/>
			<point x="442" y="374"/>
			<point x="472" y="363"/>
			<point x="498" y="352" type="curve" smooth="yes"/>
			<point x="508" y="348"/>
			<point x="529" y="351"/>
			<point x="538" y="365" type="curve" smooth="yes"/>
			<point x="548" y="380"/>
			<point x="549" y="398"/>
			<point x="538" y="407" type="curve"/>
			<point x="506" y="431"/>
			<point x="465" y="443"/>
			<point x="398" y="443" type="curve" smooth="yes"/>
			<point x="173" y="443"/>
			<point x="49" y="270"/>
		</contour>
	</outline>
</glyph>
<glyph name="x" format="2">
	<advance width="600"/>
	<unicode hex="0078"/>
	<note>
		x
	</note>
	<outline>
		<contour>
			<point x="742" y="292" type="curve" smooth="yes"/>
			<point x="733" y="309"/>
			<point x="712" y="310"/>
			<point x="694" y="295" type="curve" smooth="yes"/>
			<point x="497" y="126" type="line" smooth="yes"/>
			<point x="426" y="66"/>
			<point x="392" y="48"/>
			<point x="371" y="48" type="curve" smooth="yes"/>
			<point x="333" y="48"/>
			<point x="323" y="94"/>
			<point x="361" y="220" type="curve" smooth="yes"/>
			<point x="388" y="309"/>
			<point x="476" y="374"/>
			<point x="580" y="374" type="curve" smooth="yes"/>
			<point x="598" y="374"/>
			<point x="615" y="389"/>
			<point x="615" y="407" type="curve" smooth="yes"/>
			<point x="615" y="423"/>
			<point x="605" y="441"/>
			<point x="580" y="441" type="curve" smooth="yes"/>
			<point x="501" y="441"/>
			<point x="430" y="410"/>
			<point x="378" y="360" type="curve"/>
			<point x="381" y="412"/>
			<point x="360" y="444"/>
			<point x="299" y="444" type="curve" smooth="yes"/>
			<point x="278" y="444"/>
			<point x="258" y="435"/>
			<point x="239" y="419" type="curve" smooth="yes"/>
			<point x="74" y="278" type="line"/>
			<point x="36" y="243"/>
			<point x="75" y="199"/>
			<point x="112" y="229" type="curve" smooth="yes"/>
			<point x="258" y="354" type="line" smooth="yes"/>
			<point x="274" y="368"/>
			<point x="282" y="374"/>
			<point x="292" y="374" type="curve" smooth="yes"/>
			<point x="335" y="374"/>
			<point x="325" y="300"/>
			<point x="299" y="224" type="curve" smooth="yes"/>
			<point x="258" y="103"/>
			<point x="158" y="54"/>
			<point x="63" y="54" type="curve" smooth="yes"/>
			<point x="45" y="54"/>
			<point x="28" y="39"/>
			<point x="28" y="21" type="curve" smooth="yes"/>
			<point x="28" y="5"/>
			<point x="38" y="-13"/>
			<point x="63" y="-13" type="curve" smooth="yes"/>
			<point x="136" y="-13"/>
			<point x="224" y="7"/>
			<point x="274" y="72" type="curve"/>
			<point x="274" y="15"/>
			<point x="305" y="-13"/>
			<point x="359" y="-13" type="curve" smooth="yes"/>
			<point x="403" y="-13"/>
			<point x="452" y="7"/>
			<point x="497" y="45" type="curve" smooth="yes"/>
			<point x="720" y="236" type="line" smooth="yes"/>
			<point x="739" y="253"/>
			<point x="752" y="273"/>
		</contour>
	</outline>
</glyph>
<glyph name="braceleft" format="2">
	<advance width="600"/>
	<unicode hex="007B"/>
	<note>
		braceleft
	</note>
	<outline>
		<contour>
			<point x="519" y="601" type="curve" smooth="yes"/>
			<point x="306" y="603" type="line" smooth="yes"/>
			<point x="279" y="603"/>
			<point x="235" y="562"/>
			<point x="240" y="530" type="curve" smooth="yes"/>
			<point x="250" y="470"/>
			<point x="319" y="418"/>
			<point x="78" y="328" type="curve" smooth="yes"/>
			<point x="0" y="299"/>
			<point x="-1" y="221"/>
			<point x="76" y="184" type="curve" smooth="yes"/>
			<point x="189" y="130"/>
			<point x="179" y="36"/>
			<point x="63" y="-98" type="curve" smooth="yes"/>
			<point x="46" y="-117"/>
			<point x="51" y="-173"/>
			<point x="90" y="-173" type="curve" smooth="yes"/>
			<point x="308" y="-174" type="line"/>
			<point x="337" y="-176"/>
			<point x="365" y="-171"/>
			<point x="365" y="-137" type="curve" smooth="yes"/>
			<point x="365" y="-112"/>
			<point x="348" y="-103"/>
			<point x="326" y="-103" type="curve" smooth="yes"/>
			<point x="148" y="-101" type="line"/>
			<point x="227" y="0"/>
			<point x="308" y="138"/>
			<point x="94" y="259" type="curve"/>
			<point x="330" y="346"/>
			<point x="349" y="428"/>
			<point x="323" y="532" type="curve"/>
			<point x="501" y="530" type="line"/>
			<point x="530" y="528"/>
			<point x="558" y="530"/>
			<point x="558" y="564" type="curve" smooth="yes"/>
			<point x="558" y="589"/>
			<point x="541" y="601"/>
		</contour>
	</outline>
</glyph>
<glyph name="asciitilde" format="2">
	<advance width="600"/>
	<unicode hex="007E"/>
	<note>
		asciitilde
	</note>
	<outline>
		<contour>
			<point x="389" y="218" type="curve" smooth="yes"/>
			<point x="465" y="218"/>
			<point x="521" y="296"/>
			<point x="521" y="396" type="curve" smooth="yes"/>
			<point x="521" y="428"/>
			<point x="510" y="443"/>
			<point x="488" y="443" type="curve" smooth="yes"/>
			<point x="466" y="443"/>
			<point x="458" y="423"/>
			<point x="458" y="396" type="curve" smooth="yes"/>
			<point x="458" y="330"/>
			<point x="427" y="282"/>
			<point x="389" y="281" type="curve" smooth="yes"/>
			<point x="321" y="279"/>
			<point x="322" y="443"/>
			<point x="199" y="443" type="curve" smooth="yes"/>
			<point x="122" y="443"/>
			<point x="76" y="367"/>
			<point x="76" y="268" type="curve" smooth="yes"/>
			<point x="76" y="231"/>
			<point x="89" y="217"/>
			<point x="109" y="217" type="curve" smooth="yes"/>
			<point x="130" y="217"/>
			<point x="139" y="233"/>
			<point x="139" y="268" type="curve" smooth="yes"/>
			<point x="139" y="332"/>
			<point x="162" y="380"/>
			<point x="199" y="380" type="curve" smooth="yes"/>
			<point x="282" y="380"/>
			<point x="280" y="218"/>
		</contour>
	</outline>
</glyph>
<glyph name="sterling" format="2">
	<advance width="600"/>
	<unicode hex="00A3"/>
	<note>
		sterling
	</note>
	<outline>
		<contour>
			<point x="537" y="430" type="curve" smooth="yes"/>
			<point x="563" y="430"/>
			<point x="574" y="443"/>
			<point x="584" y="479" type="curve" smooth="yes"/>
			<point x="606" y="562"/>
			<point x="542" y="603"/>
			<point x="500" y="603" type="curve" smooth="yes"/>
			<point x="410" y="603"/>
			<point x="377" y="519"/>
			<point x="357" y="443" type="curve" smooth="yes"/>
			<point x="346" y="400" type="line"/>
			<point x="260" y="400" type="line" smooth="yes"/>
			<point x="240" y="400"/>
			<point x="231" y="378"/>
			<point x="231" y="364" type="curve" smooth="yes"/>
			<point x="231" y="352"/>
			<point x="241" y="330"/>
			<point x="260" y="330" type="curve" smooth="yes"/>
			<point x="327" y="330" type="line"/>
			<point x="315" y="281" type="line"/>
			<point x="229" y="281" type="line" smooth="yes"/>
			<point x="209" y="281"/>
			<point x="200" y="259"/>
			<point x="200" y="245" type="curve" smooth="yes"/>
			<point x="200" y="233"/>
			<point x="210" y="211"/>
			<point x="229" y="211" type="curve" smooth="yes"/>
			<point x="296" y="211" type="line"/>
			<point x="283" y="159" type="line" smooth="yes"/>
			<point x="275" y="127"/>
			<point x="267" y="102"/>
			<point x="258" y="82" type="curve"/>
			<point x="253" y="151"/>
			<point x="207" y="205"/>
			<point x="130" y="205" type="curve" smooth="yes"/>
			<point x="79" y="205"/>
			<point x="12" y="175"/>
			<point x="12" y="100" type="curve" smooth="yes"/>
			<point x="12" y="23"/>
			<point x="75" y="-10"/>
			<point x="136" y="-10" type="curve" smooth="yes"/>
			<point x="152" y="-10"/>
			<point x="171" y="-10"/>
			<point x="194" y="-9" type="curve"/>
			<point x="194" y="-83"/>
			<point x="220" y="-171"/>
			<point x="362" y="-171" type="curve" smooth="yes"/>
			<point x="488" y="-171"/>
			<point x="566" y="-121"/>
			<point x="566" y="0" type="curve" smooth="yes"/>
			<point x="566" y="34"/>
			<point x="559" y="53"/>
			<point x="536" y="53" type="curve" smooth="yes"/>
			<point x="513" y="53"/>
			<point x="497" y="35"/>
			<point x="497" y="0" type="curve" smooth="yes"/>
			<point x="497" y="-82"/>
			<point x="445" y="-103"/>
			<point x="362" y="-103" type="curve" smooth="yes"/>
			<point x="276" y="-103"/>
			<point x="262" y="-53"/>
			<point x="262" y="0" type="curve" smooth="yes"/>
			<point x="262" y="4" type="line"/>
			<point x="316" y="29"/>
			<point x="337" y="86"/>
			<point x="356" y="161" type="curve" smooth="yes"/>
			<point x="369" y="211" type="line"/>
			<point x="448" y="211" type="line" smooth="yes"/>
			<point x="467" y="211"/>
			<point x="477" y="233"/>
			<point x="477" y="245" type="curve" smooth="yes"/>
			<point x="477" y="259"/>
			<point x="468" y="281"/>
			<point x="448" y="281" type="curve" smooth="yes"/>
			<point x="388" y="281" type="line"/>
			<point x="401" y="330" type="line"/>
			<point x="479" y="330" type="line" smooth="yes"/>
			<point x="498" y="330"/>
			<point x="508" y="352"/>
			<point x="508" y="364" type="curve" smooth="yes"/>
			<point x="508" y="378"/>
			<point x="499" y="400"/>
			<point x="479" y="400" type="curve" smooth="yes"/>
			<point x="419" y="400" type="line"/>
			<point x="430" y="443" type="line" smooth="yes"/>
			<point x="438" y="479"/>
			<point x="454" y="533"/>
			<point x="491" y="533" type="curve" smooth="yes"/>
			<point x="523" y="533"/>
			<point x="524" y="502"/>
			<point x="518" y="479" type="curve" smooth="yes"/>
			<point x="509" y="446"/>
			<point x="520" y="430"/>
		</contour>
		<contour>
			<point x="133" y="60" type="curve" smooth="yes"/>
			<point x="94" y="60"/>
			<point x="77" y="75"/>
			<point x="77" y="102" type="curve" smooth="yes"/>
			<point x="77" y="131"/>
			<point x="104" y="139"/>
			<point x="127" y="139" type="curve" smooth="yes"/>
			<point x="173" y="139"/>
			<point x="187" y="111"/>
			<point x="187" y="61" type="curve"/>
			<point x="166" y="61"/>
			<point x="150" y="60"/>
		</contour>
	</outline>
</glyph>
<glyph name="currency" format="2">
	<advance width="600"/>
	<unicode hex="00A4"/>
	<note>
		currency
	</note>
	<outline>
		<contour>
			<point x="479" y="113" type="curve"/>
			<point x="436" y="149" type="line"/>
			<point x="448" y="171"/>
			<point x="454" y="196"/>
			<point x="454" y="222" type="curve" smooth="yes"/>
			<point x="454" y="249"/>
			<point x="448" y="274"/>
			<point x="438" y="297" type="curve"/>
			<point x="475" y="328" type="line"/>
			<point x="485" y="337"/>
			<point x="480" y="363"/>
			<point x="472" y="371" type="curve" smooth="yes"/>
			<point x="462" y="381"/>
			<point x="441" y="392"/>
			<point x="428" y="380" type="curve"/>
			<point x="395" y="352" type="line"/>
			<point x="369" y="373"/>
			<point x="335" y="385"/>
			<point x="296" y="385" type="curve" smooth="yes"/>
			<point x="259" y="385"/>
			<point x="225" y="372"/>
			<point x="199" y="350" type="curve"/>
			<point x="163" y="380" type="line"/>
			<point x="150" y="392"/>
			<point x="128" y="381"/>
			<point x="119" y="371" type="curve" smooth="yes"/>
			<point x="111" y="362"/>
			<point x="106" y="337"/>
			<point x="116" y="328" type="curve" smooth="yes"/>
			<point x="156" y="294" type="line"/>
			<point x="146" y="272"/>
			<point x="140" y="248"/>
			<point x="140" y="222" type="curve" smooth="yes"/>
			<point x="140" y="198"/>
			<point x="145" y="175"/>
			<point x="155" y="155" type="curve"/>
			<point x="107" y="114" type="line" smooth="yes"/>
			<point x="97" y="105"/>
			<point x="103" y="79"/>
			<point x="110" y="71" type="curve" smooth="yes"/>
			<point x="120" y="60"/>
			<point x="141" y="50"/>
			<point x="154" y="62" type="curve"/>
			<point x="198" y="99" type="line"/>
			<point x="224" y="77"/>
			<point x="257" y="64"/>
			<point x="293" y="64" type="curve" smooth="yes"/>
			<point x="330" y="64"/>
			<point x="364" y="76"/>
			<point x="391" y="96" type="curve"/>
			<point x="432" y="61" type="line"/>
			<point x="445" y="49"/>
			<point x="466" y="59"/>
			<point x="476" y="70" type="curve" smooth="yes"/>
			<point x="483" y="78"/>
			<point x="489" y="104"/>
		</contour>
		<contour>
			<point x="199" y="222" type="curve" smooth="yes"/>
			<point x="199" y="281"/>
			<point x="243" y="326"/>
			<point x="296" y="326" type="curve" smooth="yes"/>
			<point x="355" y="326"/>
			<point x="395" y="278"/>
			<point x="395" y="222" type="curve" smooth="yes"/>
			<point x="395" y="175"/>
			<point x="350" y="123"/>
			<point x="293" y="123" type="curve" smooth="yes"/>
			<point x="241" y="123"/>
			<point x="199" y="168"/>
		</contour>
	</outline>
</glyph>
<glyph name="yen" format="2">
	<advance width="600"/>
	<unicode hex="00A5"/>
	<note>
		yen
	</note>
	<outline>
		<contour>
			<point x="573" y="604" type="curve" smooth="yes"/>
			<point x="550" y="604"/>
			<point x="530" y="591"/>
			<point x="517" y="543" type="curve" smooth="yes"/>
			<point x="512" y="525" type="line"/>
			<point x="423" y="291"/>
			<point x="284" y="161"/>
			<point x="231" y="161" type="curve" smooth="yes"/>
			<point x="193" y="161"/>
			<point x="206" y="245"/>
			<point x="230" y="341" type="curve" smooth="yes"/>
			<point x="289" y="551" type="line" smooth="yes"/>
			<point x="296" y="577"/>
			<point x="281" y="598"/>
			<point x="254" y="603" type="curve" smooth="yes"/>
			<point x="232" y="607"/>
			<point x="209" y="592"/>
			<point x="188" y="575" type="curve" smooth="yes"/>
			<point x="121" y="521"/>
			<point x="78" y="482"/>
			<point x="39" y="449" type="curve" smooth="yes"/>
			<point x="26" y="438"/>
			<point x="25" y="407"/>
			<point x="42" y="396" type="curve" smooth="yes"/>
			<point x="54" y="388"/>
			<point x="64" y="387"/>
			<point x="82" y="402" type="curve" smooth="yes"/>
			<point x="118" y="432"/>
			<point x="167" y="474"/>
			<point x="200" y="502" type="curve"/>
			<point x="188" y="461" type="line"/>
			<point x="160" y="362" type="line"/>
			<point x="158" y="354" type="line" smooth="yes"/>
			<point x="123" y="230"/>
			<point x="114" y="86"/>
			<point x="221" y="86" type="curve" smooth="yes"/>
			<point x="258" y="86"/>
			<point x="346" y="120"/>
			<point x="437" y="233" type="curve"/>
			<point x="401" y="94" type="line"/>
			<point x="310" y="94" type="line" smooth="yes"/>
			<point x="290" y="94"/>
			<point x="281" y="72"/>
			<point x="281" y="58" type="curve" smooth="yes"/>
			<point x="281" y="46"/>
			<point x="291" y="24"/>
			<point x="310" y="24" type="curve" smooth="yes"/>
			<point x="382" y="24" type="line"/>
			<point x="370" y="-25" type="line"/>
			<point x="297" y="-25" type="line" smooth="yes"/>
			<point x="277" y="-25"/>
			<point x="268" y="-47"/>
			<point x="268" y="-61" type="curve" smooth="yes"/>
			<point x="268" y="-73"/>
			<point x="278" y="-95"/>
			<point x="297" y="-95" type="curve" smooth="yes"/>
			<point x="352" y="-95" type="line"/>
			<point x="341" y="-136" type="line" smooth="yes"/>
			<point x="334" y="-160"/>
			<point x="350" y="-173"/>
			<point x="371" y="-173" type="curve" smooth="yes"/>
			<point x="394" y="-173"/>
			<point x="415" y="-160"/>
			<point x="419" y="-139" type="curve"/>
			<point x="430" y="-95" type="line"/>
			<point x="516" y="-95" type="line" smooth="yes"/>
			<point x="535" y="-95"/>
			<point x="545" y="-73"/>
			<point x="545" y="-61" type="curve" smooth="yes"/>
			<point x="545" y="-47"/>
			<point x="536" y="-25"/>
			<point x="516" y="-25" type="curve" smooth="yes"/>
			<point x="448" y="-25" type="line"/>
			<point x="461" y="24" type="line"/>
			<point x="529" y="24" type="line" smooth="yes"/>
			<point x="548" y="24"/>
			<point x="558" y="41"/>
			<point x="558" y="53" type="curve" smooth="yes"/>
			<point x="558" y="67"/>
			<point x="549" y="94"/>
			<point x="529" y="94" type="curve" smooth="yes"/>
			<point x="479" y="94" type="line"/>
			<point x="595" y="543" type="line" smooth="yes"/>
			<point x="608" y="591"/>
			<point x="596" y="604"/>
		</contour>
	</outline>
</glyph>
<glyph name="brokenbar" format="2">
	<advance width="600"/>
	<unicode hex="00A6"/>
	<note>
		brokenbar
	</note>
	<outline>
		<contour>
			<point x="366" y="579" type="curve" smooth="yes"/>
			<point x="299" y="330" type="line"/>
			<point x="294" y="315"/>
			<point x="309" y="296"/>
			<point x="323" y="292" type="curve" smooth="yes"/>
			<point x="339" y="287"/>
			<point x="361" y="294"/>
			<point x="366" y="312" type="curve" smooth="yes"/>
			<point x="434" y="561" type="line" smooth="yes"/>
			<point x="440" y="581"/>
			<point x="426" y="597"/>
			<point x="412" y="602" type="curve" smooth="yes"/>
			<point x="397" y="607"/>
			<point x="370" y="596"/>
		</contour>
		<contour>
			<point x="237" y="116" type="curve" smooth="yes"/>
			<point x="170" y="-133" type="line"/>
			<point x="165" y="-148"/>
			<point x="180" y="-167"/>
			<point x="194" y="-171" type="curve" smooth="yes"/>
			<point x="210" y="-176"/>
			<point x="232" y="-169"/>
			<point x="237" y="-151" type="curve" smooth="yes"/>
			<point x="305" y="98" type="line" smooth="yes"/>
			<point x="311" y="118"/>
			<point x="297" y="134"/>
			<point x="283" y="139" type="curve" smooth="yes"/>
			<point x="268" y="144"/>
			<point x="241" y="133"/>
		</contour>
	</outline>
</glyph>
<glyph name="section" format="2">
	<advance width="600"/>
	<unicode hex="00A7"/>
	<note>
		section
	</note>
	<outline>
		<contour>
			<point x="457" y="231" type="curve" smooth="yes"/>
			<point x="457" y="343"/>
			<point x="366" y="375"/>
			<point x="298" y="421" type="curve" smooth="yes"/>
			<point x="275" y="436"/>
			<point x="259" y="468"/>
			<point x="264" y="497" type="curve" smooth="yes"/>
			<point x="272" y="541"/>
			<point x="316" y="541"/>
			<point x="342" y="541" type="curve" smooth="yes"/>
			<point x="378" y="541"/>
			<point x="394" y="527"/>
			<point x="394" y="497" type="curve" smooth="yes"/>
			<point x="394" y="465"/>
			<point x="403" y="451"/>
			<point x="425" y="451" type="curve" smooth="yes"/>
			<point x="447" y="451"/>
			<point x="456" y="465"/>
			<point x="456" y="497" type="curve" smooth="yes"/>
			<point x="456" y="563"/>
			<point x="412" y="603"/>
			<point x="342" y="603" type="curve" smooth="yes"/>
			<point x="307" y="603"/>
			<point x="217" y="599"/>
			<point x="201" y="501" type="curve" smooth="yes"/>
			<point x="192" y="448"/>
			<point x="215" y="411"/>
			<point x="256" y="377" type="curve"/>
			<point x="182" y="362"/>
			<point x="125" y="303"/>
			<point x="124" y="231" type="curve" smooth="yes"/>
			<point x="124" y="222" type="line"/>
			<point x="131" y="69"/>
			<point x="308" y="28"/>
			<point x="289" y="-44" type="curve" smooth="yes"/>
			<point x="278" y="-86"/>
			<point x="238" y="-108"/>
			<point x="174" y="-108" type="curve" smooth="yes"/>
			<point x="131" y="-108"/>
			<point x="88" y="-78"/>
			<point x="88" y="-46" type="curve" smooth="yes"/>
			<point x="88" y="-12"/>
			<point x="99" y="20"/>
			<point x="118" y="20" type="curve" smooth="yes"/>
			<point x="140" y="20"/>
			<point x="160" y="30"/>
			<point x="160" y="50" type="curve" smooth="yes"/>
			<point x="160" y="72"/>
			<point x="143" y="81"/>
			<point x="118" y="81" type="curve" smooth="yes"/>
			<point x="63" y="81"/>
			<point x="26" y="41"/>
			<point x="26" y="-46" type="curve" smooth="yes"/>
			<point x="26" y="-111"/>
			<point x="96" y="-170"/>
			<point x="174" y="-170" type="curve" smooth="yes"/>
			<point x="244" y="-170"/>
			<point x="322" y="-156"/>
			<point x="353" y="-48" type="curve" smooth="yes"/>
			<point x="370" y="11"/>
			<point x="341" y="38"/>
			<point x="292" y="81" type="curve"/>
			<point x="382" y="80"/>
			<point x="457" y="147"/>
		</contour>
		<contour>
			<point x="291" y="325" type="curve" smooth="yes"/>
			<point x="349" y="324"/>
			<point x="394" y="285"/>
			<point x="397" y="234" type="curve"/>
			<point x="397" y="231" type="line" smooth="yes"/>
			<point x="396" y="179"/>
			<point x="350" y="138"/>
			<point x="291" y="137" type="curve" smooth="yes"/>
			<point x="241" y="135"/>
			<point x="198" y="168"/>
			<point x="187" y="212" type="curve"/>
			<point x="186" y="218"/>
			<point x="185" y="224"/>
			<point x="185" y="231" type="curve"/>
			<point x="183" y="282"/>
			<point x="231" y="324"/>
		</contour>
	</outline>
</glyph>
<glyph name="copyright" format="2">
	<advance width="600"/>
	<unicode hex="00A9"/>
	<note>
		copyright
	</note>
	<outline>
		<contour>
			<point x="303" y="-22" type="curve" smooth="yes"/>
			<point x="435" y="-22"/>
			<point x="542" y="85"/>
			<point x="542" y="217" type="curve" smooth="yes"/>
			<point x="542" y="348"/>
			<point x="435" y="455"/>
			<point x="303" y="455" type="curve" smooth="yes"/>
			<point x="171" y="455"/>
			<point x="64" y="348"/>
			<point x="64" y="217" type="curve" smooth="yes"/>
			<point x="64" y="85"/>
			<point x="171" y="-22"/>
		</contour>
		<contour>
			<point x="303" y="38" type="curve" smooth="yes"/>
			<point x="204" y="38"/>
			<point x="124" y="118"/>
			<point x="124" y="217" type="curve" smooth="yes"/>
			<point x="124" y="315"/>
			<point x="204" y="395"/>
			<point x="303" y="395" type="curve" smooth="yes"/>
			<point x="402" y="395"/>
			<point x="482" y="315"/>
			<point x="482" y="217" type="curve" smooth="yes"/>
			<point x="482" y="118"/>
			<point x="402" y="38"/>
		</contour>
		<contour>
			<point x="330" y="362" type="curve" smooth="yes"/>
			<point x="240" y="362"/>
			<point x="171" y="286"/>
			<point x="171" y="189" type="curve" smooth="yes"/>
			<point x="171" y="121"/>
			<point x="219" y="68"/>
			<point x="282" y="68" type="curve" smooth="yes"/>
			<point x="335" y="68"/>
			<point x="379" y="97"/>
			<point x="422" y="155" type="curve" smooth="yes"/>
			<point x="433" y="170"/>
			<point x="429" y="188"/>
			<point x="412" y="197" type="curve"/>
			<point x="396" y="204"/>
			<point x="382" y="199"/>
			<point x="371" y="181" type="curve" smooth="yes"/>
			<point x="348" y="143"/>
			<point x="318" y="124"/>
			<point x="283" y="124" type="curve" smooth="yes"/>
			<point x="251" y="124"/>
			<point x="228" y="151"/>
			<point x="228" y="189" type="curve" smooth="yes"/>
			<point x="228" y="258"/>
			<point x="271" y="307"/>
			<point x="330" y="307" type="curve" smooth="yes"/>
			<point x="341" y="307"/>
			<point x="349" y="303"/>
			<point x="349" y="300" type="curve" smooth="yes"/>
			<point x="349" y="293"/>
			<point x="346" y="287"/>
			<point x="340" y="281" type="curve" smooth="yes"/>
			<point x="327" y="268"/>
			<point x="326" y="250"/>
			<point x="338" y="239" type="curve"/>
			<point x="339" y="239" type="line"/>
			<point x="354" y="227"/>
			<point x="370" y="231"/>
			<point x="384" y="249" type="curve" smooth="yes"/>
			<point x="397" y="266"/>
			<point x="403" y="284"/>
			<point x="403" y="304" type="curve" smooth="yes"/>
			<point x="403" y="338"/>
			<point x="373" y="362"/>
		</contour>
	</outline>
</glyph>
<glyph name="guillemotleft" format="2">
	<advance width="600"/>
	<unicode hex="00AB"/>
	<note>
		guillemotleft
	</note>
	<outline>
		<contour>
			<point x="235" y="104" type="curve" smooth="yes"/>
			<point x="31" y="253" type="line"/>
			<point x="235" y="402" type="line" smooth="yes"/>
			<point x="293" y="445"/>
			<point x="328" y="467"/>
			<point x="350" y="441" type="curve" smooth="yes"/>
			<point x="367" y="421"/>
			<point x="365" y="403"/>
			<point x="342" y="386" type="curve" smooth="yes"/>
			<point x="160" y="253" type="line"/>
			<point x="342" y="120" type="line" smooth="yes"/>
			<point x="365" y="103"/>
			<point x="368" y="84"/>
			<point x="350" y="65" type="curve" smooth="yes"/>
			<point x="326" y="40"/>
			<point x="293" y="61"/>
		</contour>
		<contour>
			<point x="439" y="104" type="curve" smooth="yes"/>
			<point x="235" y="253" type="line"/>
			<point x="439" y="402" type="line" smooth="yes"/>
			<point x="497" y="445"/>
			<point x="532" y="467"/>
			<point x="554" y="441" type="curve" smooth="yes"/>
			<point x="571" y="421"/>
			<point x="569" y="403"/>
			<point x="546" y="386" type="curve" smooth="yes"/>
			<point x="364" y="253" type="line"/>
			<point x="546" y="120" type="line" smooth="yes"/>
			<point x="569" y="103"/>
			<point x="572" y="84"/>
			<point x="554" y="65" type="curve" smooth="yes"/>
			<point x="530" y="40"/>
			<point x="497" y="61"/>
		</contour>
	</outline>
</glyph>
<glyph name="logicalnot" format="2">
	<advance width="600"/>
	<unicode hex="00AC"/>
	<note>
		logicalnot
	</note>
	<outline>
		<contour>
			<point x="447" y="127" type="line"/>
			<point x="448" y="282" type="line"/>
			<point x="83" y="282" type="line"/>
			<point x="83" y="352" type="line"/>
			<point x="517" y="352" type="line"/>
			<point x="517" y="106" type="line"/>
			<point x="447" y="106" type="line"/>
		</contour>
	</outline>
</glyph>
<glyph name="uni00AD" format="2">
	<advance width="600"/>
	<unicode hex="00AD"/>
	<note>
		uni00AD
	</note>
	<outline>
		<contour>
			<point x="505" y="186" type="curve" smooth="yes"/>
			<point x="87" y="186" type="line" smooth="yes"/>
			<point x="74" y="186"/>
			<point x="61" y="208"/>
			<point x="61" y="220" type="curve" smooth="yes"/>
			<point x="61" y="233"/>
			<point x="70" y="256"/>
			<point x="87" y="256" type="curve" smooth="yes"/>
			<point x="505" y="256" type="line" smooth="yes"/>
			<point x="526" y="256"/>
			<point x="539" y="233"/>
			<point x="539" y="220" type="curve" smooth="yes"/>
			<point x="539" y="208"/>
			<point x="525" y="186"/>
		</contour>
	</outline>
</glyph>
<glyph name="macron" format="2">
	<advance width="600"/>
	<unicode hex="00AF"/>
	<note>
		macron
	</note>
	<outline>
		<contour>
			<point x="412" y="532" type="curve" smooth="yes"/>
			<point x="180" y="532" type="line" smooth="yes"/>
			<point x="167" y="532"/>
			<point x="154" y="554"/>
			<point x="154" y="566" type="curve" smooth="yes"/>
			<point x="154" y="579"/>
			<point x="163" y="602"/>
			<point x="180" y="602" type="curve" smooth="yes"/>
			<point x="412" y="602" type="line" smooth="yes"/>
			<point x="433" y="602"/>
			<point x="446" y="579"/>
			<point x="446" y="566" type="curve" smooth="yes"/>
			<point x="446" y="554"/>
			<point x="432" y="532"/>
		</contour>
	</outline>
</glyph>
<glyph name="plusminus" format="2">
	<advance width="600"/>
	<unicode hex="00B1"/>
	<note>
		plusminus
	</note>
	<outline>
		<contour>
			<point x="87" y="276" type="curve" smooth="yes"/>
			<point x="265" y="276" type="line"/>
			<point x="265" y="210" type="line" smooth="yes"/>
			<point x="265" y="190"/>
			<point x="287" y="176"/>
			<point x="299" y="176" type="curve" smooth="yes"/>
			<point x="312" y="176"/>
			<point x="335" y="189"/>
			<point x="335" y="210" type="curve" smooth="yes"/>
			<point x="335" y="276" type="line"/>
			<point x="505" y="276" type="line" smooth="yes"/>
			<point x="525" y="276"/>
			<point x="539" y="298"/>
			<point x="539" y="310" type="curve" smooth="yes"/>
			<point x="539" y="323"/>
			<point x="526" y="346"/>
			<point x="505" y="346" type="curve" smooth="yes"/>
			<point x="335" y="346" type="line"/>
			<point x="335" y="417" type="line" smooth="yes"/>
			<point x="335" y="434"/>
			<point x="312" y="443"/>
			<point x="299" y="443" type="curve" smooth="yes"/>
			<point x="287" y="443"/>
			<point x="265" y="434"/>
			<point x="265" y="417" type="curve" smooth="yes"/>
			<point x="265" y="346" type="line"/>
			<point x="87" y="346" type="line" smooth="yes"/>
			<point x="70" y="346"/>
			<point x="61" y="323"/>
			<point x="61" y="310" type="curve" smooth="yes"/>
			<point x="61" y="298"/>
			<point x="74" y="276"/>
		</contour>
		<contour>
			<point x="505" y="154" type="curve" smooth="yes"/>
			<point x="87" y="154" type="line" smooth="yes"/>
			<point x="74" y="154"/>
			<point x="61" y="133"/>
			<point x="61" y="120" type="curve" smooth="yes"/>
			<point x="61" y="104"/>
			<point x="74" y="84"/>
			<point x="87" y="84" type="curve" smooth="yes"/>
			<point x="505" y="84" type="line" smooth="yes"/>
			<point x="529" y="84"/>
			<point x="539" y="108"/>
			<point x="539" y="120" type="curve" smooth="yes"/>
			<point x="539" y="133"/>
			<point x="529" y="154"/>
		</contour>
	</outline>
</glyph>
<glyph name="acute" format="2">
	<advance width="600"/>
	<unicode hex="00B4"/>
	<note>
		acute
	</note>
	<outline>
		<contour>
			<point x="501" y="578" type="curve" smooth="yes"/>
			<point x="499" y="588"/>
			<point x="485" y="608"/>
			<point x="462" y="602" type="curve"/>
			<point x="228" y="555" type="line" smooth="yes"/>
			<point x="203" y="550"/>
			<point x="196" y="533"/>
			<point x="198" y="521" type="curve" smooth="yes"/>
			<point x="200" y="507"/>
			<point x="210" y="492"/>
			<point x="238" y="499" type="curve"/>
			<point x="479" y="536" type="line"/>
			<point x="505" y="542"/>
			<point x="504" y="563"/>
		</contour>
	</outline>
</glyph>
<glyph name="uni00B5" format="2">
	<advance width="600"/>
	<unicode hex="00B5"/>
	<note>
		uni00B5
	</note>
	<outline>
		<contour>
			<point x="480" y="443" type="curve" smooth="yes"/>
			<point x="456" y="443"/>
			<point x="442" y="429"/>
			<point x="425" y="402" type="curve" smooth="yes"/>
			<point x="256" y="134"/>
			<point x="219" y="57"/>
			<point x="156" y="57" type="curve" smooth="yes"/>
			<point x="135" y="57"/>
			<point x="116" y="76"/>
			<point x="124" y="106" type="curve" smooth="yes"/>
			<point x="147" y="195"/>
			<point x="161" y="250"/>
			<point x="200" y="405" type="curve" smooth="yes"/>
			<point x="205" y="425"/>
			<point x="192" y="443"/>
			<point x="172" y="443" type="curve" smooth="yes"/>
			<point x="153" y="443"/>
			<point x="134" y="432"/>
			<point x="128" y="406" type="curve" smooth="yes"/>
			<point x="108" y="328"/>
			<point x="83" y="229"/>
			<point x="59" y="130" type="curve" smooth="yes"/>
			<point x="3" y="-86" type="line" smooth="yes"/>
			<point x="-5" y="-117"/>
			<point x="5" y="-140"/>
			<point x="22" y="-145" type="curve" smooth="yes"/>
			<point x="46" y="-152"/>
			<point x="65" y="-128"/>
			<point x="71" y="-103" type="curve" smooth="yes"/>
			<point x="96" y="-3" type="line"/>
			<point x="111" y="-10"/>
			<point x="127" y="-13"/>
			<point x="143" y="-13" type="curve" smooth="yes"/>
			<point x="232" y="-13"/>
			<point x="304" y="79"/>
			<point x="408" y="254" type="curve"/>
			<point x="354" y="43" type="line" smooth="yes"/>
			<point x="346" y="12"/>
			<point x="356" y="-11"/>
			<point x="373" y="-16" type="curve" smooth="yes"/>
			<point x="397" y="-23"/>
			<point x="416" y="1"/>
			<point x="422" y="26" type="curve" smooth="yes"/>
			<point x="486" y="271"/>
			<point x="511" y="358"/>
			<point x="516" y="390" type="curve" smooth="yes"/>
			<point x="522" y="432"/>
			<point x="500" y="443"/>
		</contour>
	</outline>
</glyph>
<glyph name="periodcentered" format="2">
	<advance width="600"/>
	<unicode hex="00B7"/>
	<note>
		periodcentered
	</note>
	<outline>
		<contour>
			<point x="300" y="162" type="curve" smooth="yes"/>
			<point x="334" y="162"/>
			<point x="360" y="188"/>
			<point x="360" y="218" type="curve" smooth="yes"/>
			<point x="360" y="255"/>
			<point x="339" y="279"/>
			<point x="300" y="279" type="curve" smooth="yes"/>
			<point x="265" y="279"/>
			<point x="240" y="254"/>
			<point x="240" y="216" type="curve" smooth="yes"/>
			<point x="240" y="187"/>
			<point x="269" y="162"/>
		</contour>
	</outline>
</glyph>
<glyph name="cedilla" format="2">
	<advance width="600"/>
	<unicode hex="00B8"/>
	<note>
		cedilla
	</note>
	<outline>
		<contour>
			<point x="273" y="-23" type="curve"/>
			<point x="279" y="0" type="line"/>
			<point x="222" y="0" type="line"/>
			<point x="206" y="-56" type="line"/>
			<point x="255" y="-74"/>
			<point x="289" y="-83"/>
			<point x="289" y="-100" type="curve" smooth="yes"/>
			<point x="289" y="-141"/>
			<point x="231" y="-130"/>
			<point x="166" y="-83" type="curve" smooth="yes"/>
			<point x="154" y="-74"/>
			<point x="134" y="-79"/>
			<point x="126" y="-91" type="curve"/>
			<point x="119" y="-105"/>
			<point x="122" y="-122"/>
			<point x="134" y="-130" type="curve" smooth="yes"/>
			<point x="178" y="-160"/>
			<point x="218" y="-176"/>
			<point x="255" y="-176" type="curve" smooth="yes"/>
			<point x="294" y="-176"/>
			<point x="342" y="-148"/>
			<point x="342" y="-100" type="curve" smooth="yes"/>
			<point x="342" y="-63"/>
			<point x="322" y="-50"/>
		</contour>
	</outline>
</glyph>
<glyph name="guillemotright" format="2">
	<advance width="600"/>
	<unicode hex="00BB"/>
	<note>
		guillemotright
	</note>
	<outline>
		<contour>
			<point x="362" y="104" type="line" smooth="yes"/>
			<point x="304" y="61"/>
			<point x="271" y="40"/>
			<point x="247" y="65" type="curve" smooth="yes"/>
			<point x="229" y="84"/>
			<point x="232" y="103"/>
			<point x="255" y="120" type="curve" smooth="yes"/>
			<point x="437" y="253" type="line"/>
			<point x="255" y="386" type="line" smooth="yes"/>
			<point x="232" y="403"/>
			<point x="230" y="421"/>
			<point x="247" y="441" type="curve" smooth="yes"/>
			<point x="269" y="467"/>
			<point x="304" y="445"/>
			<point x="362" y="402" type="curve" smooth="yes"/>
			<point x="566" y="253" type="line"/>
		</contour>
		<contour>
			<point x="158" y="104" type="line" smooth="yes"/>
			<point x="100" y="61"/>
			<point x="67" y="40"/>
			<point x="43" y="65" type="curve" smooth="yes"/>
			<point x="25" y="84"/>
			<point x="28" y="103"/>
			<point x="51" y="120" type="curve" smooth="yes"/>
			<point x="233" y="253" type="line"/>
			<point x="51" y="386" type="line" smooth="yes"/>
			<point x="28" y="403"/>
			<point x="26" y="421"/>
			<point x="43" y="441" type="curve" smooth="yes"/>
			<point x="65" y="467"/>
			<point x="100" y="445"/>
			<point x="158" y="402" type="curve" smooth="yes"/>
			<point x="362" y="253" type="line"/>
		</contour>
	</outline>
</glyph>
<glyph name="questiondown" format="2">
	<advance width="600"/>
	<unicode hex="00BF"/>
	<note>
		questiondown
	</note>
	<outline>
		<contour>
			<point x="424" y="313" type="curve" smooth="yes"/>
			<point x="459" y="313"/>
			<point x="484" y="338"/>
			<point x="484" y="376" type="curve" smooth="yes"/>
			<point x="484" y="405"/>
			<point x="455" y="430"/>
			<point x="424" y="430" type="curve" smooth="yes"/>
			<point x="390" y="430"/>
			<point x="364" y="404"/>
			<point x="364" y="374" type="curve" smooth="yes"/>
			<point x="364" y="337"/>
			<point x="385" y="313"/>
		</contour>
		<contour>
			<point x="436" y="20" type="curve" smooth="yes"/>
			<point x="423" y="20"/>
			<point x="401" y="11"/>
			<point x="393" y="-13" type="curve"/>
			<point x="372" y="-87"/>
			<point x="317" y="-100"/>
			<point x="269" y="-100" type="curve" smooth="yes"/>
			<point x="205" y="-100"/>
			<point x="177" y="-64"/>
			<point x="191" y="-3" type="curve" smooth="yes"/>
			<point x="201" y="42"/>
			<point x="243" y="97"/>
			<point x="324" y="97" type="curve" smooth="yes"/>
			<point x="401" y="98" type="line"/>
			<point x="435" y="239" type="line" smooth="yes"/>
			<point x="440" y="261"/>
			<point x="427" y="278"/>
			<point x="406" y="281" type="curve" smooth="yes"/>
			<point x="385" y="284"/>
			<point x="364" y="267"/>
			<point x="359" y="242" type="curve"/>
			<point x="340" y="165" type="line"/>
			<point x="231" y="164"/>
			<point x="144" y="103"/>
			<point x="124" y="25" type="curve" smooth="yes"/>
			<point x="105" y="-51"/>
			<point x="97" y="-173"/>
			<point x="257" y="-173" type="curve" smooth="yes"/>
			<point x="368" y="-173"/>
			<point x="448" y="-106"/>
			<point x="466" y="-13" type="curve" smooth="yes"/>
			<point x="470" y="5"/>
			<point x="449" y="20"/>
		</contour>
	</outline>
</glyph>
<glyph name="Atilde" format="2">
	<advance width="600"/>
	<unicode hex="00C3"/>
	<note>
		Atilde
	</note>
	<outline>
		<contour>
			<point x="541" y="655" type="curve"/>
			<point x="516" y="656"/>
			<point x="493" y="668"/>
			<point x="479" y="681" type="curve" smooth="yes"/>
			<point x="454" y="704"/>
			<point x="443" y="718"/>
			<point x="419" y="718" type="curve" smooth="yes"/>
			<point x="406" y="718"/>
			<point x="381" y="697"/>
			<point x="352" y="665" type="curve" smooth="yes"/>
			<point x="342" y="654"/>
			<point x="319" y="652"/>
			<point x="307" y="665" type="curve"/>
			<point x="298" y="674"/>
			<point x="297" y="692"/>
			<point x="307" y="703" type="curve" smooth="yes"/>
			<point x="351" y="751"/>
			<point x="386" y="776"/>
			<point x="420" y="776" type="curve" smooth="yes"/>
			<point x="443" y="776"/>
			<point x="466" y="766"/>
			<point x="484" y="750" type="curve" smooth="yes"/>
			<point x="507" y="729"/>
			<point x="523" y="714"/>
			<point x="541" y="714" type="curve" smooth="yes"/>
			<point x="564" y="714"/>
			<point x="579" y="731"/>
			<point x="607" y="765" type="curve" smooth="yes"/>
			<point x="616" y="776"/>
			<point x="639" y="779"/>
			<point x="650" y="771" type="curve"/>
			<point x="664" y="760"/>
			<point x="663" y="739"/>
			<point x="654" y="728" type="curve" smooth="yes"/>
			<point x="614" y="679"/>
			<point x="578" y="655"/>
		</contour>
		<contour>
			<point x="477" y="603" type="curve" smooth="yes"/>
			<point x="448" y="603"/>
			<point x="419" y="589"/>
			<point x="370" y="517" type="curve" smooth="yes"/>
			<point x="216" y="293" type="line"/>
			<point x="100" y="294" type="line" smooth="yes"/>
			<point x="81" y="294"/>
			<point x="61" y="281"/>
			<point x="61" y="260" type="curve" smooth="yes"/>
			<point x="61" y="237"/>
			<point x="74" y="225"/>
			<point x="100" y="225" type="curve" smooth="yes"/>
			<point x="169" y="225" type="line"/>
			<point x="65" y="74" type="line"/>
			<point x="49" y="48"/>
			<point x="27" y="19"/>
			<point x="51" y="-1" type="curve" smooth="yes"/>
			<point x="73" y="-19"/>
			<point x="101" y="0"/>
			<point x="123" y="36" type="curve"/>
			<point x="250" y="225" type="line"/>
			<point x="456" y="225" type="line"/>
			<point x="434" y="47" type="line" smooth="yes"/>
			<point x="430" y="12"/>
			<point x="440" y="-12"/>
			<point x="461" y="-12" type="curve" smooth="yes"/>
			<point x="484" y="-12"/>
			<point x="499" y="3"/>
			<point x="504" y="48" type="curve" smooth="yes"/>
			<point x="556" y="501" type="line" smooth="yes"/>
			<point x="561" y="541"/>
			<point x="554" y="603"/>
		</contour>
		<contour>
			<point x="464" y="293" type="curve"/>
			<point x="295" y="293" type="line"/>
			<point x="418" y="475" type="line" smooth="yes"/>
			<point x="451" y="525"/>
			<point x="463" y="533"/>
			<point x="474" y="533" type="curve" smooth="yes"/>
			<point x="498" y="533"/>
			<point x="492" y="523"/>
		</contour>
	</outline>
</glyph>
<glyph name="Adieresis" format="2">
	<advance width="600"/>
	<unicode hex="00C4"/>
	<note>
		Adieresis
	</note>
	<outline>
		<contour>
			<point x="379" y="659" type="curve" smooth="yes"/>
			<point x="413" y="659"/>
			<point x="439" y="685"/>
			<point x="439" y="715" type="curve" smooth="yes"/>
			<point x="439" y="752"/>
			<point x="418" y="776"/>
			<point x="379" y="776" type="curve" smooth="yes"/>
			<point x="344" y="776"/>
			<point x="319" y="751"/>
			<point x="319" y="713" type="curve" smooth="yes"/>
			<point x="319" y="684"/>
			<point x="348" y="659"/>
		</contour>
		<contour>
			<point x="578" y="659" type="curve" smooth="yes"/>
			<point x="612" y="659"/>
			<point x="638" y="685"/>
			<point x="638" y="715" type="curve" smooth="yes"/>
			<point x="638" y="752"/>
			<point x="617" y="776"/>
			<point x="578" y="776" type="curve" smooth="yes"/>
			<point x="543" y="776"/>
			<point x="518" y="751"/>
			<point x="518" y="713" type="curve" smooth="yes"/>
			<point x="518" y="684"/>
			<point x="547" y="659"/>
		</contour>
		<contour>
			<point x="477" y="603" type="curve" smooth="yes"/>
			<point x="448" y="603"/>
			<point x="419" y="589"/>
			<point x="370" y="517" type="curve" smooth="yes"/>
			<point x="216" y="293" type="line"/>
			<point x="100" y="294" type="line" smooth="yes"/>
			<point x="81" y="294"/>
			<point x="61" y="281"/>
			<point x="61" y="260" type="curve" smooth="yes"/>
			<point x="61" y="237"/>
			<point x="74" y="225"/>
			<point x="100" y="225" type="curve" smooth="yes"/>
			<point x="169" y="225" type="line"/>
			<point x="65" y="74" type="line"/>
			<point x="49" y="48"/>
			<point x="27" y="19"/>
			<point x="51" y="-1" type="curve" smooth="yes"/>
			<point x="73" y="-19"/>
			<point x="101" y="0"/>
			<point x="123" y="36" type="curve"/>
			<point x="250" y="225" type="line"/>
			<point x="456" y="225" type="line"/>
			<point x="434" y="47" type="line" smooth="yes"/>
			<point x="430" y="12"/>
			<point x="440" y="-12"/>
			<point x="461" y="-12" type="curve" smooth="yes"/>
			<point x="484" y="-12"/>
			<point x="499" y="3"/>
			<point x="504" y="48" type="curve" smooth="yes"/>
			<point x="556" y="501" type="line" smooth="yes"/>
			<point x="561" y="541"/>
			<point x="554" y="603"/>
		</contour>
		<contour>
			<point x="464" y="293" type="curve"/>
			<point x="295" y="293" type="line"/>
			<point x="418" y="475" type="line" smooth="yes"/>
			<point x="451" y="525"/>
			<point x="463" y="533"/>
			<point x="474" y="533" type="curve" smooth="yes"/>
			<point x="498" y="533"/>
			<point x="492" y="523"/>
		</contour>
	</outline>
</glyph>
<glyph name="AE" format="2">
	<advance width="600"/>
	<unicode hex="00C6"/>
	<note>
		AE
	</note>
	<outline>
		<contour>
			<point x="599" y="68" type="curve" smooth="yes"/>
			<point x="593" y="82"/>
			<point x="570" y="89"/>
			<point x="555" y="80" type="curve"/>
			<point x="521" y="62"/>
			<point x="485" y="53"/>
			<point x="445" y="51" type="curve"/>
			<point x="444" y="306" type="line"/>
			<point x="467" y="309"/>
			<point x="491" y="310"/>
			<point x="518" y="310" type="curve" smooth="yes"/>
			<point x="549" y="310"/>
			<point x="560" y="327"/>
			<point x="560" y="346" type="curve" smooth="yes"/>
			<point x="560" y="368"/>
			<point x="549" y="374"/>
			<point x="530" y="377" type="curve" smooth="yes"/>
			<point x="415" y="393"/>
			<point x="430" y="541"/>
			<point x="491" y="541" type="curve" smooth="yes"/>
			<point x="520" y="541"/>
			<point x="536" y="517"/>
			<point x="529" y="479" type="curve" smooth="yes"/>
			<point x="524" y="453"/>
			<point x="531" y="442"/>
			<point x="553" y="438" type="curve" smooth="yes"/>
			<point x="574" y="434"/>
			<point x="587" y="440"/>
			<point x="596" y="477" type="curve" smooth="yes"/>
			<point x="615" y="556"/>
			<point x="545" y="603"/>
			<point x="496" y="603" type="curve" smooth="yes"/>
			<point x="464" y="603"/>
			<point x="440" y="595"/>
			<point x="423" y="580" type="curve"/>
			<point x="412" y="593"/>
			<point x="393" y="602"/>
			<point x="364" y="602" type="curve" smooth="yes"/>
			<point x="335" y="602"/>
			<point x="295" y="588"/>
			<point x="257" y="516" type="curve" smooth="yes"/>
			<point x="186" y="379" type="line"/>
			<point x="39" y="380" type="line" smooth="yes"/>
			<point x="20" y="380"/>
			<point x="0" y="367"/>
			<point x="0" y="346" type="curve" smooth="yes"/>
			<point x="0" y="323"/>
			<point x="13" y="311"/>
			<point x="39" y="311" type="curve" smooth="yes"/>
			<point x="151" y="311" type="line"/>
			<point x="27" y="73" type="line"/>
			<point x="11" y="47"/>
			<point x="-11" y="18"/>
			<point x="13" y="-2" type="curve" smooth="yes"/>
			<point x="35" y="-20"/>
			<point x="63" y="-1"/>
			<point x="85" y="35" type="curve"/>
			<point x="223" y="311" type="line"/>
			<point x="280" y="311" type="line"/>
			<point x="236" y="271"/>
			<point x="217" y="213"/>
			<point x="217" y="165" type="curve" smooth="yes"/>
			<point x="217" y="63"/>
			<point x="316" y="-13"/>
			<point x="430" y="-13" type="curve" smooth="yes"/>
			<point x="488" y="-13"/>
			<point x="537" y="-5"/>
			<point x="580" y="17" type="curve"/>
			<point x="599" y="25"/>
			<point x="607" y="50"/>
		</contour>
		<contour>
			<point x="257" y="378" type="line"/>
			<point x="305" y="474" type="line" smooth="yes"/>
			<point x="330" y="524"/>
			<point x="350" y="532"/>
			<point x="361" y="532" type="curve" smooth="yes"/>
			<point x="378" y="532"/>
			<point x="376" y="510"/>
			<point x="376" y="500" type="curve" smooth="yes"/>
			<point x="376" y="377" type="line"/>
		</contour>
		<contour>
			<point x="287" y="165" type="curve" smooth="yes"/>
			<point x="287" y="232"/>
			<point x="319" y="271"/>
			<point x="376" y="291" type="curve"/>
			<point x="375" y="59" type="line"/>
			<point x="367" y="61"/>
			<point x="359" y="64"/>
			<point x="352" y="68" type="curve"/>
			<point x="322" y="92"/>
			<point x="287" y="120"/>
		</contour>
	</outline>
</glyph>
<glyph name="Idieresis" format="2">
	<advance width="600"/>
	<unicode hex="00CF"/>
	<note>
		Idieresis
	</note>
	<outline>
		<contour>
			<point x="321" y="661" type="curve" smooth="yes"/>
			<point x="355" y="661"/>
			<point x="381" y="687"/>
			<point x="381" y="717" type="curve" smooth="yes"/>
			<point x="381" y="754"/>
			<point x="360" y="778"/>
			<point x="321" y="778" type="curve" smooth="yes"/>
			<point x="286" y="778"/>
			<point x="261" y="753"/>
			<point x="261" y="715" type="curve" smooth="yes"/>
			<point x="261" y="686"/>
			<point x="290" y="661"/>
		</contour>
		<contour>
			<point x="520" y="661" type="curve" smooth="yes"/>
			<point x="554" y="661"/>
			<point x="580" y="687"/>
			<point x="580" y="717" type="curve" smooth="yes"/>
			<point x="580" y="754"/>
			<point x="559" y="778"/>
			<point x="520" y="778" type="curve" smooth="yes"/>
			<point x="485" y="778"/>
			<point x="460" y="753"/>
			<point x="460" y="715" type="curve" smooth="yes"/>
			<point x="460" y="686"/>
			<point x="489" y="661"/>
		</contour>
		<contour>
			<point x="460" y="73" type="curve" smooth="yes"/>
			<point x="454" y="80"/>
			<point x="430" y="87"/>
			<point x="415" y="72" type="curve" smooth="yes"/>
			<point x="388" y="45"/>
			<point x="364" y="45"/>
			<point x="344" y="62" type="curve" smooth="yes"/>
			<point x="330" y="74"/>
			<point x="318" y="89"/>
			<point x="334" y="148" type="curve" smooth="yes"/>
			<point x="436" y="531" type="line" smooth="yes"/>
			<point x="443" y="557"/>
			<point x="459" y="604"/>
			<point x="420" y="605" type="curve" smooth="yes"/>
			<point x="419" y="605" type="line" smooth="yes"/>
			<point x="393" y="605"/>
			<point x="383" y="594"/>
			<point x="342" y="557" type="curve" smooth="yes"/>
			<point x="216" y="443" type="line"/>
			<point x="201" y="428"/>
			<point x="175" y="404"/>
			<point x="189" y="381" type="curve" smooth="yes"/>
			<point x="197" y="368"/>
			<point x="211" y="344"/>
			<point x="245" y="374" type="curve" smooth="yes"/>
			<point x="347" y="466" type="line"/>
			<point x="270" y="177" type="line" smooth="yes"/>
			<point x="251" y="105"/>
			<point x="251" y="57"/>
			<point x="294" y="15" type="curve" smooth="yes"/>
			<point x="344" y="-33"/>
			<point x="420" y="-12"/>
			<point x="456" y="24" type="curve" smooth="yes"/>
			<point x="471" y="39"/>
			<point x="471" y="60"/>
		</contour>
	</outline>
</glyph>
<glyph name="Oacute" format="2">
	<advance width="600"/>
	<unicode hex="00D3"/>
	<note>
		Oacute
	</note>
	<outline>
		<contour>
			<point x="549" y="749" type="curve" smooth="yes"/>
			<point x="547" y="759"/>
			<point x="533" y="779"/>
			<point x="510" y="773" type="curve"/>
			<point x="276" y="726" type="line" smooth="yes"/>
			<point x="251" y="721"/>
			<point x="244" y="704"/>
			<point x="246" y="692" type="curve" smooth="yes"/>
			<point x="248" y="678"/>
			<point x="258" y="663"/>
			<point x="286" y="670" type="curve"/>
			<point x="527" y="707" type="line"/>
			<point x="553" y="713"/>
			<point x="552" y="734"/>
		</contour>
		<contour>
			<point x="356" y="464" type="curve" smooth="yes"/>
			<point x="356" y="488"/>
			<point x="318" y="499"/>
			<point x="296" y="499" type="curve" smooth="yes"/>
			<point x="240" y="499"/>
			<point x="165" y="461"/>
			<point x="114" y="405" type="curve" smooth="yes"/>
			<point x="61" y="346"/>
			<point x="29" y="267"/>
			<point x="29" y="187" type="curve" smooth="yes"/>
			<point x="29" y="64"/>
			<point x="108" y="-13"/>
			<point x="231" y="-13" type="curve" smooth="yes"/>
			<point x="414" y="-13"/>
			<point x="563" y="159"/>
			<point x="563" y="351" type="curve" smooth="yes"/>
			<point x="563" y="488"/>
			<point x="503" y="603"/>
			<point x="325" y="603" type="curve" smooth="yes"/>
			<point x="293" y="603"/>
			<point x="275" y="585"/>
			<point x="275" y="568" type="curve" smooth="yes"/>
			<point x="275" y="538"/>
			<point x="305" y="533"/>
			<point x="325" y="533" type="curve" smooth="yes"/>
			<point x="414" y="533"/>
			<point x="493" y="475"/>
			<point x="493" y="351" type="curve" smooth="yes"/>
			<point x="493" y="194"/>
			<point x="384" y="57"/>
			<point x="231" y="57" type="curve" smooth="yes"/>
			<point x="165" y="57"/>
			<point x="99" y="90"/>
			<point x="99" y="187" type="curve" smooth="yes"/>
			<point x="99" y="250"/>
			<point x="133" y="323"/>
			<point x="180" y="369" type="curve" smooth="yes"/>
			<point x="212" y="401"/>
			<point x="258" y="428"/>
			<point x="296" y="429" type="curve" smooth="yes"/>
			<point x="334" y="430"/>
			<point x="356" y="436"/>
		</contour>
	</outline>
</glyph>
<glyph name="Ocircumflex" format="2">
	<advance width="600"/>
	<unicode hex="00D4"/>
	<note>
		Ocircumflex
	</note>
	<outline>
		<contour>
			<point x="183" y="658" type="curve" smooth="yes"/>
			<point x="187" y="645"/>
			<point x="203" y="630"/>
			<point x="223" y="639" type="curve" smooth="yes"/>
			<point x="374" y="708" type="line"/>
			<point x="525" y="639" type="line" smooth="yes"/>
			<point x="545" y="630"/>
			<point x="561" y="645"/>
			<point x="565" y="658" type="curve" smooth="yes"/>
			<point x="570" y="673"/>
			<point x="567" y="695"/>
			<point x="546" y="704" type="curve" smooth="yes"/>
			<point x="374" y="779" type="line"/>
			<point x="202" y="704" type="line" smooth="yes"/>
			<point x="181" y="695"/>
			<point x="178" y="673"/>
		</contour>
		<contour>
			<point x="356" y="464" type="curve" smooth="yes"/>
			<point x="356" y="488"/>
			<point x="318" y="499"/>
			<point x="296" y="499" type="curve" smooth="yes"/>
			<point x="240" y="499"/>
			<point x="165" y="461"/>
			<point x="114" y="405" type="curve" smooth="yes"/>
			<point x="61" y="346"/>
			<point x="29" y="267"/>
			<point x="29" y="187" type="curve" smooth="yes"/>
			<point x="29" y="64"/>
			<point x="108" y="-13"/>
			<point x="231" y="-13" type="curve" smooth="yes"/>
			<point x="414" y="-13"/>
			<point x="563" y="159"/>
			<point x="563" y="351" type="curve" smooth="yes"/>
			<point x="563" y="488"/>
			<point x="503" y="603"/>
			<point x="325" y="603" type="curve" smooth="yes"/>
			<point x="293" y="603"/>
			<point x="275" y="585"/>
			<point x="275" y="568" type="curve" smooth="yes"/>
			<point x="275" y="538"/>
			<point x="305" y="533"/>
			<point x="325" y="533" type="curve" smooth="yes"/>
			<point x="414" y="533"/>
			<point x="493" y="475"/>
			<point x="493" y="351" type="curve" smooth="yes"/>
			<point x="493" y="194"/>
			<point x="384" y="57"/>
			<point x="231" y="57" type="curve" smooth="yes"/>
			<point x="165" y="57"/>
			<point x="99" y="90"/>
			<point x="99" y="187" type="curve" smooth="yes"/>
			<point x="99" y="250"/>
			<point x="133" y="323"/>
			<point x="180" y="369" type="curve" smooth="yes"/>
			<point x="212" y="401"/>
			<point x="258" y="428"/>
			<point x="296" y="429" type="curve" smooth="yes"/>
			<point x="334" y="430"/>
			<point x="356" y="436"/>
		</contour>
	</outline>
</glyph>
<glyph name="Otilde" format="2">
	<advance width="600"/>
	<unicode hex="00D5"/>
	<note>
		Otilde
	</note>
	<outline>
		<contour>
			<point x="438" y="653" type="curve"/>
			<point x="413" y="654"/>
			<point x="390" y="666"/>
			<point x="376" y="679" type="curve" smooth="yes"/>
			<point x="351" y="702"/>
			<point x="340" y="716"/>
			<point x="316" y="716" type="curve" smooth="yes"/>
			<point x="303" y="716"/>
			<point x="278" y="695"/>
			<point x="249" y="663" type="curve" smooth="yes"/>
			<point x="239" y="652"/>
			<point x="216" y="650"/>
			<point x="204" y="663" type="curve"/>
			<point x="195" y="672"/>
			<point x="194" y="690"/>
			<point x="204" y="701" type="curve" smooth="yes"/>
			<point x="248" y="749"/>
			<point x="283" y="774"/>
			<point x="317" y="774" type="curve" smooth="yes"/>
			<point x="340" y="774"/>
			<point x="363" y="764"/>
			<point x="381" y="748" type="curve" smooth="yes"/>
			<point x="404" y="727"/>
			<point x="420" y="712"/>
			<point x="438" y="712" type="curve" smooth="yes"/>
			<point x="461" y="712"/>
			<point x="476" y="729"/>
			<point x="504" y="763" type="curve" smooth="yes"/>
			<point x="513" y="774"/>
			<point x="536" y="777"/>
			<point x="547" y="769" type="curve"/>
			<point x="561" y="758"/>
			<point x="560" y="737"/>
			<point x="551" y="726" type="curve" smooth="yes"/>
			<point x="511" y="677"/>
			<point x="475" y="653"/>
		</contour>
		<contour>
			<point x="356" y="464" type="curve" smooth="yes"/>
			<point x="356" y="488"/>
			<point x="318" y="499"/>
			<point x="296" y="499" type="curve" smooth="yes"/>
			<point x="240" y="499"/>
			<point x="165" y="461"/>
			<point x="114" y="405" type="curve" smooth="yes"/>
			<point x="61" y="346"/>
			<point x="29" y="267"/>
			<point x="29" y="187" type="curve" smooth="yes"/>
			<point x="29" y="64"/>
			<point x="108" y="-13"/>
			<point x="231" y="-13" type="curve" smooth="yes"/>
			<point x="414" y="-13"/>
			<point x="563" y="159"/>
			<point x="563" y="351" type="curve" smooth="yes"/>
			<point x="563" y="488"/>
			<point x="503" y="603"/>
			<point x="325" y="603" type="curve" smooth="yes"/>
			<point x="293" y="603"/>
			<point x="275" y="585"/>
			<point x="275" y="568" type="curve" smooth="yes"/>
			<point x="275" y="538"/>
			<point x="305" y="533"/>
			<point x="325" y="533" type="curve" smooth="yes"/>
			<point x="414" y="533"/>
			<point x="493" y="475"/>
			<point x="493" y="351" type="curve" smooth="yes"/>
			<point x="493" y="194"/>
			<point x="384" y="57"/>
			<point x="231" y="57" type="curve" smooth="yes"/>
			<point x="165" y="57"/>
			<point x="99" y="90"/>
			<point x="99" y="187" type="curve" smooth="yes"/>
			<point x="99" y="250"/>
			<point x="133" y="323"/>
			<point x="180" y="369" type="curve" smooth="yes"/>
			<point x="212" y="401"/>
			<point x="258" y="428"/>
			<point x="296" y="429" type="curve" smooth="yes"/>
			<point x="334" y="430"/>
			<point x="356" y="436"/>
		</contour>
	</outline>
</glyph>
<glyph name="multiply" format="2">
	<advance width="600"/>
	<unicode hex="00D7"/>
	<note>
		multiply
	</note>
	<outline>
		<contour>
			<point x="480" y="112" type="curve" smooth="yes"/>
			<point x="354" y="225" type="line"/>
			<point x="462" y="345" type="line" smooth="yes"/>
			<point x="473" y="358"/>
			<point x="462" y="380"/>
			<point x="452" y="389" type="curve" smooth="yes"/>
			<point x="443" y="397"/>
			<point x="421" y="405"/>
			<point x="410" y="392" type="curve" smooth="yes"/>
			<point x="302" y="272" type="line"/>
			<point x="170" y="391" type="line" smooth="yes"/>
			<point x="157" y="403"/>
			<point x="135" y="392"/>
			<point x="126" y="382" type="curve" smooth="yes"/>
			<point x="118" y="373"/>
			<point x="113" y="348"/>
			<point x="123" y="339" type="curve" smooth="yes"/>
			<point x="255" y="220" type="line"/>
			<point x="145" y="98" type="line" smooth="yes"/>
			<point x="131" y="83"/>
			<point x="138" y="58"/>
			<point x="147" y="50" type="curve" smooth="yes"/>
			<point x="157" y="41"/>
			<point x="183" y="35"/>
			<point x="197" y="51" type="curve" smooth="yes"/>
			<point x="307" y="173" type="line"/>
			<point x="433" y="60" type="line" smooth="yes"/>
			<point x="448" y="46"/>
			<point x="473" y="53"/>
			<point x="481" y="62" type="curve" smooth="yes"/>
			<point x="490" y="72"/>
			<point x="496" y="98"/>
		</contour>
	</outline>
</glyph>
<glyph name="Oslash" format="2">
	<advance width="600"/>
	<unicode hex="00D8"/>
	<note>
		Oslash
	</note>
	<outline>
		<contour>
			<point x="590" y="501" type="curve" smooth="yes"/>
			<point x="573" y="514"/>
			<point x="551" y="512"/>
			<point x="531" y="499" type="curve"/>
			<point x="496" y="561"/>
			<point x="432" y="603"/>
			<point x="325" y="603" type="curve" smooth="yes"/>
			<point x="293" y="603"/>
			<point x="275" y="585"/>
			<point x="275" y="568" type="curve" smooth="yes"/>
			<point x="275" y="538"/>
			<point x="305" y="533"/>
			<point x="325" y="533" type="curve" smooth="yes"/>
			<point x="386" y="533"/>
			<point x="442" y="506"/>
			<point x="471" y="449" type="curve"/>
			<point x="105" y="141" type="line"/>
			<point x="101" y="154"/>
			<point x="99" y="170"/>
			<point x="99" y="187" type="curve" smooth="yes"/>
			<point x="99" y="250"/>
			<point x="133" y="323"/>
			<point x="180" y="369" type="curve" smooth="yes"/>
			<point x="212" y="401"/>
			<point x="258" y="428"/>
			<point x="296" y="429" type="curve" smooth="yes"/>
			<point x="334" y="430"/>
			<point x="356" y="436"/>
			<point x="356" y="464" type="curve" smooth="yes"/>
			<point x="356" y="488"/>
			<point x="318" y="499"/>
			<point x="296" y="499" type="curve" smooth="yes"/>
			<point x="240" y="499"/>
			<point x="165" y="461"/>
			<point x="114" y="405" type="curve" smooth="yes"/>
			<point x="61" y="346"/>
			<point x="29" y="267"/>
			<point x="29" y="187" type="curve" smooth="yes"/>
			<point x="29" y="151"/>
			<point x="36" y="120"/>
			<point x="48" y="93" type="curve"/>
			<point x="15" y="65" type="line" smooth="yes"/>
			<point x="-2" y="50"/>
			<point x="-4" y="30"/>
			<point x="11" y="15" type="curve" smooth="yes"/>
			<point x="26" y="0"/>
			<point x="56" y="1"/>
			<point x="75" y="18" type="curve"/>
			<point x="93" y="33" type="line"/>
			<point x="127" y="3"/>
			<point x="174" y="-13"/>
			<point x="231" y="-13" type="curve" smooth="yes"/>
			<point x="414" y="-13"/>
			<point x="563" y="159"/>
			<point x="563" y="351" type="curve" smooth="yes"/>
			<point x="563" y="377"/>
			<point x="561" y="402"/>
			<point x="556" y="425" type="curve"/>
			<point x="581" y="446" type="line" smooth="yes"/>
			<point x="598" y="460"/>
			<point x="611" y="485"/>
		</contour>
		<contour>
			<point x="493" y="351" type="curve" smooth="yes"/>
			<point x="493" y="194"/>
			<point x="384" y="57"/>
			<point x="231" y="57" type="curve" smooth="yes"/>
			<point x="201" y="57"/>
			<point x="172" y="64"/>
			<point x="148" y="80" type="curve"/>
			<point x="492" y="371" type="line"/>
			<point x="493" y="365"/>
			<point x="493" y="358"/>
		</contour>
	</outline>
</glyph>
<glyph name="Uacute" format="2">
	<advance width="600"/>
	<unicode hex="00DA"/>
	<note>
		Uacute
	</note>
	<outline>
		<contour>
			<point x="583" y="737" type="curve" smooth="yes"/>
			<point x="581" y="747"/>
			<point x="567" y="767"/>
			<point x="544" y="761" type="curve"/>
			<point x="310" y="714" type="line" smooth="yes"/>
			<point x="285" y="709"/>
			<point x="278" y="692"/>
			<point x="280" y="680" type="curve" smooth="yes"/>
			<point x="282" y="666"/>
			<point x="292" y="651"/>
			<point x="320" y="658" type="curve"/>
			<point x="561" y="695" type="line"/>
			<point x="587" y="701"/>
			<point x="586" y="722"/>
		</contour>
		<contour>
			<point x="578" y="593" type="curve" smooth="yes"/>
			<point x="547" y="599"/>
			<point x="530" y="568"/>
			<point x="518" y="525" type="curve" smooth="yes"/>
			<point x="434" y="224"/>
			<point x="265" y="53"/>
			<point x="204" y="53" type="curve" smooth="yes"/>
			<point x="161" y="53"/>
			<point x="183" y="162"/>
			<point x="214" y="273" type="curve" smooth="yes"/>
			<point x="289" y="541" type="line" smooth="yes"/>
			<point x="296" y="567"/>
			<point x="281" y="588"/>
			<point x="254" y="593" type="curve" smooth="yes"/>
			<point x="232" y="597"/>
			<point x="209" y="582"/>
			<point x="188" y="565" type="curve" smooth="yes"/>
			<point x="121" y="511"/>
			<point x="78" y="472"/>
			<point x="39" y="439" type="curve" smooth="yes"/>
			<point x="26" y="428"/>
			<point x="25" y="397"/>
			<point x="42" y="386" type="curve" smooth="yes"/>
			<point x="54" y="378"/>
			<point x="64" y="377"/>
			<point x="82" y="392" type="curve" smooth="yes"/>
			<point x="118" y="422"/>
			<point x="167" y="464"/>
			<point x="200" y="492" type="curve"/>
			<point x="160" y="352" type="line"/>
			<point x="161" y="352" type="line"/>
			<point x="131" y="246" type="line" smooth="yes"/>
			<point x="96" y="122"/>
			<point x="87" y="-22"/>
			<point x="194" y="-22" type="curve" smooth="yes"/>
			<point x="231" y="-22"/>
			<point x="318" y="12"/>
			<point x="408" y="126" type="curve"/>
			<point x="379" y="28" type="line" smooth="yes"/>
			<point x="370" y="-2"/>
			<point x="375" y="-19"/>
			<point x="400" y="-22" type="curve" smooth="yes"/>
			<point x="417" y="-24"/>
			<point x="442" y="-19"/>
			<point x="450" y="14" type="curve"/>
			<point x="582" y="485" type="line" smooth="yes"/>
			<point x="586" y="500"/>
			<point x="591" y="516"/>
			<point x="595" y="532" type="curve" smooth="yes"/>
			<point x="604" y="566"/>
			<point x="604" y="588"/>
		</contour>
	</outline>
</glyph>
<glyph name="Yacute" format="2">
	<advance width="600"/>
	<unicode hex="00DD"/>
	<note>
		Yacute
	</note>
	<outline>
		<contour>
			<point x="577" y="751" type="curve" smooth="yes"/>
			<point x="575" y="761"/>
			<point x="561" y="781"/>
			<point x="538" y="775" type="curve"/>
			<point x="304" y="728" type="line" smooth="yes"/>
			<point x="279" y="723"/>
			<point x="272" y="706"/>
			<point x="274" y="694" type="curve" smooth="yes"/>
			<point x="276" y="680"/>
			<point x="286" y="665"/>
			<point x="314" y="672" type="curve"/>
			<point x="555" y="709" type="line"/>
			<point x="581" y="715"/>
			<point x="580" y="736"/>
		</contour>
		<contour>
			<point x="573" y="604" type="curve" smooth="yes"/>
			<point x="550" y="604"/>
			<point x="530" y="591"/>
			<point x="517" y="543" type="curve"/>
			<point x="442" y="341"/>
			<point x="307" y="161"/>
			<point x="231" y="161" type="curve" smooth="yes"/>
			<point x="193" y="161"/>
			<point x="206" y="245"/>
			<point x="230" y="341" type="curve" smooth="yes"/>
			<point x="289" y="551" type="line" smooth="yes"/>
			<point x="296" y="577"/>
			<point x="281" y="598"/>
			<point x="254" y="603" type="curve" smooth="yes"/>
			<point x="232" y="607"/>
			<point x="209" y="592"/>
			<point x="188" y="575" type="curve" smooth="yes"/>
			<point x="121" y="521"/>
			<point x="78" y="482"/>
			<point x="39" y="449" type="curve" smooth="yes"/>
			<point x="26" y="438"/>
			<point x="25" y="407"/>
			<point x="42" y="396" type="curve" smooth="yes"/>
			<point x="54" y="388"/>
			<point x="64" y="387"/>
			<point x="82" y="402" type="curve" smooth="yes"/>
			<point x="118" y="432"/>
			<point x="167" y="474"/>
			<point x="200" y="502" type="curve"/>
			<point x="160" y="362" type="line"/>
			<point x="158" y="354" type="line" smooth="yes"/>
			<point x="123" y="230"/>
			<point x="114" y="86"/>
			<point x="221" y="86" type="curve" smooth="yes"/>
			<point x="257" y="86"/>
			<point x="346" y="120"/>
			<point x="437" y="233" type="curve"/>
			<point x="394" y="70" type="line"/>
			<point x="219" y="61"/>
			<point x="71" y="26"/>
			<point x="52" y="-48" type="curve" smooth="yes"/>
			<point x="32" y="-124"/>
			<point x="82" y="-173"/>
			<point x="178" y="-173" type="curve" smooth="yes"/>
			<point x="263" y="-173"/>
			<point x="420" y="-141"/>
			<point x="454" y="3" type="curve"/>
			<point x="500" y="8" type="line" smooth="yes"/>
			<point x="520" y="10"/>
			<point x="546" y="10"/>
			<point x="546" y="42" type="curve" smooth="yes"/>
			<point x="546" y="57"/>
			<point x="529" y="72"/>
			<point x="494" y="72" type="curve" smooth="yes"/>
			<point x="473" y="72" type="line"/>
			<point x="595" y="543" type="line" smooth="yes"/>
			<point x="608" y="591"/>
			<point x="596" y="604"/>
		</contour>
		<contour>
			<point x="179" y="-105" type="curve" smooth="yes"/>
			<point x="137" y="-105"/>
			<point x="112" y="-94"/>
			<point x="121" y="-60" type="curve" smooth="yes"/>
			<point x="135" y="-7"/>
			<point x="360" y="0"/>
			<point x="376" y="0" type="curve"/>
			<point x="347" y="-112"/>
			<point x="215" y="-105"/>
		</contour>
	</outline>
</glyph>
<glyph name="germandbls" format="2">
	<advance width="600"/>
	<unicode hex="00DF"/>
	<note>
		germandbls
	</note>
	<outline>
		<contour>
			<point x="440" y="309" type="curve"/>
			<point x="523" y="344"/>
			<point x="574" y="406"/>
			<point x="574" y="476" type="curve" smooth="yes"/>
			<point x="574" y="554"/>
			<point x="533" y="604"/>
			<point x="442" y="604" type="curve" smooth="yes"/>
			<point x="316" y="604"/>
			<point x="175" y="505"/>
			<point x="101" y="212" type="curve" smooth="yes"/>
			<point x="56" y="45" type="line" smooth="yes"/>
			<point x="49" y="18"/>
			<point x="56" y="-13"/>
			<point x="85" y="-13" type="curve" smooth="yes"/>
			<point x="118" y="-13"/>
			<point x="125" y="12"/>
			<point x="134" y="49" type="curve" smooth="yes"/>
			<point x="179" y="228" type="line" smooth="yes"/>
			<point x="231" y="429"/>
			<point x="347" y="534"/>
			<point x="442" y="534" type="curve" smooth="yes"/>
			<point x="488" y="534"/>
			<point x="504" y="515"/>
			<point x="504" y="476" type="curve" smooth="yes"/>
			<point x="504" y="435"/>
			<point x="469" y="394"/>
			<point x="388" y="358" type="curve" smooth="yes"/>
			<point x="369" y="349"/>
			<point x="328" y="333"/>
			<point x="328" y="311" type="curve" smooth="yes"/>
			<point x="328" y="287"/>
			<point x="357" y="279"/>
			<point x="378" y="269" type="curve" smooth="yes"/>
			<point x="441" y="239"/>
			<point x="471" y="212"/>
			<point x="471" y="162" type="curve" smooth="yes"/>
			<point x="471" y="104"/>
			<point x="425" y="54"/>
			<point x="348" y="54" type="curve" smooth="yes"/>
			<point x="280" y="54"/>
			<point x="254" y="114"/>
			<point x="218" y="62" type="curve" smooth="yes"/>
			<point x="189" y="20"/>
			<point x="280" y="-16"/>
			<point x="347" y="-16" type="curve" smooth="yes"/>
			<point x="469" y="-16"/>
			<point x="541" y="75"/>
			<point x="541" y="162" type="curve" smooth="yes"/>
			<point x="541" y="226"/>
			<point x="499" y="278"/>
		</contour>
	</outline>
</glyph>
<glyph name="atilde" format="2">
	<advance width="600"/>
	<unicode hex="00E3"/>
	<note>
		atilde
	</note>
	<outline>
		<contour>
			<point x="379" y="493" type="curve"/>
			<point x="354" y="494"/>
			<point x="331" y="506"/>
			<point x="317" y="519" type="curve" smooth="yes"/>
			<point x="292" y="542"/>
			<point x="281" y="556"/>
			<point x="257" y="556" type="curve" smooth="yes"/>
			<point x="244" y="556"/>
			<point x="219" y="535"/>
			<point x="190" y="503" type="curve" smooth="yes"/>
			<point x="180" y="492"/>
			<point x="157" y="490"/>
			<point x="145" y="503" type="curve"/>
			<point x="136" y="512"/>
			<point x="135" y="530"/>
			<point x="145" y="541" type="curve" smooth="yes"/>
			<point x="189" y="589"/>
			<point x="224" y="614"/>
			<point x="258" y="614" type="curve" smooth="yes"/>
			<point x="281" y="614"/>
			<point x="304" y="604"/>
			<point x="322" y="588" type="curve" smooth="yes"/>
			<point x="345" y="567"/>
			<point x="361" y="552"/>
			<point x="379" y="552" type="curve" smooth="yes"/>
			<point x="402" y="552"/>
			<point x="417" y="569"/>
			<point x="445" y="603" type="curve" smooth="yes"/>
			<point x="454" y="614"/>
			<point x="477" y="617"/>
			<point x="488" y="609" type="curve"/>
			<point x="502" y="598"/>
			<point x="501" y="577"/>
			<point x="492" y="566" type="curve" smooth="yes"/>
			<point x="452" y="517"/>
			<point x="416" y="493"/>
		</contour>
		<contour>
			<point x="31" y="100" type="curve" smooth="yes"/>
			<point x="31" y="34"/>
			<point x="56" y="-12"/>
			<point x="120" y="-12" type="curve" smooth="yes"/>
			<point x="179" y="-12"/>
			<point x="288" y="126"/>
			<point x="390" y="245" type="curve"/>
			<point x="357" y="58" type="line" smooth="yes"/>
			<point x="349" y="14"/>
			<point x="355" y="-13"/>
			<point x="391" y="-13" type="curve" smooth="yes"/>
			<point x="427" y="-13"/>
			<point x="443" y="-1"/>
			<point x="485" y="35" type="curve" smooth="yes"/>
			<point x="720" y="236" type="line" smooth="yes"/>
			<point x="740" y="254"/>
			<point x="752" y="273"/>
			<point x="742" y="292" type="curve" smooth="yes"/>
			<point x="733" y="309"/>
			<point x="712" y="310"/>
			<point x="694" y="295" type="curve" smooth="yes"/>
			<point x="434" y="74" type="line"/>
			<point x="476" y="297" type="line" smooth="yes"/>
			<point x="481" y="324"/>
			<point x="465" y="345"/>
			<point x="439" y="345" type="curve" smooth="yes"/>
			<point x="416" y="345"/>
			<point x="395" y="334"/>
			<point x="384" y="322" type="curve" smooth="yes"/>
			<point x="197" y="119"/>
			<point x="147" y="58"/>
			<point x="120" y="58" type="curve" smooth="yes"/>
			<point x="107" y="58"/>
			<point x="102" y="76"/>
			<point x="102" y="100" type="curve" smooth="yes"/>
			<point x="102" y="243"/>
			<point x="212" y="372"/>
			<point x="379" y="372" type="curve" smooth="yes"/>
			<point x="424" y="372"/>
			<point x="455" y="363"/>
			<point x="481" y="353" type="curve" smooth="yes"/>
			<point x="491" y="349"/>
			<point x="511" y="351"/>
			<point x="520" y="365" type="curve" smooth="yes"/>
			<point x="530" y="380"/>
			<point x="529" y="403"/>
			<point x="518" y="412" type="curve"/>
			<point x="486" y="436"/>
			<point x="447" y="443"/>
			<point x="380" y="443" type="curve" smooth="yes"/>
			<point x="155" y="443"/>
			<point x="31" y="270"/>
		</contour>
	</outline>
</glyph>
<glyph name="adieresis" format="2">
	<advance width="600"/>
	<unicode hex="00E4"/>
	<note>
		adieresis
	</note>
	<outline>
		<contour>
			<point x="217" y="497" type="curve" smooth="yes"/>
			<point x="251" y="497"/>
			<point x="277" y="523"/>
			<point x="277" y="553" type="curve" smooth="yes"/>
			<point x="277" y="590"/>
			<point x="256" y="614"/>
			<point x="217" y="614" type="curve" smooth="yes"/>
			<point x="182" y="614"/>
			<point x="157" y="589"/>
			<point x="157" y="551" type="curve" smooth="yes"/>
			<point x="157" y="522"/>
			<point x="186" y="497"/>
		</contour>
		<contour>
			<point x="416" y="497" type="curve" smooth="yes"/>
			<point x="450" y="497"/>
			<point x="476" y="523"/>
			<point x="476" y="553" type="curve" smooth="yes"/>
			<point x="476" y="590"/>
			<point x="455" y="614"/>
			<point x="416" y="614" type="curve" smooth="yes"/>
			<point x="381" y="614"/>
			<point x="356" y="589"/>
			<point x="356" y="551" type="curve" smooth="yes"/>
			<point x="356" y="522"/>
			<point x="385" y="497"/>
		</contour>
		<contour>
			<point x="31" y="100" type="curve" smooth="yes"/>
			<point x="31" y="34"/>
			<point x="56" y="-12"/>
			<point x="120" y="-12" type="curve" smooth="yes"/>
			<point x="179" y="-12"/>
			<point x="288" y="126"/>
			<point x="390" y="245" type="curve"/>
			<point x="357" y="58" type="line" smooth="yes"/>
			<point x="349" y="14"/>
			<point x="355" y="-13"/>
			<point x="391" y="-13" type="curve" smooth="yes"/>
			<point x="427" y="-13"/>
			<point x="443" y="-1"/>
			<point x="485" y="35" type="curve" smooth="yes"/>
			<point x="720" y="236" type="line" smooth="yes"/>
			<point x="740" y="254"/>
			<point x="752" y="273"/>
			<point x="742" y="292" type="curve" smooth="yes"/>
			<point x="733" y="309"/>
			<point x="712" y="310"/>
			<point x="694" y="295" type="curve" smooth="yes"/>
			<point x="434" y="74" type="line"/>
			<point x="476" y="297" type="line" smooth="yes"/>
			<point x="481" y="324"/>
			<point x="465" y="345"/>
			<point x="439" y="345" type="curve" smooth="yes"/>
			<point x="416" y="345"/>
			<point x="395" y="334"/>
			<point x="384" y="322" type="curve" smooth="yes"/>
			<point x="197" y="119"/>
			<point x="147" y="58"/>
			<point x="120" y="58" type="curve" smooth="yes"/>
			<point x="107" y="58"/>
			<point x="102" y="76"/>
			<point x="102" y="100" type="curve" smooth="yes"/>
			<point x="102" y="243"/>
			<point x="212" y="372"/>
			<point x="379" y="372" type="curve" smooth="yes"/>
			<point x="424" y="372"/>
			<point x="455" y="363"/>
			<point x="481" y="353" type="curve" smooth="yes"/>
			<point x="491" y="349"/>
			<point x="511" y="351"/>
			<point x="520" y="365" type="curve" smooth="yes"/>
			<point x="530" y="380"/>
			<point x="529" y="403"/>
			<point x="518" y="412" type="curve"/>
			<point x="486" y="436"/>
			<point x="447" y="443"/>
			<point x="380" y="443" type="curve" smooth="yes"/>
			<point x="155" y="443"/>
			<point x="31" y="270"/>
		</contour>
	</outline>
</glyph>
<glyph name="ae" format="2">
	<advance width="600"/>
	<unicode hex="00E6"/>
	<note>
		ae
	</note>
	<outline>
		<contour>
			<point x="742" y="292" type="curve" smooth="yes"/>
			<point x="733" y="309"/>
			<point x="712" y="310"/>
			<point x="694" y="295" type="curve" smooth="yes"/>
			<point x="604" y="218" type="line" smooth="yes"/>
			<point x="472" y="105"/>
			<point x="415" y="50"/>
			<point x="348" y="50" type="curve" smooth="yes"/>
			<point x="299" y="50"/>
			<point x="289" y="87"/>
			<point x="319" y="193" type="curve"/>
			<point x="480" y="193"/>
			<point x="568" y="253"/>
			<point x="590" y="338" type="curve" smooth="yes"/>
			<point x="602" y="385"/>
			<point x="590" y="443"/>
			<point x="487" y="443" type="curve" smooth="yes"/>
			<point x="418" y="443"/>
			<point x="366" y="411"/>
			<point x="327" y="360" type="curve" smooth="yes"/>
			<point x="268" y="277"/>
			<point x="175" y="132"/>
			<point x="132" y="77" type="curve" smooth="yes"/>
			<point x="112" y="53"/>
			<point x="101" y="45"/>
			<point x="89" y="79" type="curve" smooth="yes"/>
			<point x="50" y="188"/>
			<point x="73" y="323"/>
			<point x="185" y="363" type="curve" smooth="yes"/>
			<point x="216" y="374"/>
			<point x="241" y="373"/>
			<point x="264" y="373" type="curve"/>
			<point x="282" y="374"/>
			<point x="301" y="378"/>
			<point x="307" y="408" type="curve" smooth="yes"/>
			<point x="311" y="426"/>
			<point x="290" y="439"/>
			<point x="274" y="441" type="curve"/>
			<point x="245" y="443"/>
			<point x="212" y="446"/>
			<point x="161" y="428" type="curve" smooth="yes"/>
			<point x="-10" y="368"/>
			<point x="-23" y="182"/>
			<point x="23" y="54" type="curve" smooth="yes"/>
			<point x="44" y="-4"/>
			<point x="87" y="-25"/>
			<point x="133" y="-9" type="curve" smooth="yes"/>
			<point x="152" y="-2"/>
			<point x="183" y="42"/>
			<point x="228" y="110" type="curve"/>
			<point x="229" y="88"/>
			<point x="232" y="67"/>
			<point x="240" y="47" type="curve" smooth="yes"/>
			<point x="250" y="22"/>
			<point x="284" y="-14"/>
			<point x="343" y="-14" type="curve" smooth="yes"/>
			<point x="426" y="-14"/>
			<point x="492" y="34"/>
			<point x="626" y="156" type="curve" smooth="yes"/>
			<point x="720" y="236" type="line" smooth="yes"/>
			<point x="739" y="252"/>
			<point x="752" y="273"/>
		</contour>
		<contour>
			<point x="469" y="382" type="curve" smooth="yes"/>
			<point x="509" y="382"/>
			<point x="530" y="378"/>
			<point x="520" y="338" type="curve" smooth="yes"/>
			<point x="507" y="285"/>
			<point x="430" y="259"/>
			<point x="333" y="261" type="curve"/>
			<point x="333" y="263" type="line"/>
			<point x="373" y="338"/>
			<point x="409" y="382"/>
		</contour>
	</outline>
</glyph>
<glyph name="ccedilla" format="2">
	<advance width="600"/>
	<unicode hex="00E7"/>
	<note>
		ccedilla
	</note>
	<outline>
		<contour>
			<point x="742" y="292" type="curve" smooth="yes"/>
			<point x="733" y="309"/>
			<point x="712" y="310"/>
			<point x="694" y="295" type="curve" smooth="yes"/>
			<point x="604" y="218" type="line" smooth="yes"/>
			<point x="484" y="116"/>
			<point x="352" y="51"/>
			<point x="243" y="51" type="curve" smooth="yes"/>
			<point x="152" y="51"/>
			<point x="119" y="84"/>
			<point x="119" y="166" type="curve" smooth="yes"/>
			<point x="119" y="258"/>
			<point x="240" y="383"/>
			<point x="340" y="383" type="curve" smooth="yes"/>
			<point x="420" y="383"/>
			<point x="405" y="297"/>
			<point x="335" y="241" type="curve" smooth="yes"/>
			<point x="318" y="227"/>
			<point x="320" y="205"/>
			<point x="335" y="194" type="curve" smooth="yes"/>
			<point x="353" y="181"/>
			<point x="379" y="191"/>
			<point x="405" y="213" type="curve" smooth="yes"/>
			<point x="508" y="301"/>
			<point x="481" y="444"/>
			<point x="338" y="444" type="curve" smooth="yes"/>
			<point x="202" y="444"/>
			<point x="50" y="293"/>
			<point x="50" y="162" type="curve" smooth="yes"/>
			<point x="50" y="39"/>
			<point x="103" y="0"/>
			<point x="183" y="-10" type="curve"/>
			<point x="170" y="-54" type="line"/>
			<point x="219" y="-72"/>
			<point x="253" y="-81"/>
			<point x="253" y="-98" type="curve" smooth="yes"/>
			<point x="253" y="-139"/>
			<point x="195" y="-128"/>
			<point x="130" y="-81" type="curve" smooth="yes"/>
			<point x="118" y="-72"/>
			<point x="98" y="-77"/>
			<point x="90" y="-89" type="curve"/>
			<point x="83" y="-103"/>
			<point x="86" y="-120"/>
			<point x="98" y="-128" type="curve" smooth="yes"/>
			<point x="142" y="-158"/>
			<point x="182" y="-174"/>
			<point x="219" y="-174" type="curve" smooth="yes"/>
			<point x="258" y="-174"/>
			<point x="306" y="-146"/>
			<point x="306" y="-98" type="curve" smooth="yes"/>
			<point x="306" y="-61"/>
			<point x="286" y="-48"/>
			<point x="237" y="-21" type="curve"/>
			<point x="239" y="-13" type="line"/>
			<point x="376" y="-13"/>
			<point x="496" y="46"/>
			<point x="637" y="165" type="curve" smooth="yes"/>
			<point x="710" y="227" type="line"/>
			<point x="720" y="236" type="line" smooth="yes"/>
			<point x="739" y="252"/>
			<point x="752" y="273"/>
		</contour>
	</outline>
</glyph>
<glyph name="eacute" format="2">
	<advance width="600"/>
	<unicode hex="00E9"/>
	<note>
		eacute
	</note>
	<outline>
		<contour>
			<point x="509" y="578" type="curve" smooth="yes"/>
			<point x="507" y="588"/>
			<point x="493" y="608"/>
			<point x="470" y="602" type="curve"/>
			<point x="236" y="555" type="line" smooth="yes"/>
			<point x="211" y="550"/>
			<point x="204" y="533"/>
			<point x="206" y="521" type="curve" smooth="yes"/>
			<point x="208" y="507"/>
			<point x="218" y="492"/>
			<point x="246" y="499" type="curve"/>
			<point x="487" y="536" type="line"/>
			<point x="513" y="542"/>
			<point x="512" y="563"/>
		</contour>
		<contour>
			<point x="742" y="292" type="curve" smooth="yes"/>
			<point x="733" y="309"/>
			<point x="712" y="310"/>
			<point x="694" y="295" type="curve" smooth="yes"/>
			<point x="604" y="218" type="line" smooth="yes"/>
			<point x="472" y="105"/>
			<point x="346" y="48"/>
			<point x="241" y="51" type="curve" smooth="yes"/>
			<point x="159" y="53"/>
			<point x="125" y="81"/>
			<point x="125" y="166" type="curve" smooth="yes"/>
			<point x="125" y="173"/>
			<point x="125" y="180"/>
			<point x="126" y="187" type="curve"/>
			<point x="317" y="187"/>
			<point x="471" y="258"/>
			<point x="471" y="346" type="curve" smooth="yes"/>
			<point x="471" y="407"/>
			<point x="437" y="444"/>
			<point x="352" y="444" type="curve" smooth="yes"/>
			<point x="213" y="444"/>
			<point x="51" y="322"/>
			<point x="51" y="162" type="curve" smooth="yes"/>
			<point x="51" y="11"/>
			<point x="136" y="-13"/>
			<point x="236" y="-13" type="curve" smooth="yes"/>
			<point x="352" y="-13"/>
			<point x="483" y="34"/>
			<point x="626" y="156" type="curve" smooth="yes"/>
			<point x="720" y="236" type="line" smooth="yes"/>
			<point x="739" y="252"/>
			<point x="752" y="273"/>
		</contour>
		<contour>
			<point x="334" y="383" type="curve" smooth="yes"/>
			<point x="374" y="383"/>
			<point x="391" y="372"/>
			<point x="391" y="344" type="curve" smooth="yes"/>
			<point x="391" y="290"/>
			<point x="280" y="252"/>
			<point x="148" y="252" type="curve"/>
			<point x="188" y="328"/>
			<point x="274" y="383"/>
		</contour>
	</outline>
</glyph>
<glyph name="ecircumflex" format="2">
	<advance width="600"/>
	<unicode hex="00EA"/>
	<note>
		ecircumflex
	</note>
	<outline>
		<contour>
			<point x="143" y="487" type="curve" smooth="yes"/>
			<point x="147" y="474"/>
			<point x="163" y="459"/>
			<point x="183" y="468" type="curve" smooth="yes"/>
			<point x="334" y="537" type="line"/>
			<point x="485" y="468" type="line" smooth="yes"/>
			<point x="505" y="459"/>
			<point x="521" y="474"/>
			<point x="525" y="487" type="curve" smooth="yes"/>
			<point x="530" y="502"/>
			<point x="527" y="524"/>
			<point x="506" y="533" type="curve" smooth="yes"/>
			<point x="334" y="608" type="line"/>
			<point x="162" y="533" type="line" smooth="yes"/>
			<point x="141" y="524"/>
			<point x="138" y="502"/>
		</contour>
		<contour>
			<point x="742" y="292" type="curve" smooth="yes"/>
			<point x="733" y="309"/>
			<point x="712" y="310"/>
			<point x="694" y="295" type="curve" smooth="yes"/>
			<point x="604" y="218" type="line" smooth="yes"/>
			<point x="472" y="105"/>
			<point x="346" y="48"/>
			<point x="241" y="51" type="curve" smooth="yes"/>
			<point x="159" y="53"/>
			<point x="125" y="81"/>
			<point x="125" y="166" type="curve" smooth="yes"/>
			<point x="125" y="173"/>
			<point x="125" y="180"/>
			<point x="126" y="187" type="curve"/>
			<point x="317" y="187"/>
			<point x="471" y="258"/>
			<point x="471" y="346" type="curve" smooth="yes"/>
			<point x="471" y="407"/>
			<point x="437" y="444"/>
			<point x="352" y="444" type="curve" smooth="yes"/>
			<point x="213" y="444"/>
			<point x="51" y="322"/>
			<point x="51" y="162" type="curve" smooth="yes"/>
			<point x="51" y="11"/>
			<point x="136" y="-13"/>
			<point x="236" y="-13" type="curve" smooth="yes"/>
			<point x="352" y="-13"/>
			<point x="483" y="34"/>
			<point x="626" y="156" type="curve" smooth="yes"/>
			<point x="720" y="236" type="line" smooth="yes"/>
			<point x="739" y="252"/>
			<point x="752" y="273"/>
		</contour>
		<contour>
			<point x="334" y="383" type="curve" smooth="yes"/>
			<point x="374" y="383"/>
			<point x="391" y="372"/>
			<point x="391" y="344" type="curve" smooth="yes"/>
			<point x="391" y="290"/>
			<point x="280" y="252"/>
			<point x="148" y="252" type="curve"/>
			<point x="188" y="328"/>
			<point x="274" y="383"/>
		</contour>
	</outline>
</glyph>
<glyph name="edieresis" format="2">
	<advance width="600"/>
	<unicode hex="00EB"/>
	<note>
		edieresis
	</note>
	<outline>
		<contour>
			<point x="236" y="486" type="curve" smooth="yes"/>
			<point x="270" y="486"/>
			<point x="296" y="512"/>
			<point x="296" y="542" type="curve" smooth="yes"/>
			<point x="296" y="579"/>
			<point x="275" y="603"/>
			<point x="236" y="603" type="curve" smooth="yes"/>
			<point x="201" y="603"/>
			<point x="176" y="578"/>
			<point x="176" y="540" type="curve" smooth="yes"/>
			<point x="176" y="511"/>
			<point x="205" y="486"/>
		</contour>
		<contour>
			<point x="435" y="486" type="curve" smooth="yes"/>
			<point x="469" y="486"/>
			<point x="495" y="512"/>
			<point x="495" y="542" type="curve" smooth="yes"/>
			<point x="495" y="579"/>
			<point x="474" y="603"/>
			<point x="435" y="603" type="curve" smooth="yes"/>
			<point x="400" y="603"/>
			<point x="375" y="578"/>
			<point x="375" y="540" type="curve" smooth="yes"/>
			<point x="375" y="511"/>
			<point x="404" y="486"/>
		</contour>
		<contour>
			<point x="742" y="292" type="curve" smooth="yes"/>
			<point x="733" y="309"/>
			<point x="712" y="310"/>
			<point x="694" y="295" type="curve" smooth="yes"/>
			<point x="604" y="218" type="line" smooth="yes"/>
			<point x="472" y="105"/>
			<point x="346" y="48"/>
			<point x="241" y="51" type="curve" smooth="yes"/>
			<point x="159" y="53"/>
			<point x="125" y="81"/>
			<point x="125" y="166" type="curve" smooth="yes"/>
			<point x="125" y="173"/>
			<point x="125" y="180"/>
			<point x="126" y="187" type="curve"/>
			<point x="317" y="187"/>
			<point x="471" y="258"/>
			<point x="471" y="346" type="curve" smooth="yes"/>
			<point x="471" y="407"/>
			<point x="437" y="444"/>
			<point x="352" y="444" type="curve" smooth="yes"/>
			<point x="213" y="444"/>
			<point x="51" y="322"/>
			<point x="51" y="162" type="curve" smooth="yes"/>
			<point x="51" y="11"/>
			<point x="136" y="-13"/>
			<point x="236" y="-13" type="curve" smooth="yes"/>
			<point x="352" y="-13"/>
			<point x="483" y="34"/>
			<point x="626" y="156" type="curve" smooth="yes"/>
			<point x="720" y="236" type="line" smooth="yes"/>
			<point x="739" y="252"/>
			<point x="752" y="273"/>
		</contour>
		<contour>
			<point x="334" y="383" type="curve" smooth="yes"/>
			<point x="374" y="383"/>
			<point x="391" y="372"/>
			<point x="391" y="344" type="curve" smooth="yes"/>
			<point x="391" y="290"/>
			<point x="280" y="252"/>
			<point x="148" y="252" type="curve"/>
			<point x="188" y="328"/>
			<point x="274" y="383"/>
		</contour>
	</outline>
</glyph>
<glyph name="iacute" format="2">
	<advance width="600"/>
	<unicode hex="00ED"/>
	<note>
		iacute
	</note>
	<outline>
		<contour>
			<point x="501" y="578" type="curve" smooth="yes"/>
			<point x="499" y="588"/>
			<point x="485" y="608"/>
			<point x="462" y="602" type="curve"/>
			<point x="228" y="555" type="line" smooth="yes"/>
			<point x="203" y="550"/>
			<point x="196" y="533"/>
			<point x="198" y="521" type="curve" smooth="yes"/>
			<point x="200" y="507"/>
			<point x="210" y="492"/>
			<point x="238" y="499" type="curve"/>
			<point x="479" y="536" type="line"/>
			<point x="505" y="542"/>
			<point x="504" y="563"/>
		</contour>
		<contour>
			<point x="239" y="419" type="curve" smooth="yes"/>
			<point x="74" y="278" type="line"/>
			<point x="36" y="243"/>
			<point x="76" y="199"/>
			<point x="112" y="229" type="curve" smooth="yes"/>
			<point x="258" y="354" type="line" smooth="yes"/>
			<point x="274" y="368"/>
			<point x="282" y="374"/>
			<point x="292" y="374" type="curve" smooth="yes"/>
			<point x="309" y="374"/>
			<point x="316" y="360"/>
			<point x="310" y="336" type="curve" smooth="yes"/>
			<point x="256" y="110" type="line" smooth="yes"/>
			<point x="238" y="35"/>
			<point x="287" y="-13"/>
			<point x="359" y="-13" type="curve" smooth="yes"/>
			<point x="399" y="-13"/>
			<point x="446" y="2"/>
			<point x="485" y="35" type="curve" smooth="yes"/>
			<point x="720" y="236" type="line" smooth="yes"/>
			<point x="740" y="254"/>
			<point x="752" y="273"/>
			<point x="742" y="292" type="curve" smooth="yes"/>
			<point x="733" y="309"/>
			<point x="712" y="310"/>
			<point x="694" y="295" type="curve" smooth="yes"/>
			<point x="607" y="221"/>
			<point x="522" y="148"/>
			<point x="436" y="74" type="curve" smooth="yes"/>
			<point x="415" y="56"/>
			<point x="388" y="48"/>
			<point x="371" y="48" type="curve" smooth="yes"/>
			<point x="337" y="48"/>
			<point x="311" y="70"/>
			<point x="325" y="127" type="curve" smooth="yes"/>
			<point x="378" y="346" type="line" smooth="yes"/>
			<point x="391" y="399"/>
			<point x="353" y="444"/>
			<point x="299" y="444" type="curve" smooth="yes"/>
			<point x="278" y="444"/>
			<point x="258" y="435"/>
		</contour>
	</outline>
</glyph>
<glyph name="idieresis" format="2">
	<advance width="600"/>
	<unicode hex="00EF"/>
	<note>
		idieresis
	</note>
	<outline>
		<contour>
			<point x="227" y="500" type="curve" smooth="yes"/>
			<point x="261" y="500"/>
			<point x="287" y="526"/>
			<point x="287" y="556" type="curve" smooth="yes"/>
			<point x="287" y="593"/>
			<point x="266" y="617"/>
			<point x="227" y="617" type="curve" smooth="yes"/>
			<point x="192" y="617"/>
			<point x="167" y="592"/>
			<point x="167" y="554" type="curve" smooth="yes"/>
			<point x="167" y="525"/>
			<point x="196" y="500"/>
		</contour>
		<contour>
			<point x="426" y="500" type="curve" smooth="yes"/>
			<point x="460" y="500"/>
			<point x="486" y="526"/>
			<point x="486" y="556" type="curve" smooth="yes"/>
			<point x="486" y="593"/>
			<point x="465" y="617"/>
			<point x="426" y="617" type="curve" smooth="yes"/>
			<point x="391" y="617"/>
			<point x="366" y="592"/>
			<point x="366" y="554" type="curve" smooth="yes"/>
			<point x="366" y="525"/>
			<point x="395" y="500"/>
		</contour>
		<contour>
			<point x="239" y="419" type="curve" smooth="yes"/>
			<point x="74" y="278" type="line"/>
			<point x="36" y="243"/>
			<point x="76" y="199"/>
			<point x="112" y="229" type="curve" smooth="yes"/>
			<point x="258" y="354" type="line" smooth="yes"/>
			<point x="274" y="368"/>
			<point x="282" y="374"/>
			<point x="292" y="374" type="curve" smooth="yes"/>
			<point x="309" y="374"/>
			<point x="316" y="360"/>
			<point x="310" y="336" type="curve" smooth="yes"/>
			<point x="256" y="110" type="line" smooth="yes"/>
			<point x="238" y="35"/>
			<point x="287" y="-13"/>
			<point x="359" y="-13" type="curve" smooth="yes"/>
			<point x="399" y="-13"/>
			<point x="446" y="2"/>
			<point x="485" y="35" type="curve" smooth="yes"/>
			<point x="720" y="236" type="line" smooth="yes"/>
			<point x="740" y="254"/>
			<point x="752" y="273"/>
			<point x="742" y="292" type="curve" smooth="yes"/>
			<point x="733" y="309"/>
			<point x="712" y="310"/>
			<point x="694" y="295" type="curve" smooth="yes"/>
			<point x="607" y="221"/>
			<point x="522" y="148"/>
			<point x="436" y="74" type="curve" smooth="yes"/>
			<point x="415" y="56"/>
			<point x="388" y="48"/>
			<point x="371" y="48" type="curve" smooth="yes"/>
			<point x="337" y="48"/>
			<point x="311" y="70"/>
			<point x="325" y="127" type="curve" smooth="yes"/>
			<point x="378" y="346" type="line" smooth="yes"/>
			<point x="391" y="399"/>
			<point x="353" y="444"/>
			<point x="299" y="444" type="curve" smooth="yes"/>
			<point x="278" y="444"/>
			<point x="258" y="435"/>
		</contour>
	</outline>
</glyph>
<glyph name="eth" format="2">
	<advance width="600"/>
	<unicode hex="00F0"/>
	<note>
		eth
	</note>
	<outline>
		<contour>
			<point x="530" y="619" type="curve" smooth="yes"/>
			<point x="527" y="637"/>
			<point x="506" y="646"/>
			<point x="485" y="636" type="curve" smooth="yes"/>
			<point x="422" y="606" type="line"/>
			<point x="366" y="644"/>
			<point x="288" y="661"/>
			<point x="199" y="661" type="curve" smooth="yes"/>
			<point x="179" y="661"/>
			<point x="163" y="651"/>
			<point x="163" y="629" type="curve" smooth="yes"/>
			<point x="163" y="606"/>
			<point x="179" y="599"/>
			<point x="200" y="599" type="curve" smooth="yes"/>
			<point x="267" y="599"/>
			<point x="318" y="591"/>
			<point x="357" y="575" type="curve"/>
			<point x="311" y="553" type="line" smooth="yes"/>
			<point x="298" y="547"/>
			<point x="287" y="525"/>
			<point x="295" y="512" type="curve" smooth="yes"/>
			<point x="307" y="493"/>
			<point x="328" y="494"/>
			<point x="345" y="502" type="curve" smooth="yes"/>
			<point x="415" y="535" type="line"/>
			<point x="438" y="510"/>
			<point x="448" y="478"/>
			<point x="448" y="441" type="curve"/>
			<point x="436" y="443"/>
			<point x="412" y="443"/>
			<point x="398" y="443" type="curve" smooth="yes"/>
			<point x="166" y="443"/>
			<point x="49" y="270"/>
			<point x="49" y="100" type="curve" smooth="yes"/>
			<point x="49" y="34"/>
			<point x="74" y="-12"/>
			<point x="138" y="-12" type="curve" smooth="yes"/>
			<point x="251" y="-12"/>
			<point x="489" y="253"/>
			<point x="508" y="354" type="curve" smooth="yes"/>
			<point x="525" y="444"/>
			<point x="510" y="513"/>
			<point x="471" y="562" type="curve"/>
			<point x="492" y="572" type="line" smooth="yes"/>
			<point x="517" y="584"/>
			<point x="534" y="597"/>
		</contour>
		<contour>
			<point x="150" y="62" type="curve" smooth="yes"/>
			<point x="129" y="62"/>
			<point x="121" y="74"/>
			<point x="121" y="98" type="curve" smooth="yes"/>
			<point x="121" y="241"/>
			<point x="230" y="374"/>
			<point x="397" y="374" type="curve" smooth="yes"/>
			<point x="414" y="374"/>
			<point x="429" y="372"/>
			<point x="442" y="370" type="curve"/>
			<point x="439" y="267"/>
			<point x="176" y="62"/>
		</contour>
	</outline>
</glyph>
<glyph name="divide" format="2">
	<advance width="600"/>
	<unicode hex="00F7"/>
	<note>
		divide
	</note>
	<outline>
		<contour>
			<point x="300" y="326" type="curve" smooth="yes"/>
			<point x="334" y="326"/>
			<point x="360" y="352"/>
			<point x="360" y="382" type="curve" smooth="yes"/>
			<point x="360" y="419"/>
			<point x="339" y="443"/>
			<point x="300" y="443" type="curve" smooth="yes"/>
			<point x="265" y="443"/>
			<point x="240" y="418"/>
			<point x="240" y="380" type="curve" smooth="yes"/>
			<point x="240" y="351"/>
			<point x="269" y="326"/>
		</contour>
		<contour>
			<point x="505" y="186" type="curve" smooth="yes"/>
			<point x="87" y="186" type="line" smooth="yes"/>
			<point x="74" y="186"/>
			<point x="61" y="208"/>
			<point x="61" y="220" type="curve" smooth="yes"/>
			<point x="61" y="233"/>
			<point x="70" y="256"/>
			<point x="87" y="256" type="curve" smooth="yes"/>
			<point x="505" y="256" type="line" smooth="yes"/>
			<point x="526" y="256"/>
			<point x="539" y="233"/>
			<point x="539" y="220" type="curve" smooth="yes"/>
			<point x="539" y="208"/>
			<point x="525" y="186"/>
		</contour>
		<contour>
			<point x="300" y="-13" type="curve" smooth="yes"/>
			<point x="334" y="-13"/>
			<point x="360" y="13"/>
			<point x="360" y="43" type="curve" smooth="yes"/>
			<point x="360" y="80"/>
			<point x="339" y="104"/>
			<point x="300" y="104" type="curve" smooth="yes"/>
			<point x="265" y="104"/>
			<point x="240" y="79"/>
			<point x="240" y="41" type="curve" smooth="yes"/>
			<point x="240" y="12"/>
			<point x="269" y="-13"/>
		</contour>
	</outline>
</glyph>
<glyph name="yacute" format="2">
	<advance width="600"/>
	<unicode hex="00FD"/>
	<note>
		yacute
	</note>
	<outline>
		<contour>
			<point x="501" y="578" type="curve" smooth="yes"/>
			<point x="499" y="588"/>
			<point x="485" y="608"/>
			<point x="462" y="602" type="curve"/>
			<point x="228" y="555" type="line" smooth="yes"/>
			<point x="203" y="550"/>
			<point x="196" y="533"/>
			<point x="198" y="521" type="curve" smooth="yes"/>
			<point x="200" y="507"/>
			<point x="210" y="492"/>
			<point x="238" y="499" type="curve"/>
			<point x="479" y="536" type="line"/>
			<point x="505" y="542"/>
			<point x="504" y="563"/>
		</contour>
		<contour>
			<point x="742" y="292" type="curve" smooth="yes"/>
			<point x="733" y="309"/>
			<point x="712" y="310"/>
			<point x="694" y="295" type="curve" smooth="yes"/>
			<point x="430" y="72" type="line"/>
			<point x="436" y="90"/>
			<point x="515" y="386"/>
			<point x="517" y="395" type="curve" smooth="yes"/>
			<point x="526" y="433"/>
			<point x="499" y="443"/>
			<point x="480" y="443" type="curve" smooth="yes"/>
			<point x="456" y="443"/>
			<point x="442" y="429"/>
			<point x="425" y="402" type="curve" smooth="yes"/>
			<point x="261" y="134"/>
			<point x="218" y="57"/>
			<point x="155" y="57" type="curve" smooth="yes"/>
			<point x="134" y="57"/>
			<point x="102" y="76"/>
			<point x="106" y="106" type="curve" smooth="yes"/>
			<point x="118" y="195"/>
			<point x="146" y="260"/>
			<point x="199" y="405" type="curve" smooth="yes"/>
			<point x="206" y="424"/>
			<point x="191" y="443"/>
			<point x="171" y="443" type="curve" smooth="yes"/>
			<point x="152" y="443"/>
			<point x="137" y="431"/>
			<point x="127" y="406" type="curve" smooth="yes"/>
			<point x="95" y="326"/>
			<point x="52" y="204"/>
			<point x="39" y="92" type="curve" smooth="yes"/>
			<point x="31" y="24"/>
			<point x="91" y="-13"/>
			<point x="142" y="-13" type="curve" smooth="yes"/>
			<point x="231" y="-13"/>
			<point x="309" y="97"/>
			<point x="413" y="272" type="curve"/>
			<point x="371" y="89" type="line" smooth="yes"/>
			<point x="353" y="11"/>
			<point x="338" y="-10"/>
			<point x="269" y="-69" type="curve" smooth="yes"/>
			<point x="239" y="-95"/>
			<point x="213" y="-109"/>
			<point x="184" y="-110" type="curve" smooth="yes"/>
			<point x="164" y="-111"/>
			<point x="149" y="-122"/>
			<point x="149" y="-139" type="curve" smooth="yes"/>
			<point x="149" y="-161"/>
			<point x="165" y="-173"/>
			<point x="191" y="-173" type="curve" smooth="yes"/>
			<point x="220" y="-173"/>
			<point x="252" y="-165"/>
			<point x="414" y="-26" type="curve" smooth="yes"/>
			<point x="720" y="236" type="line" smooth="yes"/>
			<point x="740" y="253"/>
			<point x="752" y="273"/>
		</contour>
	</outline>
</glyph>
<glyph name="thorn" format="2">
	<advance width="600"/>
	<unicode hex="00FE"/>
	<note>
		thorn
	</note>
	<outline>
		<contour>
			<point x="742" y="292" type="curve" smooth="yes"/>
			<point x="733" y="309"/>
			<point x="712" y="310"/>
			<point x="694" y="295" type="curve" smooth="yes"/>
			<point x="557" y="178" type="line"/>
			<point x="561" y="209"/>
			<point x="562" y="242"/>
			<point x="561" y="277" type="curve" smooth="yes"/>
			<point x="559" y="343"/>
			<point x="536" y="442"/>
			<point x="449" y="442" type="curve" smooth="yes"/>
			<point x="384" y="442"/>
			<point x="269" y="307"/>
			<point x="153" y="192" type="curve"/>
			<point x="251" y="568" type="line" smooth="yes"/>
			<point x="254" y="580"/>
			<point x="245" y="603"/>
			<point x="218" y="603" type="curve" smooth="yes"/>
			<point x="196" y="603"/>
			<point x="178" y="582"/>
			<point x="174" y="567" type="curve" smooth="yes"/>
			<point x="7" y="-75" type="line" smooth="yes"/>
			<point x="-4" y="-120"/>
			<point x="-6" y="-144"/>
			<point x="31" y="-144" type="curve" smooth="yes"/>
			<point x="53" y="-144"/>
			<point x="70" y="-128"/>
			<point x="79" y="-91" type="curve" smooth="yes"/>
			<point x="107" y="14" type="line"/>
			<point x="236" y="197"/>
			<point x="421" y="368"/>
			<point x="454" y="368" type="curve" smooth="yes"/>
			<point x="489" y="368"/>
			<point x="488" y="303"/>
			<point x="489" y="279" type="curve" smooth="yes"/>
			<point x="495" y="136"/>
			<point x="478" y="38"/>
			<point x="266" y="65" type="curve" smooth="yes"/>
			<point x="216" y="71"/>
			<point x="214" y="1"/>
			<point x="266" y="-5" type="curve" smooth="yes"/>
			<point x="371" y="-17"/>
			<point x="440" y="-1"/>
			<point x="485" y="35" type="curve"/>
			<point x="487" y="37" type="line"/>
			<point x="489" y="38"/>
			<point x="490" y="40"/>
			<point x="492" y="41" type="curve"/>
			<point x="720" y="236" type="line" smooth="yes"/>
			<point x="740" y="254"/>
			<point x="752" y="273"/>
		</contour>
	</outline>
</glyph>
<glyph name="ydieresis" format="2">
	<advance width="600"/>
	<unicode hex="00FF"/>
	<note>
		ydieresis
	</note>
	<outline>
		<contour>
			<point x="263" y="486" type="curve" smooth="yes"/>
			<point x="297" y="486"/>
			<point x="323" y="512"/>
			<point x="323" y="542" type="curve" smooth="yes"/>
			<point x="323" y="579"/>
			<point x="302" y="603"/>
			<point x="263" y="603" type="curve" smooth="yes"/>
			<point x="228" y="603"/>
			<point x="203" y="578"/>
			<point x="203" y="540" type="curve" smooth="yes"/>
			<point x="203" y="511"/>
			<point x="232" y="486"/>
		</contour>
		<contour>
			<point x="462" y="486" type="curve" smooth="yes"/>
			<point x="496" y="486"/>
			<point x="522" y="512"/>
			<point x="522" y="542" type="curve" smooth="yes"/>
			<point x="522" y="579"/>
			<point x="501" y="603"/>
			<point x="462" y="603" type="curve" smooth="yes"/>
			<point x="427" y="603"/>
			<point x="402" y="578"/>
			<point x="402" y="540" type="curve" smooth="yes"/>
			<point x="402" y="511"/>
			<point x="431" y="486"/>
		</contour>
		<contour>
			<point x="742" y="292" type="curve" smooth="yes"/>
			<point x="733" y="309"/>
			<point x="712" y="310"/>
			<point x="694" y="295" type="curve" smooth="yes"/>
			<point x="430" y="72" type="line"/>
			<point x="436" y="90"/>
			<point x="515" y="386"/>
			<point x="517" y="395" type="curve" smooth="yes"/>
			<point x="526" y="433"/>
			<point x="499" y="443"/>
			<point x="480" y="443" type="curve" smooth="yes"/>
			<point x="456" y="443"/>
			<point x="442" y="429"/>
			<point x="425" y="402" type="curve" smooth="yes"/>
			<point x="261" y="134"/>
			<point x="218" y="57"/>
			<point x="155" y="57" type="curve" smooth="yes"/>
			<point x="134" y="57"/>
			<point x="102" y="76"/>
			<point x="106" y="106" type="curve" smooth="yes"/>
			<point x="118" y="195"/>
			<point x="146" y="260"/>
			<point x="199" y="405" type="curve" smooth="yes"/>
			<point x="206" y="424"/>
			<point x="191" y="443"/>
			<point x="171" y="443" type="curve" smooth="yes"/>
			<point x="152" y="443"/>
			<point x="137" y="431"/>
			<point x="127" y="406" type="curve" smooth="yes"/>
			<point x="95" y="326"/>
			<point x="52" y="204"/>
			<point x="39" y="92" type="curve" smooth="yes"/>
			<point x="31" y="24"/>
			<point x="91" y="-13"/>
			<point x="142" y="-13" type="curve" smooth="yes"/>
			<point x="231" y="-13"/>
			<point x="309" y="97"/>
			<point x="413" y="272" type="curve"/>
			<point x="371" y="89" type="line" smooth="yes"/>
			<point x="353" y="11"/>
			<point x="338" y="-10"/>
			<point x="269" y="-69" type="curve" smooth="yes"/>
			<point x="239" y="-95"/>
			<point x="213" y="-109"/>
			<point x="184" y="-110" type="curve" smooth="yes"/>
			<point x="164" y="-111"/>
			<point x="149" y="-122"/>
			<point x="149" y="-139" type="curve" smooth="yes"/>
			<point x="149" y="-161"/>
			<point x="165" y="-173"/>
			<point x="191" y="-173" type="curve" smooth="yes"/>
			<point x="220" y="-173"/>
			<point x="252" y="-165"/>
			<point x="414" y="-26" type="curve" smooth="yes"/>
			<point x="720" y="236" type="line" smooth="yes"/>
			<point x="740" y="253"/>
			<point x="752" y="273"/>
		</contour>
	</outline>
</glyph>
<glyph name="dotlessi" format="2">
	<advance width="600"/>
	<unicode hex="0131"/>
	<note>
		dotlessi
	</note>
	<outline>
		<contour>
			<point x="239" y="419" type="curve" smooth="yes"/>
			<point x="74" y="278" type="line"/>
			<point x="36" y="243"/>
			<point x="76" y="199"/>
			<point x="112" y="229" type="curve" smooth="yes"/>
			<point x="258" y="354" type="line" smooth="yes"/>
			<point x="274" y="368"/>
			<point x="282" y="374"/>
			<point x="292" y="374" type="curve" smooth="yes"/>
			<point x="309" y="374"/>
			<point x="316" y="360"/>
			<point x="310" y="336" type="curve" smooth="yes"/>
			<point x="256" y="110" type="line" smooth="yes"/>
			<point x="238" y="35"/>
			<point x="287" y="-13"/>
			<point x="359" y="-13" type="curve" smooth="yes"/>
			<point x="399" y="-13"/>
			<point x="446" y="2"/>
			<point x="485" y="35" type="curve" smooth="yes"/>
			<point x="720" y="236" type="line" smooth="yes"/>
			<point x="740" y="254"/>
			<point x="752" y="273"/>
			<point x="742" y="292" type="curve" smooth="yes"/>
			<point x="733" y="309"/>
			<point x="712" y="310"/>
			<point x="694" y="295" type="curve" smooth="yes"/>
			<point x="607" y="221"/>
			<point x="522" y="148"/>
			<point x="436" y="74" type="curve" smooth="yes"/>
			<point x="415" y="56"/>
			<point x="388" y="48"/>
			<point x="371" y="48" type="curve" smooth="yes"/>
			<point x="337" y="48"/>
			<point x="311" y="70"/>
			<point x="325" y="127" type="curve" smooth="yes"/>
			<point x="378" y="346" type="line" smooth="yes"/>
			<point x="391" y="399"/>
			<point x="353" y="444"/>
			<point x="299" y="444" type="curve" smooth="yes"/>
			<point x="278" y="444"/>
			<point x="258" y="435"/>
		</contour>
	</outline>
</glyph>
<glyph name="Lslash" format="2">
	<advance width="600"/>
	<unicode hex="0141"/>
	<note>
		Lslash
	</note>
	<outline>
		<contour>
			<point x="537" y="430" type="curve" smooth="yes"/>
			<point x="563" y="430"/>
			<point x="574" y="443"/>
			<point x="584" y="479" type="curve" smooth="yes"/>
			<point x="606" y="562"/>
			<point x="542" y="603"/>
			<point x="500" y="603" type="curve" smooth="yes"/>
			<point x="410" y="603"/>
			<point x="377" y="519"/>
			<point x="357" y="443" type="curve" smooth="yes"/>
			<point x="326" y="323" type="line"/>
			<point x="220" y="272" type="line" smooth="yes"/>
			<point x="207" y="266"/>
			<point x="196" y="244"/>
			<point x="204" y="231" type="curve" smooth="yes"/>
			<point x="216" y="212"/>
			<point x="237" y="213"/>
			<point x="254" y="221" type="curve" smooth="yes"/>
			<point x="306" y="246" type="line"/>
			<point x="283" y="159" type="line" smooth="yes"/>
			<point x="275" y="127"/>
			<point x="267" y="102"/>
			<point x="258" y="82" type="curve"/>
			<point x="253" y="151"/>
			<point x="207" y="205"/>
			<point x="130" y="205" type="curve" smooth="yes"/>
			<point x="79" y="205"/>
			<point x="12" y="175"/>
			<point x="12" y="100" type="curve" smooth="yes"/>
			<point x="12" y="23"/>
			<point x="75" y="-10"/>
			<point x="136" y="-10" type="curve" smooth="yes"/>
			<point x="152" y="-10"/>
			<point x="171" y="-10"/>
			<point x="194" y="-9" type="curve"/>
			<point x="194" y="-83"/>
			<point x="220" y="-171"/>
			<point x="362" y="-171" type="curve" smooth="yes"/>
			<point x="488" y="-171"/>
			<point x="566" y="-121"/>
			<point x="566" y="0" type="curve" smooth="yes"/>
			<point x="566" y="34"/>
			<point x="559" y="53"/>
			<point x="536" y="53" type="curve" smooth="yes"/>
			<point x="513" y="53"/>
			<point x="497" y="35"/>
			<point x="497" y="0" type="curve" smooth="yes"/>
			<point x="497" y="-82"/>
			<point x="445" y="-103"/>
			<point x="362" y="-103" type="curve" smooth="yes"/>
			<point x="276" y="-103"/>
			<point x="262" y="-53"/>
			<point x="262" y="0" type="curve" smooth="yes"/>
			<point x="262" y="4" type="line"/>
			<point x="316" y="29"/>
			<point x="337" y="86"/>
			<point x="356" y="161" type="curve" smooth="yes"/>
			<point x="389" y="286" type="line"/>
			<point x="482" y="331" type="line" smooth="yes"/>
			<point x="506" y="342"/>
			<point x="524" y="356"/>
			<point x="520" y="378" type="curve" smooth="yes"/>
			<point x="517" y="396"/>
			<point x="496" y="405"/>
			<point x="475" y="395" type="curve" smooth="yes"/>
			<point x="409" y="363" type="line"/>
			<point x="430" y="443" type="line"/>
			<point x="438" y="479"/>
			<point x="454" y="533"/>
			<point x="491" y="533" type="curve" smooth="yes"/>
			<point x="523" y="533"/>
			<point x="524" y="502"/>
			<point x="518" y="479" type="curve" smooth="yes"/>
			<point x="509" y="446"/>
			<point x="520" y="430"/>
		</contour>
		<contour>
			<point x="133" y="60" type="curve" smooth="yes"/>
			<point x="94" y="60"/>
			<point x="77" y="75"/>
			<point x="77" y="102" type="curve" smooth="yes"/>
			<point x="77" y="131"/>
			<point x="104" y="139"/>
			<point x="127" y="139" type="curve" smooth="yes"/>
			<point x="173" y="139"/>
			<point x="187" y="111"/>
			<point x="187" y="61" type="curve"/>
			<point x="166" y="61"/>
			<point x="150" y="60"/>
		</contour>
	</outline>
</glyph>
<glyph name="lslash" format="2">
	<advance width="600"/>
	<unicode hex="0142"/>
	<note>
		lslash
	</note>
	<outline>
		<contour>
			<point x="334" y="148" type="curve" smooth="yes"/>
			<point x="370" y="284" type="line"/>
			<point x="467" y="331" type="line" smooth="yes"/>
			<point x="491" y="342"/>
			<point x="509" y="356"/>
			<point x="505" y="378" type="curve" smooth="yes"/>
			<point x="502" y="396"/>
			<point x="481" y="405"/>
			<point x="460" y="395" type="curve" smooth="yes"/>
			<point x="391" y="362" type="line"/>
			<point x="436" y="531" type="line" smooth="yes"/>
			<point x="443" y="557"/>
			<point x="459" y="604"/>
			<point x="420" y="605" type="curve" smooth="yes"/>
			<point x="419" y="605" type="line" smooth="yes"/>
			<point x="393" y="605"/>
			<point x="383" y="594"/>
			<point x="342" y="557" type="curve" smooth="yes"/>
			<point x="216" y="443" type="line"/>
			<point x="201" y="428"/>
			<point x="175" y="404"/>
			<point x="189" y="381" type="curve" smooth="yes"/>
			<point x="197" y="368"/>
			<point x="211" y="344"/>
			<point x="245" y="374" type="curve" smooth="yes"/>
			<point x="347" y="466" type="line"/>
			<point x="309" y="322" type="line"/>
			<point x="205" y="272" type="line" smooth="yes"/>
			<point x="192" y="266"/>
			<point x="181" y="244"/>
			<point x="189" y="231" type="curve" smooth="yes"/>
			<point x="201" y="212"/>
			<point x="222" y="213"/>
			<point x="239" y="221" type="curve" smooth="yes"/>
			<point x="288" y="245" type="line"/>
			<point x="270" y="177" type="line" smooth="yes"/>
			<point x="251" y="105"/>
			<point x="251" y="57"/>
			<point x="294" y="15" type="curve" smooth="yes"/>
			<point x="344" y="-33"/>
			<point x="420" y="-12"/>
			<point x="456" y="24" type="curve" smooth="yes"/>
			<point x="471" y="39"/>
			<point x="471" y="60"/>
			<point x="460" y="73" type="curve" smooth="yes"/>
			<point x="454" y="80"/>
			<point x="430" y="87"/>
			<point x="415" y="72" type="curve" smooth="yes"/>
			<point x="388" y="45"/>
			<point x="364" y="45"/>
			<point x="344" y="62" type="curve" smooth="yes"/>
			<point x="330" y="74"/>
			<point x="318" y="89"/>
		</contour>
	</outline>
</glyph>
<glyph name="OE" format="2">
	<advance width="600"/>
	<unicode hex="0152"/>
	<note>
		OE
	</note>
	<outline>
		<contour>
			<point x="-1" y="187" type="curve" smooth="yes"/>
			<point x="-1" y="80"/>
			<point x="68" y="-13"/>
			<point x="170" y="-13" type="curve" smooth="yes"/>
			<point x="213" y="-13"/>
			<point x="257" y="0"/>
			<point x="297" y="25" type="curve"/>
			<point x="332" y="1"/>
			<point x="377" y="-13"/>
			<point x="430" y="-13" type="curve" smooth="yes"/>
			<point x="488" y="-13"/>
			<point x="537" y="-5"/>
			<point x="580" y="17" type="curve"/>
			<point x="599" y="25"/>
			<point x="607" y="50"/>
			<point x="599" y="68" type="curve" smooth="yes"/>
			<point x="593" y="82"/>
			<point x="570" y="89"/>
			<point x="555" y="80" type="curve"/>
			<point x="518" y="60"/>
			<point x="478" y="51"/>
			<point x="434" y="51" type="curve" smooth="yes"/>
			<point x="402" y="51"/>
			<point x="374" y="57"/>
			<point x="352" y="68" type="curve"/>
			<point x="408" y="122"/>
			<point x="450" y="201"/>
			<point x="463" y="293" type="curve"/>
			<point x="476" y="293"/>
			<point x="491" y="292"/>
			<point x="506" y="291" type="curve" smooth="yes"/>
			<point x="537" y="288"/>
			<point x="548" y="309"/>
			<point x="548" y="328" type="curve" smooth="yes"/>
			<point x="548" y="350"/>
			<point x="540" y="358"/>
			<point x="518" y="368" type="curve" smooth="yes"/>
			<point x="414" y="415"/>
			<point x="430" y="541"/>
			<point x="491" y="541" type="curve" smooth="yes"/>
			<point x="520" y="541"/>
			<point x="536" y="517"/>
			<point x="529" y="479" type="curve" smooth="yes"/>
			<point x="524" y="453"/>
			<point x="531" y="442"/>
			<point x="553" y="438" type="curve" smooth="yes"/>
			<point x="574" y="434"/>
			<point x="587" y="440"/>
			<point x="596" y="477" type="curve" smooth="yes"/>
			<point x="615" y="556"/>
			<point x="545" y="603"/>
			<point x="496" y="603" type="curve" smooth="yes"/>
			<point x="448" y="603"/>
			<point x="419" y="585"/>
			<point x="402" y="552" type="curve"/>
			<point x="372" y="583"/>
			<point x="328" y="603"/>
			<point x="264" y="603" type="curve" smooth="yes"/>
			<point x="232" y="603"/>
			<point x="214" y="585"/>
			<point x="214" y="568" type="curve" smooth="yes"/>
			<point x="214" y="538"/>
			<point x="244" y="533"/>
			<point x="264" y="533" type="curve" smooth="yes"/>
			<point x="328" y="533"/>
			<point x="397" y="494"/>
			<point x="397" y="351" type="curve" smooth="yes"/>
			<point x="397" y="349" type="line"/>
			<point x="268" y="338"/>
			<point x="217" y="244"/>
			<point x="217" y="165" type="curve" smooth="yes"/>
			<point x="217" y="133"/>
			<point x="227" y="101"/>
			<point x="246" y="74" type="curve"/>
			<point x="222" y="63"/>
			<point x="196" y="57"/>
			<point x="170" y="57" type="curve" smooth="yes"/>
			<point x="104" y="57"/>
			<point x="68" y="122"/>
			<point x="68" y="187" type="curve" smooth="yes"/>
			<point x="68" y="222"/>
			<point x="70" y="299"/>
			<point x="124" y="369" type="curve" smooth="yes"/>
			<point x="147" y="398"/>
			<point x="180" y="429"/>
			<point x="223" y="429" type="curve" smooth="yes"/>
			<point x="261" y="429"/>
			<point x="280" y="436"/>
			<point x="280" y="464" type="curve" smooth="yes"/>
			<point x="280" y="488"/>
			<point x="242" y="499"/>
			<point x="220" y="499" type="curve" smooth="yes"/>
			<point x="156" y="499"/>
			<point x="91" y="453"/>
			<point x="58" y="405" type="curve" smooth="yes"/>
			<point x="16" y="343"/>
			<point x="-1" y="270"/>
		</contour>
		<contour>
			<point x="293" y="166" type="curve" smooth="yes"/>
			<point x="293" y="219"/>
			<point x="321" y="266"/>
			<point x="391" y="285" type="curve"/>
			<point x="379" y="213"/>
			<point x="347" y="154"/>
			<point x="305" y="115" type="curve"/>
			<point x="297" y="130"/>
			<point x="293" y="147"/>
		</contour>
	</outline>
</glyph>
<glyph name="oe" format="2">
	<advance width="600"/>
	<unicode hex="0153"/>
	<note>
		oe
	</note>
	<outline>
		<contour>
			<point x="742" y="292" type="curve" smooth="yes"/>
			<point x="733" y="309"/>
			<point x="712" y="310"/>
			<point x="694" y="295" type="curve" smooth="yes"/>
			<point x="604" y="218" type="line" smooth="yes"/>
			<point x="472" y="105"/>
			<point x="415" y="50"/>
			<point x="348" y="50" type="curve" smooth="yes"/>
			<point x="299" y="50"/>
			<point x="289" y="87"/>
			<point x="319" y="193" type="curve"/>
			<point x="480" y="193"/>
			<point x="568" y="253"/>
			<point x="590" y="338" type="curve" smooth="yes"/>
			<point x="602" y="385"/>
			<point x="590" y="443"/>
			<point x="487" y="443" type="curve" smooth="yes"/>
			<point x="418" y="443"/>
			<point x="366" y="411"/>
			<point x="327" y="360" type="curve"/>
			<point x="312" y="412"/>
			<point x="276" y="444"/>
			<point x="226" y="444" type="curve" smooth="yes"/>
			<point x="123" y="444"/>
			<point x="43" y="366"/>
			<point x="0" y="213" type="curve" smooth="yes"/>
			<point x="-36" y="84"/>
			<point x="13" y="-12"/>
			<point x="96" y="-12" type="curve" smooth="yes"/>
			<point x="158" y="-12"/>
			<point x="204" y="10"/>
			<point x="240" y="47" type="curve"/>
			<point x="260" y="5"/>
			<point x="303" y="-14"/>
			<point x="343" y="-14" type="curve" smooth="yes"/>
			<point x="426" y="-14"/>
			<point x="492" y="34"/>
			<point x="626" y="156" type="curve" smooth="yes"/>
			<point x="720" y="236" type="line" smooth="yes"/>
			<point x="739" y="252"/>
			<point x="752" y="273"/>
		</contour>
		<contour>
			<point x="469" y="382" type="curve" smooth="yes"/>
			<point x="509" y="382"/>
			<point x="530" y="378"/>
			<point x="520" y="338" type="curve" smooth="yes"/>
			<point x="507" y="285"/>
			<point x="429" y="259"/>
			<point x="332" y="261" type="curve"/>
			<point x="372" y="337"/>
			<point x="409" y="382"/>
		</contour>
		<contour>
			<point x="263" y="260" type="curve"/>
			<point x="189" y="260"/>
			<point x="151" y="281"/>
			<point x="156" y="357" type="curve"/>
			<point x="175" y="370"/>
			<point x="198" y="375"/>
			<point x="226" y="374" type="curve" smooth="yes"/>
			<point x="271" y="372"/>
			<point x="273" y="316"/>
		</contour>
		<contour>
			<point x="97" y="47" type="curve" smooth="yes"/>
			<point x="38" y="47"/>
			<point x="43" y="137"/>
			<point x="70" y="214" type="curve" smooth="yes"/>
			<point x="79" y="241"/>
			<point x="89" y="263"/>
			<point x="98" y="283" type="curve"/>
			<point x="125" y="212"/>
			<point x="193" y="195"/>
			<point x="247" y="193" type="curve"/>
			<point x="221" y="107"/>
			<point x="188" y="47"/>
		</contour>
	</outline>
</glyph>
<glyph name="florin" format="2">
	<advance width="600"/>
	<unicode hex="0192"/>
	<note>
		florin
	</note>
	<outline>
		<contour>
			<point x="590" y="439" type="curve" smooth="yes"/>
			<point x="590" y="545"/>
			<point x="456" y="617"/>
			<point x="367" y="529" type="curve" smooth="yes"/>
			<point x="316" y="479"/>
			<point x="303" y="423"/>
			<point x="275" y="309" type="curve"/>
			<point x="193" y="309" type="line" smooth="yes"/>
			<point x="173" y="309"/>
			<point x="164" y="287"/>
			<point x="164" y="273" type="curve" smooth="yes"/>
			<point x="164" y="261"/>
			<point x="174" y="239"/>
			<point x="193" y="239" type="curve" smooth="yes"/>
			<point x="258" y="239" type="line"/>
			<point x="245" y="189" type="line"/>
			<point x="163" y="189" type="line" smooth="yes"/>
			<point x="143" y="189"/>
			<point x="134" y="167"/>
			<point x="134" y="153" type="curve" smooth="yes"/>
			<point x="134" y="141"/>
			<point x="144" y="119"/>
			<point x="163" y="119" type="curve" smooth="yes"/>
			<point x="228" y="119" type="line"/>
			<point x="187" y="-45" type="line" smooth="yes"/>
			<point x="176" y="-90"/>
			<point x="151" y="-103"/>
			<point x="126" y="-107" type="curve"/>
			<point x="131" y="-89"/>
			<point x="127" y="-69"/>
			<point x="112" y="-51" type="curve" smooth="yes"/>
			<point x="92" y="-27"/>
			<point x="54" y="-29"/>
			<point x="30" y="-50" type="curve" smooth="yes"/>
			<point x="5" y="-71"/>
			<point x="7" y="-104"/>
			<point x="20" y="-131" type="curve" smooth="yes"/>
			<point x="21" y="-133" type="line" smooth="yes"/>
			<point x="66" y="-224"/>
			<point x="223" y="-174"/>
			<point x="253" y="-52" type="curve" smooth="yes"/>
			<point x="296" y="119" type="line"/>
			<point x="382" y="119" type="line" smooth="yes"/>
			<point x="401" y="119"/>
			<point x="411" y="141"/>
			<point x="411" y="153" type="curve" smooth="yes"/>
			<point x="411" y="167"/>
			<point x="402" y="189"/>
			<point x="382" y="189" type="curve" smooth="yes"/>
			<point x="313" y="189" type="line"/>
			<point x="326" y="239" type="line"/>
			<point x="412" y="239" type="line" smooth="yes"/>
			<point x="431" y="239"/>
			<point x="441" y="263"/>
			<point x="441" y="275" type="curve" smooth="yes"/>
			<point x="441" y="289"/>
			<point x="432" y="309"/>
			<point x="412" y="309" type="curve" smooth="yes"/>
			<point x="343" y="309" type="line"/>
			<point x="357" y="362"/>
			<point x="381" y="446"/>
			<point x="413" y="480" type="curve" smooth="yes"/>
			<point x="439" y="508"/>
			<point x="471" y="505"/>
			<point x="493" y="489" type="curve"/>
			<point x="478" y="478"/>
			<point x="468" y="460"/>
			<point x="468" y="437" type="curve" smooth="yes"/>
			<point x="468" y="406"/>
			<point x="499" y="383"/>
			<point x="530" y="383" type="curve" smooth="yes"/>
			<point x="564" y="383"/>
			<point x="590" y="409"/>
		</contour>
	</outline>
</glyph>
<glyph name="caron" format="2">
	<advance width="600"/>
	<unicode hex="02C7"/>
	<note>
		caron
	</note>
	<outline>
		<contour>
			<point x="503" y="581" type="curve" smooth="yes"/>
			<point x="499" y="594"/>
			<point x="483" y="609"/>
			<point x="463" y="600" type="curve" smooth="yes"/>
			<point x="312" y="531" type="line"/>
			<point x="161" y="600" type="line" smooth="yes"/>
			<point x="141" y="609"/>
			<point x="125" y="594"/>
			<point x="121" y="581" type="curve" smooth="yes"/>
			<point x="116" y="566"/>
			<point x="119" y="544"/>
			<point x="140" y="535" type="curve" smooth="yes"/>
			<point x="312" y="460" type="line"/>
			<point x="484" y="535" type="line" smooth="yes"/>
			<point x="505" y="544"/>
			<point x="508" y="566"/>
		</contour>
	</outline>
</glyph>
<glyph name="breve" format="2">
	<advance width="600"/>
	<unicode hex="02D8"/>
	<note>
		breve
	</note>
	<outline>
		<contour>
			<point x="412" y="772" type="curve" smooth="yes"/>
			<point x="412" y="782"/>
			<point x="401" y="790"/>
			<point x="387" y="790" type="curve" smooth="yes"/>
			<point x="375" y="790"/>
			<point x="357" y="782"/>
			<point x="357" y="769" type="curve" smooth="yes"/>
			<point x="357" y="701"/>
			<point x="423" y="651"/>
			<point x="491" y="652" type="curve" smooth="yes"/>
			<point x="563" y="653"/>
			<point x="623" y="705"/>
			<point x="624" y="770" type="curve"/>
			<point x="623" y="782"/>
			<point x="610" y="791"/>
			<point x="598" y="791" type="curve" smooth="yes"/>
			<point x="584" y="791"/>
			<point x="569" y="782"/>
			<point x="569" y="772" type="curve" smooth="yes"/>
			<point x="569" y="727"/>
			<point x="529" y="704"/>
			<point x="491" y="704" type="curve" smooth="yes"/>
			<point x="451" y="704"/>
			<point x="412" y="734"/>
		</contour>
	</outline>
</glyph>
<glyph name="ring" format="2">
	<advance width="600"/>
	<unicode hex="02DA"/>
	<note>
		ring
	</note>
	<outline>
		<contour>
			<point x="300" y="486" type="curve" smooth="yes"/>
			<point x="334" y="486"/>
			<point x="360" y="512"/>
			<point x="360" y="542" type="curve" smooth="yes"/>
			<point x="360" y="579"/>
			<point x="339" y="603"/>
			<point x="300" y="603" type="curve" smooth="yes"/>
			<point x="265" y="603"/>
			<point x="240" y="578"/>
			<point x="240" y="540" type="curve" smooth="yes"/>
			<point x="240" y="511"/>
			<point x="269" y="486"/>
		</contour>
		<contour>
			<point x="300" y="525" type="curve" smooth="yes"/>
			<point x="290" y="525"/>
			<point x="280" y="534"/>
			<point x="280" y="543" type="curve" smooth="yes"/>
			<point x="280" y="555"/>
			<point x="289" y="564"/>
			<point x="300" y="564" type="curve" smooth="yes"/>
			<point x="313" y="564"/>
			<point x="320" y="556"/>
			<point x="320" y="544" type="curve" smooth="yes"/>
			<point x="320" y="534"/>
			<point x="311" y="525"/>
		</contour>
	</outline>
</glyph>
<glyph name="tilde" format="2">
	<advance width="600"/>
	<unicode hex="02DC"/>
	<note>
		tilde
	</note>
	<outline>
		<contour>
			<point x="431" y="482" type="curve"/>
			<point x="406" y="483"/>
			<point x="383" y="495"/>
			<point x="369" y="508" type="curve" smooth="yes"/>
			<point x="344" y="531"/>
			<point x="333" y="545"/>
			<point x="309" y="545" type="curve" smooth="yes"/>
			<point x="296" y="545"/>
			<point x="271" y="524"/>
			<point x="242" y="492" type="curve" smooth="yes"/>
			<point x="232" y="481"/>
			<point x="209" y="479"/>
			<point x="197" y="492" type="curve"/>
			<point x="188" y="501"/>
			<point x="187" y="519"/>
			<point x="197" y="530" type="curve" smooth="yes"/>
			<point x="241" y="578"/>
			<point x="276" y="603"/>
			<point x="310" y="603" type="curve" smooth="yes"/>
			<point x="333" y="603"/>
			<point x="356" y="593"/>
			<point x="374" y="577" type="curve" smooth="yes"/>
			<point x="397" y="556"/>
			<point x="413" y="541"/>
			<point x="431" y="541" type="curve" smooth="yes"/>
			<point x="454" y="541"/>
			<point x="469" y="558"/>
			<point x="497" y="592" type="curve" smooth="yes"/>
			<point x="506" y="603"/>
			<point x="529" y="606"/>
			<point x="540" y="598" type="curve"/>
			<point x="554" y="587"/>
			<point x="553" y="566"/>
			<point x="544" y="555" type="curve" smooth="yes"/>
			<point x="504" y="506"/>
			<point x="468" y="482"/>
		</contour>
	</outline>
</glyph>
<glyph name="uni0394" format="2">
	<advance width="600"/>
	<unicode hex="0394"/>
	<note>
		uni0394
	</note>
	<outline>
		<contour>
			<point x="540" y="86" type="curve" smooth="yes"/>
			<point x="337" y="576" type="line" smooth="yes"/>
			<point x="330" y="594"/>
			<point x="316" y="603"/>
			<point x="299" y="603" type="curve" smooth="yes"/>
			<point x="281" y="603"/>
			<point x="263" y="590"/>
			<point x="257" y="576" type="curve" smooth="yes"/>
			<point x="61" y="86" type="line" smooth="yes"/>
			<point x="56" y="73"/>
			<point x="38" y="39"/>
			<point x="53" y="11" type="curve" smooth="yes"/>
			<point x="69" y="-20"/>
			<point x="97" y="-20"/>
			<point x="112" y="-20" type="curve" smooth="yes"/>
			<point x="501" y="-20" type="line" smooth="yes"/>
			<point x="516" y="-20"/>
			<point x="535" y="-13"/>
			<point x="548" y="11" type="curve" smooth="yes"/>
			<point x="563" y="38"/>
			<point x="545" y="73"/>
		</contour>
		<contour>
			<point x="469" y="52" type="line"/>
			<point x="125" y="52" type="line"/>
			<point x="297" y="475" type="line"/>
		</contour>
	</outline>
</glyph>
<glyph name="uni03BC" format="2">
	<advance width="600"/>
	<unicode hex="03BC"/>
	<note>
		uni03BC
	</note>
	<outline>
		<contour>
			<point x="40" y="92" type="curve" smooth="yes"/>
			<point x="32" y="24"/>
			<point x="92" y="-13"/>
			<point x="143" y="-13" type="curve" smooth="yes"/>
			<point x="232" y="-13"/>
			<point x="304" y="79"/>
			<point x="408" y="254" type="curve"/>
			<point x="357" y="58" type="line" smooth="yes"/>
			<point x="345" y="12"/>
			<point x="355" y="-13"/>
			<point x="391" y="-13" type="curve" smooth="yes"/>
			<point x="427" y="-13"/>
			<point x="443" y="-1"/>
			<point x="485" y="35" type="curve" smooth="yes"/>
			<point x="720" y="236" type="line" smooth="yes"/>
			<point x="740" y="254"/>
			<point x="752" y="273"/>
			<point x="742" y="292" type="curve" smooth="yes"/>
			<point x="733" y="309"/>
			<point x="712" y="310"/>
			<point x="694" y="295" type="curve" smooth="yes"/>
			<point x="437" y="76" type="line"/>
			<point x="501" y="321"/>
			<point x="511" y="358"/>
			<point x="516" y="390" type="curve" smooth="yes"/>
			<point x="522" y="432"/>
			<point x="500" y="443"/>
			<point x="480" y="443" type="curve" smooth="yes"/>
			<point x="456" y="443"/>
			<point x="442" y="429"/>
			<point x="425" y="402" type="curve" smooth="yes"/>
			<point x="256" y="134"/>
			<point x="219" y="57"/>
			<point x="156" y="57" type="curve" smooth="yes"/>
			<point x="135" y="57"/>
			<point x="103" y="76"/>
			<point x="107" y="106" type="curve" smooth="yes"/>
			<point x="119" y="195"/>
			<point x="147" y="260"/>
			<point x="200" y="405" type="curve" smooth="yes"/>
			<point x="207" y="424"/>
			<point x="192" y="443"/>
			<point x="172" y="443" type="curve" smooth="yes"/>
			<point x="153" y="443"/>
			<point x="138" y="431"/>
			<point x="128" y="406" type="curve" smooth="yes"/>
			<point x="96" y="326"/>
			<point x="53" y="204"/>
		</contour>
		<contour>
			<point x="52" y="-142" type="curve" smooth="yes"/>
			<point x="59" y="-167"/>
			<point x="76" y="-180"/>
			<point x="95" y="-177" type="curve" smooth="yes"/>
			<point x="118" y="-173"/>
			<point x="122" y="-156"/>
			<point x="115" y="-128" type="curve" smooth="yes"/>
			<point x="92" y="-36"/>
			<point x="87" y="-5"/>
			<point x="114" y="151" type="curve" smooth="yes"/>
			<point x="122" y="197"/>
			<point x="46" y="146"/>
			<point x="40" y="92" type="curve" smooth="yes"/>
			<point x="28" y="-9"/>
			<point x="28" y="-57"/>
		</contour>
	</outline>
</glyph>
<glyph name="endash" format="2">
	<advance width="600"/>
	<unicode hex="2013"/>
	<note>
		endash
	</note>
	<outline>
		<contour>
			<point x="505" y="186" type="curve" smooth="yes"/>
			<point x="87" y="186" type="line" smooth="yes"/>
			<point x="74" y="186"/>
			<point x="46" y="200"/>
			<point x="46" y="237" type="curve" smooth="yes"/>
			<point x="46" y="273"/>
			<point x="70" y="291"/>
			<point x="87" y="291" type="curve" smooth="yes"/>
			<point x="505" y="291" type="line" smooth="yes"/>
			<point x="526" y="291"/>
			<point x="552" y="273"/>
			<point x="552" y="238" type="curve" smooth="yes"/>
			<point x="552" y="208"/>
			<point x="525" y="186"/>
		</contour>
	</outline>
</glyph>
<glyph name="emdash" format="2">
	<advance width="600"/>
	<unicode hex="2014"/>
	<note>
		emdash
	</note>
	<outline>
		<contour>
			<point x="600" y="204" type="line"/>
			<point x="0" y="204" type="line"/>
			<point x="0" y="279" type="line"/>
			<point x="600" y="279" type="line"/>
		</contour>
	</outline>
</glyph>
<glyph name="dagger" format="2">
	<advance width="600"/>
	<unicode hex="2020"/>
	<note>
		dagger
	</note>
	<outline>
		<contour>
			<point x="383" y="465" type="curve" smooth="yes"/>
			<point x="362" y="471" type="line"/>
			<point x="399" y="597" type="line"/>
			<point x="401" y="609"/>
			<point x="387" y="630"/>
			<point x="373" y="633" type="curve" smooth="yes"/>
			<point x="359" y="636"/>
			<point x="335" y="624"/>
			<point x="330" y="611" type="curve"/>
			<point x="296" y="491" type="line"/>
			<point x="278" y="496" type="line" smooth="yes"/>
			<point x="164" y="530"/>
			<point x="70" y="474"/>
			<point x="95" y="389" type="curve"/>
			<point x="99" y="370"/>
			<point x="124" y="355"/>
			<point x="143" y="362" type="curve" smooth="yes"/>
			<point x="162" y="369"/>
			<point x="169" y="387"/>
			<point x="162" y="409" type="curve"/>
			<point x="156" y="432"/>
			<point x="200" y="443"/>
			<point x="258" y="428" type="curve" smooth="yes"/>
			<point x="277" y="423" type="line"/>
			<point x="155" y="3" type="line"/>
			<point x="146" y="-19"/>
			<point x="166" y="-40"/>
			<point x="182" y="-40" type="curve" smooth="yes"/>
			<point x="195" y="-40"/>
			<point x="217" y="-32"/>
			<point x="223" y="-11" type="curve" smooth="yes"/>
			<point x="343" y="404" type="line"/>
			<point x="365" y="398" type="line" smooth="yes"/>
			<point x="421" y="383"/>
			<point x="454" y="347"/>
			<point x="436" y="330" type="curve"/>
			<point x="419" y="316"/>
			<point x="409" y="302"/>
			<point x="419" y="286" type="curve" smooth="yes"/>
			<point x="432" y="265"/>
			<point x="457" y="260"/>
			<point x="482" y="278" type="curve"/>
			<point x="549" y="334"/>
			<point x="499" y="433"/>
		</contour>
	</outline>
</glyph>
<glyph name="daggerdbl" format="2">
	<advance width="600"/>
	<unicode hex="2021"/>
	<note>
		daggerdbl
	</note>
	<outline>
		<contour>
			<point x="383" y="465" type="curve" smooth="yes"/>
			<point x="362" y="471" type="line"/>
			<point x="399" y="597" type="line"/>
			<point x="401" y="609"/>
			<point x="387" y="630"/>
			<point x="373" y="633" type="curve" smooth="yes"/>
			<point x="359" y="636"/>
			<point x="335" y="624"/>
			<point x="330" y="611" type="curve"/>
			<point x="296" y="491" type="line"/>
			<point x="278" y="496" type="line" smooth="yes"/>
			<point x="164" y="530"/>
			<point x="70" y="474"/>
			<point x="95" y="389" type="curve"/>
			<point x="99" y="370"/>
			<point x="124" y="355"/>
			<point x="143" y="362" type="curve" smooth="yes"/>
			<point x="162" y="369"/>
			<point x="169" y="387"/>
			<point x="162" y="409" type="curve"/>
			<point x="156" y="432"/>
			<point x="200" y="443"/>
			<point x="258" y="428" type="curve" smooth="yes"/>
			<point x="277" y="423" type="line"/>
			<point x="244" y="309" type="line"/>
			<point x="228" y="314" type="line" smooth="yes"/>
			<point x="114" y="348"/>
			<point x="20" y="292"/>
			<point x="45" y="207" type="curve"/>
			<point x="49" y="188"/>
			<point x="74" y="173"/>
			<point x="93" y="180" type="curve" smooth="yes"/>
			<point x="112" y="187"/>
			<point x="119" y="205"/>
			<point x="112" y="227" type="curve"/>
			<point x="106" y="250"/>
			<point x="150" y="261"/>
			<point x="208" y="246" type="curve" smooth="yes"/>
			<point x="224" y="242" type="line"/>
			<point x="155" y="3" type="line"/>
			<point x="146" y="-19"/>
			<point x="166" y="-40"/>
			<point x="182" y="-40" type="curve" smooth="yes"/>
			<point x="195" y="-40"/>
			<point x="217" y="-32"/>
			<point x="223" y="-11" type="curve" smooth="yes"/>
			<point x="291" y="222" type="line"/>
			<point x="315" y="216" type="line" smooth="yes"/>
			<point x="371" y="201"/>
			<point x="404" y="165"/>
			<point x="386" y="148" type="curve"/>
			<point x="369" y="134"/>
			<point x="359" y="120"/>
			<point x="369" y="104" type="curve" smooth="yes"/>
			<point x="382" y="83"/>
			<point x="407" y="78"/>
			<point x="432" y="96" type="curve"/>
			<point x="499" y="152"/>
			<point x="449" y="251"/>
			<point x="333" y="283" type="curve" smooth="yes"/>
			<point x="310" y="289" type="line"/>
			<point x="343" y="404" type="line"/>
			<point x="365" y="398" type="line" smooth="yes"/>
			<point x="421" y="383"/>
			<point x="454" y="347"/>
			<point x="436" y="330" type="curve"/>
			<point x="419" y="316"/>
			<point x="409" y="302"/>
			<point x="419" y="286" type="curve" smooth="yes"/>
			<point x="432" y="265"/>
			<point x="457" y="260"/>
			<point x="482" y="278" type="curve"/>
			<point x="549" y="334"/>
			<point x="499" y="433"/>
		</contour>
	</outline>
</glyph>
<glyph name="ellipsis" format="2">
	<advance width="600"/>
	<unicode hex="2026"/>
	<note>
		ellipsis
	</note>
	<outline>
		<contour>
			<point x="100" y="0" type="curve" smooth="yes"/>
			<point x="134" y="0"/>
			<point x="160" y="26"/>
			<point x="160" y="56" type="curve" smooth="yes"/>
			<point x="160" y="93"/>
			<point x="139" y="117"/>
			<point x="100" y="117" type="curve" smooth="yes"/>
			<point x="65" y="117"/>
			<point x="40" y="92"/>
			<point x="40" y="54" type="curve" smooth="yes"/>
			<point x="40" y="25"/>
			<point x="69" y="0"/>
		</contour>
		<contour>
			<point x="299" y="0" type="curve" smooth="yes"/>
			<point x="333" y="0"/>
			<point x="359" y="26"/>
			<point x="359" y="56" type="curve" smooth="yes"/>
			<point x="359" y="93"/>
			<point x="338" y="117"/>
			<point x="299" y="117" type="curve" smooth="yes"/>
			<point x="264" y="117"/>
			<point x="239" y="92"/>
			<point x="239" y="54" type="curve" smooth="yes"/>
			<point x="239" y="25"/>
			<point x="268" y="0"/>
		</contour>
		<contour>
			<point x="500" y="0" type="curve" smooth="yes"/>
			<point x="534" y="0"/>
			<point x="560" y="26"/>
			<point x="560" y="56" type="curve" smooth="yes"/>
			<point x="560" y="93"/>
			<point x="539" y="117"/>
			<point x="500" y="117" type="curve" smooth="yes"/>
			<point x="465" y="117"/>
			<point x="440" y="92"/>
			<point x="440" y="54" type="curve" smooth="yes"/>
			<point x="440" y="25"/>
			<point x="469" y="0"/>
		</contour>
	</outline>
</glyph>
<glyph name="perthousand" format="2">
	<advance width="600"/>
	<unicode hex="2030"/>
	<note>
		perthousand
	</note>
	<outline>
		<contour>
			<point x="316" y="431" type="curve" smooth="yes"/>
			<point x="324" y="431"/>
			<point x="332" y="432"/>
			<point x="340" y="433" type="curve"/>
			<point x="8" y="-131" type="line"/>
			<point x="0" y="-147"/>
			<point x="2" y="-164"/>
			<point x="15" y="-172" type="curve" smooth="yes"/>
			<point x="31" y="-182"/>
			<point x="57" y="-171"/>
			<point x="67" y="-154" type="curve" smooth="yes"/>
			<point x="485" y="554" type="line" smooth="yes"/>
			<point x="493" y="567"/>
			<point x="492" y="587"/>
			<point x="475" y="596" type="curve" smooth="yes"/>
			<point x="462" y="603"/>
			<point x="441" y="600"/>
			<point x="431" y="585" type="curve"/>
			<point x="390" y="518"/>
			<point x="357" y="492"/>
			<point x="318" y="495" type="curve" smooth="yes"/>
			<point x="305" y="496"/>
			<point x="294" y="498"/>
			<point x="284" y="503" type="curve"/>
			<point x="274" y="533"/>
			<point x="241" y="564"/>
			<point x="200" y="564" type="curve" smooth="yes"/>
			<point x="104" y="564"/>
			<point x="27" y="475"/>
			<point x="27" y="366" type="curve" smooth="yes"/>
			<point x="27" y="309"/>
			<point x="68" y="263"/>
			<point x="119" y="263" type="curve" smooth="yes"/>
			<point x="205" y="263"/>
			<point x="278" y="339"/>
			<point x="291" y="435" type="curve"/>
			<point x="295" y="434"/>
			<point x="300" y="431"/>
		</contour>
		<contour>
			<point x="229" y="462" type="curve" smooth="yes"/>
			<point x="229" y="387"/>
			<point x="179" y="326"/>
			<point x="119" y="326" type="curve" smooth="yes"/>
			<point x="104" y="326"/>
			<point x="90" y="344"/>
			<point x="90" y="366" type="curve" smooth="yes"/>
			<point x="90" y="441"/>
			<point x="140" y="501"/>
			<point x="200" y="501" type="curve" smooth="yes"/>
			<point x="216" y="501"/>
			<point x="229" y="484"/>
		</contour>
		<contour>
			<point x="346" y="193" type="curve" smooth="yes"/>
			<point x="282" y="193"/>
			<point x="229" y="131"/>
			<point x="229" y="58" type="curve" smooth="yes"/>
			<point x="229" y="19"/>
			<point x="258" y="-13"/>
			<point x="295" y="-13" type="curve" smooth="yes"/>
			<point x="360" y="-13"/>
			<point x="412" y="48"/>
			<point x="412" y="122" type="curve" smooth="yes"/>
			<point x="412" y="161"/>
			<point x="383" y="193"/>
		</contour>
		<contour>
			<point x="534" y="193" type="curve" smooth="yes"/>
			<point x="470" y="193"/>
			<point x="417" y="131"/>
			<point x="417" y="58" type="curve" smooth="yes"/>
			<point x="417" y="19"/>
			<point x="446" y="-13"/>
			<point x="483" y="-13" type="curve" smooth="yes"/>
			<point x="548" y="-13"/>
			<point x="600" y="48"/>
			<point x="600" y="122" type="curve" smooth="yes"/>
			<point x="600" y="161"/>
			<point x="571" y="193"/>
		</contour>
		<contour>
			<point x="346" y="140" type="curve" smooth="yes"/>
			<point x="353" y="140"/>
			<point x="360" y="132"/>
			<point x="360" y="122" type="curve" smooth="yes"/>
			<point x="360" y="75"/>
			<point x="331" y="40"/>
			<point x="295" y="40" type="curve" smooth="yes"/>
			<point x="288" y="40"/>
			<point x="282" y="49"/>
			<point x="282" y="58" type="curve" smooth="yes"/>
			<point x="282" y="104"/>
			<point x="311" y="140"/>
		</contour>
		<contour>
			<point x="534" y="140" type="curve" smooth="yes"/>
			<point x="541" y="140"/>
			<point x="548" y="132"/>
			<point x="548" y="122" type="curve" smooth="yes"/>
			<point x="548" y="75"/>
			<point x="519" y="40"/>
			<point x="483" y="40" type="curve" smooth="yes"/>
			<point x="476" y="40"/>
			<point x="470" y="49"/>
			<point x="470" y="58" type="curve" smooth="yes"/>
			<point x="470" y="104"/>
			<point x="499" y="140"/>
		</contour>
	</outline>
</glyph>
<glyph name="guilsinglleft" format="2">
	<advance width="600"/>
	<unicode hex="2039"/>
	<note>
		guilsinglleft
	</note>
	<outline>
		<contour>
			<point x="339" y="104" type="curve" smooth="yes"/>
			<point x="135" y="253" type="line"/>
			<point x="339" y="402" type="line" smooth="yes"/>
			<point x="397" y="445"/>
			<point x="432" y="467"/>
			<point x="454" y="441" type="curve" smooth="yes"/>
			<point x="471" y="421"/>
			<point x="469" y="403"/>
			<point x="446" y="386" type="curve" smooth="yes"/>
			<point x="264" y="253" type="line"/>
			<point x="446" y="120" type="line" smooth="yes"/>
			<point x="469" y="103"/>
			<point x="472" y="84"/>
			<point x="454" y="65" type="curve" smooth="yes"/>
			<point x="430" y="40"/>
			<point x="397" y="61"/>
		</contour>
	</outline>
</glyph>
<glyph name="guilsinglright" format="2">
	<advance width="600"/>
	<unicode hex="203A"/>
	<note>
		guilsinglright
	</note>
	<outline>
		<contour>
			<point x="262" y="402" type="curve" smooth="yes"/>
			<point x="466" y="253" type="line"/>
			<point x="262" y="104" type="line" smooth="yes"/>
			<point x="204" y="61"/>
			<point x="171" y="40"/>
			<point x="147" y="65" type="curve" smooth="yes"/>
			<point x="129" y="84"/>
			<point x="132" y="103"/>
			<point x="155" y="120" type="curve" smooth="yes"/>
			<point x="337" y="253" type="line"/>
			<point x="155" y="386" type="line" smooth="yes"/>
			<point x="132" y="403"/>
			<point x="130" y="421"/>
			<point x="147" y="441" type="curve" smooth="yes"/>
			<point x="169" y="467"/>
			<point x="204" y="445"/>
		</contour>
	</outline>
</glyph>
<glyph name="uni2116" format="2">
	<advance width="600"/>
	<unicode hex="2116"/>
	<outline>
		<contour>
			<point x="579" y="194" type="curve" smooth="yes"/>
			<point x="567" y="202"/>
			<point x="556" y="204"/>
			<point x="539" y="188" type="curve" smooth="yes"/>
			<point x="502" y="153"/>
			<point x="454" y="110"/>
			<point x="421" y="77" type="curve"/>
			<point x="415" y="443" type="line" smooth="yes"/>
			<point x="413" y="541"/>
			<point x="421" y="602"/>
			<point x="321" y="602" type="curve" smooth="yes"/>
			<point x="267" y="602"/>
			<point x="200" y="562"/>
			<point x="135" y="417" type="curve"/>
			<point x="139" y="552" type="line" smooth="yes"/>
			<point x="140" y="582"/>
			<point x="135" y="602"/>
			<point x="104" y="602" type="curve" smooth="yes"/>
			<point x="75" y="602"/>
			<point x="68" y="583"/>
			<point x="68" y="550" type="curve"/>
			<point x="64" y="69" type="line"/>
			<point x="64" y="14"/>
			<point x="63" y="-19"/>
			<point x="93" y="-19" type="curve" smooth="yes"/>
			<point x="132" y="-19"/>
			<point x="124" y="12"/>
			<point x="124" y="55" type="curve" smooth="yes"/>
			<point x="124" y="354"/>
			<point x="252" y="531"/>
			<point x="313" y="531" type="curve" smooth="yes"/>
			<point x="351" y="531"/>
			<point x="344" y="499"/>
			<point x="345" y="412" type="curve" smooth="yes"/>
			<point x="351" y="39" type="line" smooth="yes"/>
			<point x="351" y="13"/>
			<point x="359" y="-13"/>
			<point x="386" y="-13" type="curve" smooth="yes"/>
			<point x="429" y="-13"/>
			<point x="465" y="33"/>
			<point x="582" y="141" type="curve" smooth="yes"/>
			<point x="594" y="152"/>
			<point x="596" y="183"/>
		</contour>
		<contour>
			<point x="527" y="461" type="curve" smooth="yes"/>
			<point x="568" y="461"/>
			<point x="600" y="492"/>
			<point x="600" y="529" type="curve" smooth="yes"/>
			<point x="600" y="574"/>
			<point x="574" y="602"/>
			<point x="527" y="603" type="curve" smooth="yes"/>
			<point x="485" y="604"/>
			<point x="454" y="572"/>
			<point x="454" y="527" type="curve" smooth="yes"/>
			<point x="454" y="491"/>
			<point x="489" y="461"/>
		</contour>
		<contour>
			<point x="527" y="508" type="curve" smooth="yes"/>
			<point x="515" y="508"/>
			<point x="503" y="519"/>
			<point x="503" y="530" type="curve" smooth="yes"/>
			<point x="503" y="544"/>
			<point x="514" y="555"/>
			<point x="527" y="556" type="curve" smooth="yes"/>
			<point x="543" y="557"/>
			<point x="551" y="545"/>
			<point x="551" y="531" type="curve" smooth="yes"/>
			<point x="551" y="519"/>
			<point x="540" y="508"/>
		</contour>
		<contour>
			<point x="594" y="433" type="line"/>
			<point x="527" y="433" type="line"/>
			<point x="461" y="433" type="line"/>
			<point x="461" y="386" type="line"/>
			<point x="527" y="386" type="line"/>
			<point x="594" y="386" type="line"/>
		</contour>
	</outline>
</glyph>
